<svg width="24" height="24" viewBox="0 0 24 24" fill="none" xmlns="http://www.w3.org/2000/svg">
<path d="M14 9C13.4477 9 13 8.55228 13 8C13 7.44772 13.4477 7 14 7V9ZM19 8H20C20 8.55228 19.5523 9 19 9V8ZM18 3C18 2.44772 18.4477 2 19 2C19.5523 2 20 2.44772 20 3H18ZM14 7H19V9H14V7ZM18 8V3H20V8H18Z" fill="white"/>
<path d="M4.58239 9.00315C5.14308 7.61541 6.08182 6.41278 7.29194 5.53197C8.50205 4.65116 9.93499 4.12749 11.4279 4.02048C12.9208 3.91346 14.4138 4.2274 15.7371 4.92661C17.0605 5.62582 18.1612 6.68226 18.9141 7.97584" stroke="white" stroke-width="2" stroke-linecap="round" stroke-linejoin="round"/>
</svg>
