<svg width="261" height="26" viewBox="0 0 261 26" fill="none" xmlns="http://www.w3.org/2000/svg">
<path d="M7.36364 25.2841C6.03788 25.2841 4.83712 24.9432 3.76136 24.2614C2.69318 23.572 1.8447 22.5606 1.21591 21.2273C0.594697 19.8864 0.284091 18.2424 0.284091 16.2955C0.284091 14.2955 0.606061 12.6326 1.25 11.3068C1.89394 9.97348 2.75 8.97727 3.81818 8.31818C4.89394 7.65152 6.07197 7.31818 7.35227 7.31818C8.32955 7.31818 9.14394 7.48485 9.79545 7.81818C10.4545 8.14394 10.9848 8.55303 11.3864 9.04545C11.7955 9.5303 12.1061 10.0076 12.3182 10.4773H12.4659V1.72727H17.2955V25H12.5227V22.2045H12.3182C12.0909 22.6894 11.7689 23.1705 11.3523 23.6477C10.9432 24.1174 10.4091 24.5076 9.75 24.8182C9.09849 25.1288 8.30303 25.2841 7.36364 25.2841ZM8.89773 21.4318C9.67803 21.4318 10.3371 21.2197 10.875 20.7955C11.4205 20.3636 11.8371 19.7614 12.125 18.9886C12.4205 18.2159 12.5682 17.3106 12.5682 16.2727C12.5682 15.2348 12.4242 14.3333 12.1364 13.5682C11.8485 12.803 11.4318 12.2121 10.8864 11.7955C10.3409 11.3788 9.67803 11.1705 8.89773 11.1705C8.10227 11.1705 7.43182 11.3864 6.88636 11.8182C6.34091 12.25 5.92803 12.8485 5.64773 13.6136C5.36742 14.3788 5.22727 15.2652 5.22727 16.2727C5.22727 17.2879 5.36742 18.1856 5.64773 18.9659C5.93561 19.7386 6.34848 20.3447 6.88636 20.7841C7.43182 21.2159 8.10227 21.4318 8.89773 21.4318ZM21.2756 25V7.54545H25.8892V10.625H26.0938C26.4574 9.60227 27.0634 8.79545 27.9119 8.20454C28.7604 7.61364 29.7756 7.31818 30.9574 7.31818C32.1544 7.31818 33.1733 7.61742 34.0142 8.21591C34.8551 8.80682 35.4157 9.60985 35.696 10.625H35.8778C36.2339 9.625 36.8778 8.82576 37.8097 8.22727C38.7491 7.62121 39.8589 7.31818 41.1392 7.31818C42.768 7.31818 44.09 7.83712 45.1051 8.875C46.1278 9.9053 46.6392 11.3674 46.6392 13.2614V25H41.8097V14.2159C41.8097 13.2462 41.5521 12.5189 41.0369 12.0341C40.5218 11.5492 39.8778 11.3068 39.1051 11.3068C38.2263 11.3068 37.5407 11.5871 37.0483 12.1477C36.5559 12.7008 36.3097 13.4318 36.3097 14.3409V25H31.6165V14.1136C31.6165 13.2576 31.3703 12.5758 30.8778 12.0682C30.393 11.5606 29.7528 11.3068 28.9574 11.3068C28.4195 11.3068 27.9347 11.4432 27.5028 11.7159C27.0786 11.9811 26.7415 12.3561 26.4915 12.8409C26.2415 13.3182 26.1165 13.8788 26.1165 14.5227V25H21.2756ZM56.8949 25.2841C55.5691 25.2841 54.3684 24.9432 53.2926 24.2614C52.2244 23.572 51.3759 22.5606 50.7472 21.2273C50.1259 19.8864 49.8153 18.2424 49.8153 16.2955C49.8153 14.2955 50.1373 12.6326 50.7812 11.3068C51.4252 9.97348 52.2813 8.97727 53.3494 8.31818C54.4252 7.65152 55.6032 7.31818 56.8835 7.31818C57.8608 7.31818 58.6752 7.48485 59.3267 7.81818C59.9858 8.14394 60.5161 8.55303 60.9176 9.04545C61.3267 9.5303 61.6373 10.0076 61.8494 10.4773H61.9972V1.72727H66.8267V25H62.054V22.2045H61.8494C61.6222 22.6894 61.3002 23.1705 60.8835 23.6477C60.4744 24.1174 59.9403 24.5076 59.2812 24.8182C58.6297 25.1288 57.8343 25.2841 56.8949 25.2841ZM58.429 21.4318C59.2093 21.4318 59.8684 21.2197 60.4062 20.7955C60.9517 20.3636 61.3684 19.7614 61.6562 18.9886C61.9517 18.2159 62.0994 17.3106 62.0994 16.2727C62.0994 15.2348 61.9555 14.3333 61.6676 13.5682C61.3797 12.803 60.9631 12.2121 60.4176 11.7955C59.8722 11.3788 59.2093 11.1705 58.429 11.1705C57.6335 11.1705 56.9631 11.3864 56.4176 11.8182C55.8722 12.25 55.4593 12.8485 55.179 13.6136C54.8987 14.3788 54.7585 15.2652 54.7585 16.2727C54.7585 17.2879 54.8987 18.1856 55.179 18.9659C55.4669 19.7386 55.8797 20.3447 56.4176 20.7841C56.9631 21.2159 57.6335 21.4318 58.429 21.4318ZM78.2131 25V7.54545H82.8267V10.625H83.0312C83.3949 9.60227 84.0009 8.79545 84.8494 8.20454C85.6979 7.61364 86.7131 7.31818 87.8949 7.31818C89.0919 7.31818 90.1108 7.61742 90.9517 8.21591C91.7926 8.80682 92.3532 9.60985 92.6335 10.625H92.8153C93.1714 9.625 93.8153 8.82576 94.7472 8.22727C95.6866 7.62121 96.7964 7.31818 98.0767 7.31818C99.7055 7.31818 101.027 7.83712 102.043 8.875C103.065 9.9053 103.577 11.3674 103.577 13.2614V25H98.7472V14.2159C98.7472 13.2462 98.4896 12.5189 97.9744 12.0341C97.4593 11.5492 96.8153 11.3068 96.0426 11.3068C95.1638 11.3068 94.4782 11.5871 93.9858 12.1477C93.4934 12.7008 93.2472 13.4318 93.2472 14.3409V25H88.554V14.1136C88.554 13.2576 88.3078 12.5758 87.8153 12.0682C87.3305 11.5606 86.6903 11.3068 85.8949 11.3068C85.357 11.3068 84.8722 11.4432 84.4403 11.7159C84.0161 11.9811 83.679 12.3561 83.429 12.8409C83.179 13.3182 83.054 13.8788 83.054 14.5227V25H78.2131ZM115.355 25.3409C113.56 25.3409 112.014 24.9773 110.719 24.25C109.431 23.5152 108.438 22.4773 107.741 21.1364C107.045 19.7879 106.696 18.1932 106.696 16.3523C106.696 14.5568 107.045 12.9811 107.741 11.625C108.438 10.2689 109.42 9.21212 110.685 8.45454C111.957 7.69697 113.45 7.31818 115.162 7.31818C116.313 7.31818 117.385 7.50379 118.378 7.875C119.378 8.23864 120.249 8.78788 120.991 9.52273C121.741 10.2576 122.325 11.1818 122.741 12.2955C123.158 13.4015 123.366 14.697 123.366 16.1818V17.5114H108.628V14.5114H118.81C118.81 13.8144 118.658 13.197 118.355 12.6591C118.052 12.1212 117.632 11.7008 117.094 11.3977C116.563 11.0871 115.946 10.9318 115.241 10.9318C114.507 10.9318 113.855 11.1023 113.287 11.4432C112.726 11.7765 112.287 12.2273 111.969 12.7955C111.651 13.3561 111.488 13.9811 111.48 14.6705V17.5227C111.48 18.3864 111.639 19.1326 111.957 19.7614C112.283 20.3902 112.741 20.875 113.332 21.2159C113.923 21.5568 114.624 21.7273 115.435 21.7273C115.973 21.7273 116.465 21.6515 116.912 21.5C117.359 21.3485 117.741 21.1212 118.06 20.8182C118.378 20.5152 118.62 20.1439 118.787 19.7045L123.264 20C123.037 21.0758 122.571 22.0152 121.866 22.8182C121.17 23.6136 120.268 24.2348 119.162 24.6818C118.063 25.1212 116.795 25.3409 115.355 25.3409ZM132.957 25.2841C131.632 25.2841 130.431 24.9432 129.355 24.2614C128.287 23.572 127.438 22.5606 126.81 21.2273C126.188 19.8864 125.878 18.2424 125.878 16.2955C125.878 14.2955 126.2 12.6326 126.844 11.3068C127.488 9.97348 128.344 8.97727 129.412 8.31818C130.488 7.65152 131.666 7.31818 132.946 7.31818C133.923 7.31818 134.738 7.48485 135.389 7.81818C136.048 8.14394 136.579 8.55303 136.98 9.04545C137.389 9.5303 137.7 10.0076 137.912 10.4773H138.06V1.72727H142.889V25H138.116V22.2045H137.912C137.685 22.6894 137.363 23.1705 136.946 23.6477C136.537 24.1174 136.003 24.5076 135.344 24.8182C134.692 25.1288 133.897 25.2841 132.957 25.2841ZM134.491 21.4318C135.272 21.4318 135.931 21.2197 136.469 20.7955C137.014 20.3636 137.431 19.7614 137.719 18.9886C138.014 18.2159 138.162 17.3106 138.162 16.2727C138.162 15.2348 138.018 14.3333 137.73 13.5682C137.442 12.803 137.026 12.2121 136.48 11.7955C135.935 11.3788 135.272 11.1705 134.491 11.1705C133.696 11.1705 133.026 11.3864 132.48 11.8182C131.935 12.25 131.522 12.8485 131.241 13.6136C130.961 14.3788 130.821 15.2652 130.821 16.2727C130.821 17.2879 130.961 18.1856 131.241 18.9659C131.529 19.7386 131.942 20.3447 132.48 20.7841C133.026 21.2159 133.696 21.4318 134.491 21.4318ZM146.869 25V7.54545H151.71V25H146.869ZM149.301 5.29545C148.581 5.29545 147.964 5.05682 147.449 4.57954C146.941 4.0947 146.688 3.51515 146.688 2.84091C146.688 2.17424 146.941 1.60227 147.449 1.125C147.964 0.640151 148.581 0.397726 149.301 0.397726C150.021 0.397726 150.634 0.640151 151.142 1.125C151.657 1.60227 151.915 2.17424 151.915 2.84091C151.915 3.51515 151.657 4.0947 151.142 4.57954C150.634 5.05682 150.021 5.29545 149.301 5.29545ZM164.872 7.54545V11.1818H154.361V7.54545H164.872ZM156.747 3.36364H161.588V19.6364C161.588 20.0833 161.656 20.4318 161.793 20.6818C161.929 20.9242 162.118 21.0947 162.361 21.1932C162.611 21.2917 162.899 21.3409 163.224 21.3409C163.452 21.3409 163.679 21.322 163.906 21.2841C164.134 21.2386 164.308 21.2045 164.429 21.1818L165.19 24.7841C164.948 24.8598 164.607 24.947 164.168 25.0455C163.728 25.1515 163.194 25.2159 162.565 25.2386C161.399 25.2841 160.376 25.1288 159.497 24.7727C158.626 24.4167 157.948 23.8636 157.463 23.1136C156.978 22.3636 156.74 21.4167 156.747 20.2727V3.36364ZM173.003 25.3295C171.889 25.3295 170.897 25.1364 170.026 24.75C169.154 24.3561 168.465 23.7765 167.957 23.0114C167.457 22.2386 167.207 21.2765 167.207 20.125C167.207 19.1553 167.385 18.3409 167.741 17.6818C168.098 17.0227 168.582 16.4924 169.196 16.0909C169.81 15.6894 170.507 15.3864 171.287 15.1818C172.075 14.9773 172.901 14.8333 173.764 14.75C174.779 14.6439 175.598 14.5455 176.219 14.4545C176.84 14.3561 177.291 14.2121 177.571 14.0227C177.851 13.8333 177.991 13.553 177.991 13.1818V13.1136C177.991 12.3939 177.764 11.8371 177.31 11.4432C176.863 11.0492 176.226 10.8523 175.401 10.8523C174.529 10.8523 173.836 11.0455 173.321 11.4318C172.806 11.8106 172.465 12.2879 172.298 12.8636L167.821 12.5C168.048 11.4394 168.495 10.5227 169.162 9.75C169.829 8.9697 170.688 8.37121 171.741 7.95454C172.802 7.5303 174.029 7.31818 175.423 7.31818C176.393 7.31818 177.321 7.43182 178.207 7.65909C179.101 7.88636 179.893 8.23864 180.582 8.71591C181.279 9.19318 181.829 9.80682 182.23 10.5568C182.632 11.2992 182.832 12.1894 182.832 13.2273V25H178.241V22.5795H178.105C177.825 23.125 177.45 23.6061 176.98 24.0227C176.51 24.4318 175.946 24.7538 175.287 24.9886C174.628 25.2159 173.866 25.3295 173.003 25.3295ZM174.389 21.9886C175.101 21.9886 175.73 21.8485 176.276 21.5682C176.821 21.2803 177.249 20.8939 177.56 20.4091C177.87 19.9242 178.026 19.375 178.026 18.7614V16.9091C177.874 17.0076 177.666 17.0985 177.401 17.1818C177.143 17.2576 176.851 17.3295 176.526 17.3977C176.2 17.4583 175.874 17.5152 175.548 17.5682C175.223 17.6136 174.927 17.6553 174.662 17.6932C174.094 17.7765 173.598 17.9091 173.173 18.0909C172.749 18.2727 172.42 18.5189 172.185 18.8295C171.95 19.1326 171.832 19.5114 171.832 19.9659C171.832 20.625 172.071 21.1288 172.548 21.4773C173.033 21.8182 173.647 21.9886 174.389 21.9886ZM195.872 7.54545V11.1818H185.361V7.54545H195.872ZM187.747 3.36364H192.588V19.6364C192.588 20.0833 192.656 20.4318 192.793 20.6818C192.929 20.9242 193.118 21.0947 193.361 21.1932C193.611 21.2917 193.899 21.3409 194.224 21.3409C194.452 21.3409 194.679 21.322 194.906 21.2841C195.134 21.2386 195.308 21.2045 195.429 21.1818L196.19 24.7841C195.948 24.8598 195.607 24.947 195.168 25.0455C194.728 25.1515 194.194 25.2159 193.565 25.2386C192.399 25.2841 191.376 25.1288 190.497 24.7727C189.626 24.4167 188.948 23.8636 188.463 23.1136C187.978 22.3636 187.74 21.4167 187.747 20.2727V3.36364ZM199.026 25V7.54545H203.866V25H199.026ZM201.457 5.29545C200.738 5.29545 200.12 5.05682 199.605 4.57954C199.098 4.0947 198.844 3.51515 198.844 2.84091C198.844 2.17424 199.098 1.60227 199.605 1.125C200.12 0.640151 200.738 0.397726 201.457 0.397726C202.177 0.397726 202.791 0.640151 203.298 1.125C203.813 1.60227 204.071 2.17424 204.071 2.84091C204.071 3.51515 203.813 4.0947 203.298 4.57954C202.791 5.05682 202.177 5.29545 201.457 5.29545ZM215.631 25.3409C213.866 25.3409 212.339 24.9659 211.051 24.2159C209.771 23.4583 208.782 22.4053 208.085 21.0568C207.388 19.7008 207.04 18.1288 207.04 16.3409C207.04 14.5379 207.388 12.9621 208.085 11.6136C208.782 10.2576 209.771 9.20454 211.051 8.45454C212.339 7.69697 213.866 7.31818 215.631 7.31818C217.396 7.31818 218.919 7.69697 220.199 8.45454C221.487 9.20454 222.479 10.2576 223.176 11.6136C223.873 12.9621 224.222 14.5379 224.222 16.3409C224.222 18.1288 223.873 19.7008 223.176 21.0568C222.479 22.4053 221.487 23.4583 220.199 24.2159C218.919 24.9659 217.396 25.3409 215.631 25.3409ZM215.653 21.5909C216.456 21.5909 217.127 21.3636 217.665 20.9091C218.203 20.447 218.608 19.8182 218.881 19.0227C219.161 18.2273 219.301 17.322 219.301 16.3068C219.301 15.2917 219.161 14.3864 218.881 13.5909C218.608 12.7955 218.203 12.1667 217.665 11.7045C217.127 11.2424 216.456 11.0114 215.653 11.0114C214.843 11.0114 214.161 11.2424 213.608 11.7045C213.063 12.1667 212.65 12.7955 212.369 13.5909C212.097 14.3864 211.96 15.2917 211.96 16.3068C211.96 17.322 212.097 18.2273 212.369 19.0227C212.65 19.8182 213.063 20.447 213.608 20.9091C214.161 21.3636 214.843 21.5909 215.653 21.5909ZM232.21 14.9091V25H227.369V7.54545H231.983V10.625H232.188C232.574 9.60985 233.222 8.80682 234.131 8.21591C235.04 7.61742 236.142 7.31818 237.438 7.31818C238.65 7.31818 239.706 7.58333 240.608 8.11364C241.509 8.64394 242.21 9.40151 242.71 10.3864C243.21 11.3636 243.46 12.5303 243.46 13.8864V25H238.619V14.75C238.627 13.6818 238.354 12.8485 237.801 12.25C237.248 11.6439 236.487 11.3409 235.517 11.3409C234.866 11.3409 234.29 11.4811 233.79 11.7614C233.297 12.0417 232.911 12.4508 232.631 12.9886C232.358 13.5189 232.218 14.1591 232.21 14.9091ZM260.466 1.72727L260.023 18.0227H255.864L255.409 1.72727H260.466ZM257.943 25.2955C257.193 25.2955 256.549 25.0303 256.011 24.5C255.473 23.9621 255.208 23.3182 255.216 22.5682C255.208 21.8258 255.473 21.1894 256.011 20.6591C256.549 20.1288 257.193 19.8636 257.943 19.8636C258.663 19.8636 259.295 20.1288 259.841 20.6591C260.386 21.1894 260.663 21.8258 260.67 22.5682C260.663 23.0682 260.53 23.5265 260.273 23.9432C260.023 24.3523 259.693 24.6818 259.284 24.9318C258.875 25.1742 258.428 25.2955 257.943 25.2955Z" fill="#9765A8"/>
</svg>
