<svg width="186" height="205" viewBox="0 0 186 205" fill="none" xmlns="http://www.w3.org/2000/svg">
<path fill-rule="evenodd" clip-rule="evenodd" d="M185.866 55.5903C186.23 52.3031 185.85 48.9758 184.754 45.8566C183.658 42.7373 181.874 39.9065 179.536 37.5752C177.198 35.244 174.365 33.4725 171.249 32.3927C168.133 31.313 164.815 30.953 161.541 31.3394C159.056 31.6566 156.636 32.364 154.37 33.4358C150.405 35.3885 147.12 38.4956 144.943 42.3511C142.767 46.2066 141.799 50.6312 142.168 55.0468C142.606 59.8357 144.537 64.3641 147.689 67.9875C150.636 71.2645 154.492 73.5824 158.763 74.6432C163.033 75.7039 167.522 75.4591 171.653 73.9402C172.819 73.5041 173.949 72.9762 175.032 72.3614C178.889 70.1502 181.97 66.7963 183.854 62.7594C184.388 61.639 184.836 60.4797 185.195 59.2913C185.508 58.0844 185.732 56.856 185.866 55.6162V55.5903ZM106.751 121.743C85.6583 110.713 68.8594 92.9062 59.0396 71.1695C49.2197 49.4328 46.9457 25.0206 52.5811 1.83462C52.6553 1.51855 52.7932 1.22107 52.9863 0.960465C53.1795 0.699857 53.4237 0.481634 53.7039 0.319215C53.9842 0.156797 54.2946 0.0536169 54.6161 0.0160163C54.9376 -0.0215843 55.2633 0.00718655 55.5733 0.100568C187.13 38.7156 135.049 233.913 1.81574 201.354C1.50447 201.273 1.21237 201.131 0.956459 200.936C0.700546 200.74 0.485913 200.496 0.325075 200.216C0.164237 199.937 0.0603963 199.628 0.0195973 199.308C-0.0212017 198.988 0.00184345 198.663 0.0874157 198.352C6.78037 175.462 20.9213 155.48 40.2541 141.595C59.5869 127.71 82.9976 120.721 106.751 121.743Z" fill="#9765A8"/>
</svg>
