<svg width="637" height="698" viewBox="0 0 637 698" fill="none" xmlns="http://www.w3.org/2000/svg">
<g filter="url(#filter0_d_1396_3676)">
<path fill-rule="evenodd" clip-rule="evenodd" d="M631.969 191.101C633.199 180.053 631.916 168.87 628.215 158.386C624.515 147.903 618.492 138.388 610.597 130.553C602.702 122.718 593.138 116.764 582.618 113.135C572.097 109.506 560.893 108.296 549.839 109.595C541.448 110.661 533.278 113.038 525.627 116.641C512.242 123.204 501.15 133.646 493.8 146.605C486.451 159.563 483.186 174.434 484.431 189.275C485.908 205.37 492.43 220.59 503.07 232.768C513.02 243.782 526.042 251.572 540.46 255.138C554.878 258.703 570.034 257.88 583.98 252.775C587.917 251.309 591.732 249.535 595.389 247.469C608.413 240.037 618.817 228.764 625.176 215.197C626.978 211.431 628.491 207.534 629.704 203.54C630.761 199.484 631.518 195.355 631.969 191.188V191.101ZM364.851 413.439C293.634 376.366 236.915 316.519 203.76 243.463C170.605 170.406 162.927 88.3573 181.954 10.4298C182.204 9.36747 182.67 8.36767 183.322 7.49177C183.974 6.61587 184.799 5.88243 185.745 5.33655C186.691 4.79066 187.739 4.44388 188.825 4.3175C189.91 4.19113 191.01 4.28783 192.057 4.60168C636.237 134.386 460.394 790.44 10.5524 681.011C9.5015 680.738 8.51526 680.26 7.65121 679.603C6.78716 678.947 6.06248 678.125 5.51944 677.186C4.9764 676.247 4.62579 675.209 4.48804 674.134C4.35029 673.058 4.4281 671.966 4.71702 670.92C27.3147 593.987 75.0594 526.829 140.334 480.161C205.608 433.492 284.65 410.003 364.851 413.439Z" fill="#E7DDEC"/>
</g>
<defs>
<filter id="filter0_d_1396_3676" x="0.421875" y="0.263672" width="636" height="697" filterUnits="userSpaceOnUse" color-interpolation-filters="sRGB">
<feFlood flood-opacity="0" result="BackgroundImageFix"/>
<feColorMatrix in="SourceAlpha" type="matrix" values="0 0 0 0 0 0 0 0 0 0 0 0 0 0 0 0 0 0 127 0" result="hardAlpha"/>
<feOffset/>
<feGaussianBlur stdDeviation="2"/>
<feComposite in2="hardAlpha" operator="out"/>
<feColorMatrix type="matrix" values="0 0 0 0 0 0 0 0 0 0 0 0 0 0 0 0 0 0 0.25 0"/>
<feBlend mode="normal" in2="BackgroundImageFix" result="effect1_dropShadow_1396_3676"/>
<feBlend mode="normal" in="SourceGraphic" in2="effect1_dropShadow_1396_3676" result="shape"/>
</filter>
</defs>
</svg>
