<svg width="320" height="351" viewBox="0 0 320 351" fill="none" xmlns="http://www.w3.org/2000/svg">
<g filter="url(#filter0_d_1063_3162)">
<path fill-rule="evenodd" clip-rule="evenodd" d="M315.775 97.0121C316.386 91.512 315.749 85.9449 313.91 80.7258C312.072 75.5068 309.08 70.7704 305.157 66.8698C301.235 62.9692 296.483 60.0052 291.256 58.1986C286.03 56.392 280.463 55.7896 274.972 56.4362C270.803 56.9669 266.744 58.1506 262.943 59.9438C256.293 63.2111 250.782 68.4097 247.131 74.8606C243.479 81.3115 241.857 88.7146 242.476 96.1027C243.21 104.115 246.45 111.692 251.736 117.755C256.679 123.238 263.149 127.116 270.312 128.891C277.475 130.666 285.005 130.256 291.933 127.715C293.889 126.985 295.785 126.102 297.602 125.073C304.072 121.373 309.241 115.762 312.4 109.007C313.295 107.133 314.047 105.193 314.65 103.205C315.175 101.185 315.551 99.1299 315.775 97.0553V97.0121ZM183.067 207.697C147.685 189.241 119.506 159.448 103.034 123.079C86.5621 86.7094 82.7477 45.8638 92.2005 7.06963C92.3251 6.54079 92.5564 6.04306 92.8803 5.60702C93.2042 5.17098 93.6139 4.80586 94.084 4.5341C94.5541 4.26235 95.0749 4.08971 95.6141 4.0268C96.1534 3.96389 96.6998 4.01202 97.2198 4.16827C317.895 68.7778 230.534 395.377 7.04576 340.9C6.52363 340.765 6.03366 340.526 5.60438 340.2C5.17511 339.873 4.81508 339.463 4.54529 338.996C4.2755 338.529 4.10131 338.012 4.03287 337.477C3.96444 336.941 4.00309 336.397 4.14663 335.877C15.3735 297.578 39.0938 264.145 71.523 240.912C103.952 217.68 143.222 205.986 183.067 207.697Z" fill="#E7DDEC"/>
</g>
<defs>
<filter id="filter0_d_1063_3162" x="0" y="0" width="320" height="351" filterUnits="userSpaceOnUse" color-interpolation-filters="sRGB">
<feFlood flood-opacity="0" result="BackgroundImageFix"/>
<feColorMatrix in="SourceAlpha" type="matrix" values="0 0 0 0 0 0 0 0 0 0 0 0 0 0 0 0 0 0 127 0" result="hardAlpha"/>
<feOffset/>
<feGaussianBlur stdDeviation="2"/>
<feComposite in2="hardAlpha" operator="out"/>
<feColorMatrix type="matrix" values="0 0 0 0 0 0 0 0 0 0 0 0 0 0 0 0 0 0 0.25 0"/>
<feBlend mode="normal" in2="BackgroundImageFix" result="effect1_dropShadow_1063_3162"/>
<feBlend mode="normal" in="SourceGraphic" in2="effect1_dropShadow_1063_3162" result="shape"/>
</filter>
</defs>
</svg>
