<svg width="158" height="173" viewBox="0 0 158 173" fill="none" xmlns="http://www.w3.org/2000/svg">
<g filter="url(#filter0_d_1180_2369)">
<path fill-rule="evenodd" clip-rule="evenodd" d="M153.892 48.7434C154.186 46.0976 153.879 43.4196 152.995 40.9089C152.111 38.3983 150.673 36.1199 148.787 34.2435C146.901 32.3671 144.617 30.9413 142.104 30.0722C139.591 29.2032 136.915 28.9134 134.275 29.2244C132.271 29.4797 130.319 30.0491 128.492 30.9117C125.295 32.4835 122.645 34.9843 120.89 38.0875C119.134 41.1907 118.354 44.7519 118.652 48.306C119.005 52.1604 120.562 55.8052 123.104 58.7216C125.48 61.3593 128.591 63.2249 132.034 64.0786C135.478 64.9324 139.098 64.7354 142.43 63.5128C143.37 63.1618 144.281 62.7369 145.155 62.2421C148.265 60.4623 150.75 57.7629 152.269 54.5137C152.7 53.6119 153.061 52.6788 153.351 51.7223C153.603 50.7509 153.784 49.7622 153.892 48.7642V48.7434ZM90.0898 101.988C73.0793 93.1102 59.5318 78.7782 51.6126 61.2828C43.6933 43.7873 41.8595 24.1385 46.4041 5.47664C46.464 5.22225 46.5752 4.98281 46.7309 4.77306C46.8867 4.5633 47.0836 4.38766 47.3096 4.25693C47.5356 4.1262 47.786 4.04316 48.0453 4.01289C48.3045 3.98263 48.5672 4.00578 48.8172 4.08095C154.911 35.1614 112.91 192.272 5.46431 166.066C5.21329 166 4.97772 165.886 4.77134 165.729C4.56496 165.571 4.39187 165.375 4.26216 165.15C4.13245 164.925 4.04871 164.676 4.0158 164.419C3.9829 164.161 4.00149 163.9 4.0705 163.649C9.46804 145.225 20.872 129.143 36.463 117.967C52.0539 106.791 70.9336 101.165 90.0898 101.988Z" fill="#9765A8"/>
</g>
<defs>
<filter id="filter0_d_1180_2369" x="0" y="0" width="158" height="173" filterUnits="userSpaceOnUse" color-interpolation-filters="sRGB">
<feFlood flood-opacity="0" result="BackgroundImageFix"/>
<feColorMatrix in="SourceAlpha" type="matrix" values="0 0 0 0 0 0 0 0 0 0 0 0 0 0 0 0 0 0 127 0" result="hardAlpha"/>
<feOffset/>
<feGaussianBlur stdDeviation="2"/>
<feComposite in2="hardAlpha" operator="out"/>
<feColorMatrix type="matrix" values="0 0 0 0 0 0 0 0 0 0 0 0 0 0 0 0 0 0 0.25 0"/>
<feBlend mode="normal" in2="BackgroundImageFix" result="effect1_dropShadow_1180_2369"/>
<feBlend mode="normal" in="SourceGraphic" in2="effect1_dropShadow_1180_2369" result="shape"/>
</filter>
</defs>
</svg>
