<svg width="8" height="6" viewBox="0 0 8 6" fill="none" xmlns="http://www.w3.org/2000/svg">
<path d="M3.27485 0V1.74951C3.27485 2.46184 3.09552 3.21331 2.73684 4.00391C2.37817 4.80235 1.87524 5.46771 1.22807 6L0 5.14286C0.249513 4.79843 0.460039 4.44618 0.631579 4.08611C0.803119 3.73386 0.931774 3.36595 1.01754 2.98239C1.11111 2.60665 1.15789 2.20744 1.15789 1.78474V0H3.27485Z" fill="white"/>
<path d="M8 0V1.74951C8 2.46184 7.82066 3.21331 7.46199 4.00391C7.10331 4.80235 6.60039 5.46771 5.95322 6L4.72515 5.14286C4.97466 4.79843 5.18519 4.44618 5.35673 4.08611C5.52826 3.73386 5.65692 3.36595 5.74269 2.98239C5.83626 2.60665 5.88304 2.20744 5.88304 1.78474V0H8Z" fill="white"/>
</svg>
