<svg width="19" height="20" viewBox="0 0 19 20" fill="none" xmlns="http://www.w3.org/2000/svg">
<path fill-rule="evenodd" clip-rule="evenodd" d="M18.9863 5.42344C19.0235 5.10274 18.9847 4.77813 18.8727 4.47381C18.7608 4.16949 18.5786 3.89332 18.3397 3.66588C18.1008 3.43844 17.8115 3.26561 17.4932 3.16027C17.1749 3.05493 16.8359 3.0198 16.5015 3.0575C16.2476 3.08845 16.0004 3.15747 15.7689 3.26203C15.364 3.45254 15.0284 3.75567 14.806 4.13181C14.5837 4.50796 14.4849 4.93963 14.5226 5.37042C14.5672 5.83763 14.7646 6.27942 15.0865 6.63293C15.3875 6.95264 15.7815 7.17877 16.2177 7.28226C16.6539 7.38575 17.1125 7.36186 17.5344 7.21368C17.6535 7.17113 17.7689 7.11963 17.8796 7.05965C18.2736 6.84392 18.5884 6.51671 18.7808 6.12287C18.8353 6.01356 18.8811 5.90046 18.9178 5.78452C18.9498 5.66677 18.9727 5.54693 18.9863 5.42597V5.42344ZM10.9047 11.8774C8.75004 10.8012 7.03403 9.06402 6.03093 6.94337C5.02782 4.82271 4.79553 2.44104 5.37118 0.178987C5.37877 0.148151 5.39286 0.119129 5.41258 0.0937039C5.43231 0.0682788 5.45726 0.0469887 5.48589 0.031143C5.51452 0.0152972 5.54623 0.00523092 5.57907 0.00156257C5.61191 -0.00210579 5.64518 0.000701127 5.67685 0.00981155C19.1154 3.77713 13.7953 22.8208 0.185479 19.6443C0.153683 19.6364 0.123844 19.6225 0.0977028 19.6035C0.0715612 19.5844 0.0496363 19.5606 0.0332066 19.5333C0.0167769 19.506 0.00616952 19.4759 0.00200188 19.4447C-0.00216576 19.4135 0.00018831 19.3818 0.00892956 19.3514C0.692619 17.1182 2.13712 15.1688 4.11198 13.8141C6.08683 12.4595 8.47825 11.7776 10.9047 11.8774Z" fill="white"/>
</svg>
