<svg width="126" height="139" viewBox="0 0 126 139" fill="none" xmlns="http://www.w3.org/2000/svg">
<path fill-rule="evenodd" clip-rule="evenodd" d="M125.909 37.6929C126.156 35.4641 125.898 33.208 125.156 31.093C124.414 28.978 123.205 27.0585 121.621 25.4778C120.037 23.8972 118.118 22.696 116.007 21.9639C113.897 21.2318 111.649 20.9876 109.431 21.2497C107.747 21.4647 106.108 21.9444 104.573 22.6711C101.887 23.9952 99.662 26.1019 98.1874 28.7161C96.7128 31.3303 96.0577 34.3304 96.3077 37.3244C96.6038 40.5715 97.9124 43.642 100.047 46.0988C102.044 48.3208 104.656 49.8924 107.549 50.6117C110.442 51.331 113.483 51.165 116.281 50.1351C117.071 49.8393 117.836 49.4814 118.57 49.0646C121.183 47.5652 123.27 45.2912 124.546 42.554C124.908 41.7943 125.211 41.0082 125.455 40.2024C125.667 39.3841 125.819 38.5512 125.909 37.7105V37.6929ZM72.3155 82.5478C58.0266 75.0686 46.6467 62.9949 39.9946 48.2564C33.3424 33.5178 31.8019 16.9652 35.6194 1.24396C35.6697 1.02965 35.7632 0.827946 35.894 0.651242C36.0248 0.474537 36.1902 0.326571 36.3801 0.216443C36.5699 0.106316 36.7802 0.0363549 36.998 0.0108598C37.2158 -0.0146352 37.4365 0.00487283 37.6464 0.0681903C126.765 26.2511 91.4848 158.605 1.23002 136.528C1.01916 136.473 0.821284 136.377 0.647924 136.244C0.474564 136.112 0.329167 135.946 0.220212 135.756C0.111258 135.567 0.0409137 135.358 0.0132756 135.141C-0.0143624 134.924 0.00124879 134.703 0.0592171 134.492C4.59316 118.972 14.1725 105.423 27.2689 96.0082C40.3653 86.5933 56.2242 81.8545 72.3155 82.5478Z" fill="white"/>
</svg>
