<svg width="84" height="84" viewBox="0 0 84 84" fill="none" xmlns="http://www.w3.org/2000/svg">
<path d="M31.5 38.5H32.5C32.5 37.9477 32.0523 37.5 31.5 37.5V38.5ZM31.5 70V71C32.0523 71 32.5 70.5523 32.5 70H31.5ZM10.5 70H9.5C9.5 70.5523 9.94772 71 10.5 71V70ZM14 39.5H31.5V37.5H14V39.5ZM30.5 38.5V70H32.5V38.5H30.5ZM31.5 69H10.5V71H31.5V69ZM11.5 70V42H9.5V70H11.5ZM14 37.5C11.5147 37.5 9.5 39.5147 9.5 42H11.5C11.5 40.6193 12.6193 39.5 14 39.5V37.5Z" fill="white"/>
<path d="M52.5 28V27C51.9477 27 51.5 27.4477 51.5 28H52.5ZM73.5 70V71C74.0523 71 74.5 70.5523 74.5 70H73.5ZM52.5 70H51.5C51.5 70.5523 51.9477 71 52.5 71V70ZM52.5 29H70V27H52.5V29ZM72.5 31.5V70H74.5V31.5H72.5ZM73.5 69H52.5V71H73.5V69ZM53.5 70V28H51.5V70H53.5ZM70 29C71.3807 29 72.5 30.1193 72.5 31.5H74.5C74.5 29.0147 72.4853 27 70 27V29Z" fill="white"/>
<path d="M52.5 70V71C53.0523 71 53.5 70.5523 53.5 70H52.5ZM31.5 70H30.5C30.5 70.5523 30.9477 71 31.5 71V70ZM35 15H49V13H35V15ZM51.5 17.5V70H53.5V17.5H51.5ZM52.5 69H31.5V71H52.5V69ZM32.5 70V17.5H30.5V70H32.5ZM49 15C50.3807 15 51.5 16.1193 51.5 17.5H53.5C53.5 15.0147 51.4853 13 49 13V15ZM35 13C32.5147 13 30.5 15.0147 30.5 17.5H32.5C32.5 16.1193 33.6193 15 35 15V13Z" fill="white"/>
</svg>
