<?xml version="1.0" encoding="UTF-8" standalone="no"?>
<svg
   width="16.417601"
   height="8.00315"
   viewBox="0 0 16.417601 8.00315"
   fill="none"
   version="1.1"
   id="svg11"
   sodipodi:docname="ControlButton_Left.svg"
   inkscape:version="1.2.1 (9c6d41e410, 2022-07-14)"
   xmlns:inkscape="http://www.inkscape.org/namespaces/inkscape"
   xmlns:sodipodi="http://sodipodi.sourceforge.net/DTD/sodipodi-0.dtd"
   xmlns="http://www.w3.org/2000/svg"
   xmlns:svg="http://www.w3.org/2000/svg">
  <defs
     id="defs15" />
  <sodipodi:namedview
     id="namedview13"
     pagecolor="#ffffff"
     bordercolor="#000000"
     borderopacity="0.25"
     inkscape:showpageshadow="2"
     inkscape:pageopacity="0.0"
     inkscape:pagecheckerboard="0"
     inkscape:deskcolor="#d1d1d1"
     showgrid="false"
     inkscape:zoom="4.21875"
     inkscape:cx="93.985185"
     inkscape:cy="61.037037"
     inkscape:window-width="1920"
     inkscape:window-height="997"
     inkscape:window-x="-9"
     inkscape:window-y="45"
     inkscape:window-maximized="1"
     inkscape:current-layer="svg11" />
  <path
     d="M 6,7 C 6.5523,7 7,6.55228 7,6 7,5.44772 6.5523,5 6,5 Z M 1,6 H 0 C 0,6.55228 0.44772,7 1,7 Z M 2,1 C 2,0.44772 1.55228,0 1,0 0.44772,0 0,0.44772 0,1 Z M 6,5 H 1 V 7 H 6 Z M 2,6 V 1 H 0 v 5 z"
     fill="#ffffff"
     id="path7" />
  <path
     d="M 15.4176,7.00315 C 14.8569,5.61541 13.9182,4.41278 12.7081,3.53197 11.498,2.65116 10.065,2.12749 8.5721,2.02048 7.0792,1.91346 5.58624,2.2274 4.26287,2.92661 2.9395,3.62582 1.83882,4.68226 1.08594,5.97584"
     stroke="#ffffff"
     stroke-width="2"
     stroke-linecap="round"
     stroke-linejoin="round"
     id="path9" />
</svg>
