<svg width="22" height="44" viewBox="0 0 22 44" fill="none" xmlns="http://www.w3.org/2000/svg">
<path d="M4 2C4 0.895431 3.10457 3.11499e-08 2 0C0.895431 -3.11499e-08 7.48375e-08 0.89543 0 2L4 2ZM-2.71011e-06 42C-2.78494e-06 43.1046 0.895428 44 2 44C3.10457 44 4 43.1046 4 42L-2.71011e-06 42ZM2 2C0 2 0 2.00009 0 2.00028C0 2.00046 0 2.00074 0 2.00111C-1.00614e-10 2.00148 -1.32018e-10 2.00195 -1.69673e-10 2.0025C-2.07327e-10 2.00306 -2.51233e-10 2.00371 -3.01373e-10 2.00445C-3.51512e-10 2.00519 -4.07886e-10 2.00602 -4.70477e-10 2.00694C-5.33068e-10 2.00787 -6.01876e-10 2.00888 -6.76884e-10 2.00999C-7.51893e-10 2.0111 -8.33102e-10 2.0123 -9.20495e-10 2.01359C-1.00789e-09 2.01488 -1.10146e-09 2.01626 -1.20121e-09 2.01773C-1.30095e-09 2.0192 -1.40686e-09 2.02076 -1.51892e-09 2.02242C-1.63099e-09 2.02407 -1.7492e-09 2.02582 -1.87354e-09 2.02765C-1.99789e-09 2.02949 -2.12837e-09 2.03141 -2.26496e-09 2.03343C-2.40156e-09 2.03545 -2.54427e-09 2.03755 -2.69308e-09 2.03975C-2.8419e-09 2.04195 -2.99681e-09 2.04423 -3.15781e-09 2.04661C-3.3188e-09 2.04898 -3.48588e-09 2.05145 -3.65903e-09 2.05401C-3.83218e-09 2.05656 -4.01139e-09 2.05921 -4.19665e-09 2.06194C-4.38192e-09 2.06468 -4.57323e-09 2.0675 -4.77058e-09 2.07041C-4.96792e-09 2.07332 -5.1713e-09 2.07633 -5.3807e-09 2.07942C-5.5901e-09 2.08251 -5.80551e-09 2.08569 -6.02692e-09 2.08895C-6.24834e-09 2.09222 -6.47575e-09 2.09558 -6.70914e-09 2.09902C-6.94254e-09 2.10247 -7.18192e-09 2.106 -7.42726e-09 2.10962C-7.67261e-09 2.11324 -7.92392e-09 2.11695 -8.18118e-09 2.12075C-8.43844e-09 2.12455 -8.70165e-09 2.12843 -8.9708e-09 2.13241C-9.23994e-09 2.13638 -9.51502e-09 2.14044 -9.79601e-09 2.14458C-1.0077e-08 2.14873 -1.03639e-08 2.15297 -1.06567e-08 2.15729C-1.09495e-08 2.16161 -1.12482e-08 2.16602 -1.15528e-08 2.17051C-1.18574e-08 2.17501 -1.21679e-08 2.17959 -1.24842e-08 2.18426C-1.28006e-08 2.18893 -1.31228e-08 2.19369 -1.34508e-08 2.19853C-1.37789e-08 2.20337 -1.41128e-08 2.2083 -1.44525e-08 2.21331C-1.47923e-08 2.21833 -1.51378e-08 2.22343 -1.54892e-08 2.22861C-1.58406e-08 2.2338 -1.61978e-08 2.23907 -1.65608e-08 2.24443C-1.69238e-08 2.24979 -1.72926e-08 2.25523 -1.76672e-08 2.26076C-1.80418e-08 2.26629 -1.84221e-08 2.2719 -1.88082e-08 2.2776C-1.91944e-08 2.2833 -1.95863e-08 2.28908 -1.99839e-08 2.29495C-2.03816e-08 2.30082 -2.07849e-08 2.30678 -2.11941e-08 2.31282C-2.16032e-08 2.31885 -2.20181e-08 2.32498 -2.24386e-08 2.33118C-2.28592e-08 2.33739 -2.32855e-08 2.34368 -2.37175e-08 2.35006C-2.41495e-08 2.35644 -2.45871e-08 2.3629 -2.50305e-08 2.36944C-2.54739e-08 2.37598 -2.59229e-08 2.38261 -2.63776e-08 2.38932C-2.68324e-08 2.39603 -2.72927e-08 2.40283 -2.77588e-08 2.40971C-2.82248e-08 2.41659 -2.86965e-08 2.42355 -2.91738e-08 2.43059C-2.96511e-08 2.43764 -3.0134e-08 2.44477 -3.06226e-08 2.45198C-3.11111e-08 2.45919 -3.16053e-08 2.46648 -3.21051e-08 2.47386C-3.26048e-08 2.48123 -3.31102e-08 2.48869 -3.36212e-08 2.49623C-3.41321e-08 2.50378 -3.46486e-08 2.5114 -3.51707e-08 2.5191C-3.56928e-08 2.52681 -3.62205e-08 2.5346 -3.67537e-08 2.54247C-3.72869e-08 2.55034 -3.78257e-08 2.55829 -3.83699e-08 2.56632C-3.89142e-08 2.57436 -3.9464e-08 2.58247 -4.00194e-08 2.59067C-4.05747e-08 2.59887 -4.11356e-08 2.60714 -4.17019e-08 2.6155C-4.22683e-08 2.62386 -4.28401e-08 2.6323 -4.34174e-08 2.64082C-4.39948e-08 2.64934 -4.45776e-08 2.65795 -4.51658e-08 2.66663C-4.57541e-08 2.67531 -4.63478e-08 2.68407 -4.6947e-08 2.69292C-4.75462e-08 2.70176 -4.81508e-08 2.71069 -4.87609e-08 2.71969C-4.9371e-08 2.72869 -4.99865e-08 2.73778 -5.06074e-08 2.74694C-5.12283e-08 2.75611 -5.18546e-08 2.76535 -5.24863e-08 2.77468C-5.3118e-08 2.784 -5.37552e-08 2.7934 -5.43977e-08 2.80289C-5.50402e-08 2.81237 -5.5688e-08 2.82193 -5.63413e-08 2.83157C-5.69945e-08 2.84121 -5.76531e-08 2.85094 -5.83171e-08 2.86074C-5.8981e-08 2.87053 -5.96503e-08 2.88041 -6.0325e-08 2.89037C-6.09996e-08 2.90033 -6.16796e-08 2.91036 -6.23649e-08 2.92048C-6.30501e-08 2.93059 -6.37407e-08 2.94079 -6.44366e-08 2.95106C-6.51325e-08 2.96133 -6.58337e-08 2.97168 -6.65402e-08 2.9821C-6.72466e-08 2.99253 -6.79584e-08 3.00304 -6.86754e-08 3.01362C-6.93924e-08 3.0242 -7.01147e-08 3.03486 -7.08422e-08 3.0456C-7.15697e-08 3.05634 -7.23025e-08 3.06715 -7.30405e-08 3.07805C-7.37785e-08 3.08894 -7.45217e-08 3.09991 -7.52702e-08 3.11096C-7.60186e-08 3.122 -7.67723e-08 3.13313 -7.75311e-08 3.14433C-7.829e-08 3.15553 -7.9054e-08 3.1668 -7.98233e-08 3.17816C-8.05925e-08 3.18951 -8.13669e-08 3.20094 -8.21465e-08 3.21245C-8.2926e-08 3.22395 -8.37108e-08 3.23553 -8.45007e-08 3.24719C-8.52905e-08 3.25885 -8.60856e-08 3.27059 -8.68857e-08 3.2824C-8.76859e-08 3.29421 -8.84912e-08 3.30609 -8.93016e-08 3.31805C-9.0112e-08 3.33001 -9.09275e-08 3.34205 -9.17481e-08 3.35416C-9.25688e-08 3.36627 -9.33945e-08 3.37846 -9.42253e-08 3.39072C-9.5056e-08 3.40299 -9.58919e-08 3.41532 -9.67328e-08 3.42774C-9.75738e-08 3.44015 -9.84198e-08 3.45263 -9.92708e-08 3.46519C-1.00122e-07 3.47776 -1.00978e-07 3.49039 -1.01839e-07 3.5031C-1.027e-07 3.51581 -1.03566e-07 3.52859 -1.04438e-07 3.54145C-1.05309e-07 3.55431 -1.06185e-07 3.56724 -1.07066e-07 3.58025C-1.07947e-07 3.59325 -1.08833e-07 3.60633 -1.09725e-07 3.61949C-1.10616e-07 3.63264 -1.11512e-07 3.64587 -1.12413e-07 3.65917C-1.13314e-07 3.67247 -1.1422e-07 3.68584 -1.15131e-07 3.69928C-1.16042e-07 3.71273 -1.16958e-07 3.72625 -1.17879e-07 3.73984C-1.188e-07 3.75343 -1.19725e-07 3.7671 -1.20656e-07 3.78083C-1.21587e-07 3.79457 -1.22523e-07 3.80838 -1.23463e-07 3.82226C-1.24404e-07 3.83614 -1.25349e-07 3.8501 -1.26299e-07 3.86412C-1.2725e-07 3.87815 -1.28205e-07 3.89225 -1.29165e-07 3.90642C-1.30125e-07 3.92059 -1.3109e-07 3.93483 -1.32059e-07 3.94914C-1.33029e-07 3.96345 -1.34004e-07 3.97784 -1.34983e-07 3.99229C-1.35963e-07 4.00675 -1.36947e-07 4.02128 -1.37936e-07 4.03588C-1.38925e-07 4.05047 -1.39919e-07 4.06514 -1.40918e-07 4.07988C-1.41916e-07 4.09462 -1.4292e-07 4.10943 -1.43928e-07 4.12431C-1.44936e-07 4.1392 -1.45949e-07 4.15415 -1.46967e-07 4.16917C-1.47985e-07 4.18419 -1.49007e-07 4.19928 -1.50035e-07 4.21445C-1.51062e-07 4.22961 -1.52094e-07 4.24484 -1.53131e-07 4.26014C-1.54168e-07 4.27545 -1.55209e-07 4.29082 -1.56255e-07 4.30626C-1.57301e-07 4.3217 -1.58352e-07 4.33721 -1.59408e-07 4.35279C-1.60464e-07 4.36837 -1.61524e-07 4.38402 -1.62589e-07 4.39974C-1.63654e-07 4.41546 -1.64724e-07 4.43125 -1.65798e-07 4.4471C-1.66872e-07 4.46296 -1.67951e-07 4.47889 -1.69035e-07 4.49488C-1.70118e-07 4.51087 -1.71207e-07 4.52694 -1.723e-07 4.54307C-1.73392e-07 4.5592 -1.7449e-07 4.5754 -1.75592e-07 4.59166C-1.76694e-07 4.60793 -1.77801e-07 4.62427 -1.78912e-07 4.64067C-1.80024e-07 4.65707 -1.8114e-07 4.67354 -1.8226e-07 4.69008C-1.83381e-07 4.70662 -1.84506e-07 4.72323 -1.85636e-07 4.7399C-1.86765e-07 4.75657 -1.87899e-07 4.77331 -1.89038e-07 4.79012C-1.90177e-07 4.80693 -1.9132e-07 4.82381 -1.92468e-07 4.84075C-1.93616e-07 4.85769 -1.94768e-07 4.8747 -1.95925e-07 4.89177C-1.97082e-07 4.90885 -1.98243e-07 4.92599 -1.99409e-07 4.9432C-2.00575e-07 4.9604 -2.01746e-07 4.97768 -2.0292e-07 4.99502C-2.04095e-07 5.01236 -2.05275e-07 5.02977 -2.06458e-07 5.04724C-2.07642e-07 5.06471 -2.08831e-07 5.08225 -2.10023e-07 5.09985C-2.11216e-07 5.11746 -2.12413e-07 5.13513 -2.13615e-07 5.15286C-2.14816e-07 5.1706 -2.16022e-07 5.1884 -2.17233e-07 5.20626C-2.18443e-07 5.22413 -2.19658e-07 5.24206 -2.20877e-07 5.26005C-2.22096e-07 5.27805 -2.2332e-07 5.29611 -2.24548e-07 5.31423C-2.25776e-07 5.33235 -2.27008e-07 5.35054 -2.28245e-07 5.3688C-2.29482e-07 5.38705 -2.30723e-07 5.40537 -2.31968e-07 5.42375C-2.33214e-07 5.44213 -2.34463e-07 5.46058 -2.35718e-07 5.47909C-2.36972e-07 5.4976 -2.3823e-07 5.51617 -2.39493e-07 5.53481C-2.40756e-07 5.55345 -2.42023e-07 5.57215 -2.43294e-07 5.59091C-2.44565e-07 5.60968 -2.45841e-07 5.62851 -2.47121e-07 5.6474C-2.48401e-07 5.66629 -2.49685e-07 5.68524 -2.50973e-07 5.70426C-2.52262e-07 5.72328 -2.53554e-07 5.74236 -2.54851e-07 5.7615C-2.56148e-07 5.78064 -2.5745e-07 5.79985 -2.58755e-07 5.81911C-2.6006e-07 5.83838 -2.6137e-07 5.85771 -2.62684e-07 5.8771C-2.63998e-07 5.89649 -2.65316e-07 5.91595 -2.66638e-07 5.93546C-2.6796e-07 5.95498 -2.69287e-07 5.97456 -2.70617e-07 5.9942C-2.71948e-07 6.01384 -2.73283e-07 6.03354 -2.74622e-07 6.0533C-2.75961e-07 6.07306 -2.77304e-07 6.09289 -2.78651e-07 6.11277C-2.79999e-07 6.13266 -2.8135e-07 6.1526 -2.82705e-07 6.17261C-2.84061e-07 6.19262 -2.85421e-07 6.21269 -2.86784e-07 6.23282C-2.88148e-07 6.25294 -2.89516e-07 6.27313 -2.90888e-07 6.29338C-2.9226e-07 6.31363 -2.93636e-07 6.33394 -2.95016e-07 6.35431C-2.96396e-07 6.37468 -2.97781e-07 6.39511 -2.99169e-07 6.41561C-3.00557e-07 6.4361 -3.0195e-07 6.45665 -3.03346e-07 6.47726C-3.04742e-07 6.49787 -3.06143e-07 6.51854 -3.07547e-07 6.53926C-3.08952e-07 6.55999 -3.1036e-07 6.58078 -3.11773e-07 6.60163C-3.13185e-07 6.62248 -3.14602e-07 6.64338 -3.16022e-07 6.66435C-3.17443e-07 6.68532 -3.18867e-07 6.70634 -3.20296e-07 6.72742C-3.21724e-07 6.74851 -3.23156e-07 6.76965 -3.24593e-07 6.79085C-3.26029e-07 6.81205 -3.2747e-07 6.83331 -3.28914e-07 6.85463C-3.30358e-07 6.87594 -3.31806e-07 6.89732 -3.33259e-07 6.91875C-3.34711e-07 6.94019 -3.36167e-07 6.96168 -3.37627e-07 6.98323C-3.39087e-07 7.00478 -3.40551e-07 7.02638 -3.42019e-07 7.04805C-3.43486e-07 7.06971 -3.44958e-07 7.09143 -3.46434e-07 7.11321C-3.47909e-07 7.13499 -3.49389e-07 7.15683 -3.50872e-07 7.17872C-3.52355e-07 7.20061 -3.53842e-07 7.22256 -3.55333e-07 7.24457C-3.56824e-07 7.26657 -3.58319e-07 7.28864 -3.59818e-07 7.31076C-3.61317e-07 7.33288 -3.62819e-07 7.35505 -3.64325e-07 7.37729C-3.65832e-07 7.39952 -3.67342e-07 7.42181 -3.68856e-07 7.44415C-3.7037e-07 7.4665 -3.71887e-07 7.4889 -3.73409e-07 7.51135C-3.7493e-07 7.53381 -3.76455e-07 7.55632 -3.77984e-07 7.57889C-3.79513e-07 7.60146 -3.81046e-07 7.62408 -3.82583e-07 7.64676C-3.84119e-07 7.66943 -3.85659e-07 7.69217 -3.87203e-07 7.71496C-3.88747e-07 7.73774 -3.90295e-07 7.76059 -3.91847e-07 7.78349C-3.93398e-07 7.80638 -3.94953e-07 7.82934 -3.96512e-07 7.85234C-3.98071e-07 7.87535 -3.99633e-07 7.89841 -4.01199e-07 7.92153C-4.02765e-07 7.94464 -4.04335e-07 7.96781 -4.05909e-07 7.99104C-4.07482e-07 8.01426 -4.09059e-07 8.03754 -4.1064e-07 8.06087C-4.12221e-07 8.08421 -4.13805e-07 8.10759 -4.15394e-07 8.13103C-4.16982e-07 8.15447 -4.18573e-07 8.17796 -4.20169e-07 8.20151C-4.21764e-07 8.22505 -4.23363e-07 8.24865 -4.24965e-07 8.2723C-4.26568e-07 8.29596 -4.28174e-07 8.31966 -4.29784e-07 8.34342C-4.31393e-07 8.36718 -4.33006e-07 8.39099 -4.34623e-07 8.41485C-4.3624e-07 8.43871 -4.3786e-07 8.46263 -4.39484e-07 8.4866C-4.41108e-07 8.51057 -4.42736e-07 8.53459 -4.44367e-07 8.55866C-4.45997e-07 8.58273 -4.47632e-07 8.60686 -4.4927e-07 8.63103C-4.50908e-07 8.65521 -4.52549e-07 8.67944 -4.54194e-07 8.70371C-4.55839e-07 8.72799 -4.57488e-07 8.75232 -4.5914e-07 8.77671C-4.60792e-07 8.80109 -4.62447e-07 8.82552 -4.64106e-07 8.85001C-4.65765e-07 8.87449 -4.67427e-07 8.89903 -4.69093e-07 8.92361C-4.70759e-07 8.9482 -4.72428e-07 8.97284 -4.74101e-07 8.99752C-4.75773e-07 9.02221 -4.77449e-07 9.04695 -4.79129e-07 9.07174C-4.80808e-07 9.09653 -4.82491e-07 9.12136 -4.84178e-07 9.14625C-4.85864e-07 9.17114 -4.87554e-07 9.19608 -4.89247e-07 9.22107C-4.9094e-07 9.24606 -4.92636e-07 9.2711 -4.94336e-07 9.29618C-4.96036e-07 9.32127 -4.97739e-07 9.34641 -4.99445e-07 9.3716C-5.01152e-07 9.39678 -5.02861e-07 9.42202 -5.04575e-07 9.4473C-5.06288e-07 9.47259 -5.08004e-07 9.49792 -5.09724e-07 9.5233C-5.11444e-07 9.54869 -5.13167e-07 9.57412 -5.14893e-07 9.5996C-5.16619e-07 9.62508 -5.18349e-07 9.65061 -5.20082e-07 9.67619C-5.21815e-07 9.70176 -5.23551e-07 9.72739 -5.2529e-07 9.75306C-5.2703e-07 9.77874 -5.28773e-07 9.80446 -5.30519e-07 9.83023C-5.32265e-07 9.856 -5.34014e-07 9.88181 -5.35766e-07 9.90768C-5.37519e-07 9.93354 -5.39274e-07 9.95945 -5.41033e-07 9.98541C-5.42792e-07 10.0114 -5.44554e-07 10.0374 -5.46319e-07 10.0634C-5.48084e-07 10.0895 -5.49853e-07 10.1156 -5.51624e-07 10.1417C-5.53396e-07 10.1679 -5.55171e-07 10.1941 -5.56949e-07 10.2203C-5.58727e-07 10.2466 -5.60508e-07 10.2729 -5.62292e-07 10.2992C-5.64076e-07 10.3255 -5.65863e-07 10.3519 -5.67654e-07 10.3783C-5.69444e-07 10.4048 -5.71238e-07 10.4312 -5.73035e-07 10.4577C-5.74831e-07 10.4843 -5.76631e-07 10.5108 -5.78434e-07 10.5374C-5.80237e-07 10.564 -5.82043e-07 10.5907 -5.83852e-07 10.6174C-5.85661e-07 10.6441 -5.87473e-07 10.6709 -5.89289e-07 10.6976C-5.91104e-07 10.7244 -5.92922e-07 10.7513 -5.94743e-07 10.7782C-5.96565e-07 10.805 -5.98389e-07 10.832 -6.00216e-07 10.8589C-6.02044e-07 10.8859 -6.03874e-07 10.9129 -6.05707e-07 10.94C-6.07541e-07 10.967 -6.09377e-07 10.9941 -6.11216e-07 11.0213C-6.13056e-07 11.0484 -6.14898e-07 11.0756 -6.16744e-07 11.1029C-6.18589e-07 11.1301 -6.20437e-07 11.1574 -6.22288e-07 11.1847C-6.2414e-07 11.212 -6.25994e-07 11.2394 -6.27851e-07 11.2668C-6.29708e-07 11.2942 -6.31568e-07 11.3217 -6.33431e-07 11.3492C-6.35294e-07 11.3767 -6.3716e-07 11.4042 -6.39029e-07 11.4318C-6.40898e-07 11.4594 -6.4277e-07 11.487 -6.44644e-07 11.5147C-6.46519e-07 11.5423 -6.48397e-07 11.5701 -6.50277e-07 11.5978C-6.52157e-07 11.6256 -6.54041e-07 11.6534 -6.55927e-07 11.6812C-6.57813e-07 11.709 -6.59702e-07 11.7369 -6.61594e-07 11.7648C-6.63485e-07 11.7928 -6.6538e-07 11.8207 -6.67278e-07 11.8487C-6.69175e-07 11.8767 -6.71075e-07 11.9048 -6.72978e-07 11.9329C-6.74882e-07 11.961 -6.76787e-07 11.9891 -6.78696e-07 12.0173C-6.80605e-07 12.0454 -6.82516e-07 12.0736 -6.84431e-07 12.1019C-6.86345e-07 12.1302 -6.88262e-07 12.1584 -6.90182e-07 12.1868C-6.92101e-07 12.2151 -6.94024e-07 12.2435 -6.95949e-07 12.2719C-6.97875e-07 12.3003 -6.99803e-07 12.3288 -7.01733e-07 12.3573C-7.03664e-07 12.3858 -7.05597e-07 12.4143 -7.07534e-07 12.4429C-7.0947e-07 12.4715 -7.11409e-07 12.5001 -7.1335e-07 12.5287C-7.15292e-07 12.5574 -7.17236e-07 12.5861 -7.19183e-07 12.6148C-7.2113e-07 12.6436 -7.23079e-07 12.6723 -7.25032e-07 12.7012C-7.26984e-07 12.73 -7.28939e-07 12.7588 -7.30896e-07 12.7877C-7.32854e-07 12.8166 -7.34814e-07 12.8455 -7.36777e-07 12.8745C-7.3874e-07 12.9035 -7.40705e-07 12.9325 -7.42673e-07 12.9615C-7.44641e-07 12.9906 -7.46612e-07 13.0197 -7.48585e-07 13.0488C-7.50558e-07 13.0779 -7.52534e-07 13.1071 -7.54512e-07 13.1363C-7.56491e-07 13.1655 -7.58471e-07 13.1947 -7.60455e-07 13.224C-7.62438e-07 13.2533 -7.64424e-07 13.2826 -7.66413e-07 13.3119C-7.68402e-07 13.3413 -7.70393e-07 13.3707 -7.72386e-07 13.4001C-7.7438e-07 13.4295 -7.76376e-07 13.459 -7.78375e-07 13.4885C-7.80373e-07 13.518 -7.82375e-07 13.5475 -7.84378e-07 13.5771C-7.86382e-07 13.6067 -7.88388e-07 13.6363 -7.90397e-07 13.6659C-7.92405e-07 13.6956 -7.94416e-07 13.7252 -7.9643e-07 13.755C-7.98443e-07 13.7847 -8.00459e-07 13.8144 -8.02478e-07 13.8442C-8.04496e-07 13.874 -8.06517e-07 13.9038 -8.0854e-07 13.9337C-8.10564e-07 13.9636 -8.12589e-07 13.9935 -8.14618e-07 14.0234C-8.16646e-07 14.0533 -8.18676e-07 14.0833 -8.20709e-07 14.1133C-8.22742e-07 14.1433 -8.24777e-07 14.1734 -8.26815e-07 14.2034C-8.28852e-07 14.2335 -8.30892e-07 14.2636 -8.32935e-07 14.2938C-8.34977e-07 14.3239 -8.37022e-07 14.3541 -8.39069e-07 14.3843C-8.41116e-07 14.4145 -8.43165e-07 14.4448 -8.45217e-07 14.475C-8.47269e-07 14.5053 -8.49323e-07 14.5356 -8.51379e-07 14.566C-8.53436e-07 14.5963 -8.55494e-07 14.6267 -8.57555e-07 14.6571C-8.59616e-07 14.6876 -8.61679e-07 14.718 -8.63745e-07 14.7485C-8.6581e-07 14.779 -8.67878e-07 14.8095 -8.69948e-07 14.8401C-8.72018e-07 14.8706 -8.7409e-07 14.9012 -8.76165e-07 14.9318C-8.78239e-07 14.9624 -8.80316e-07 14.9931 -8.82395e-07 15.0238C-8.84474e-07 15.0545 -8.86555e-07 15.0852 -8.88639e-07 15.1159C-8.90722e-07 15.1467 -8.92808e-07 15.1775 -8.94895e-07 15.2083C-8.96983e-07 15.2391 -8.99073e-07 15.2699 -9.01165e-07 15.3008C-9.03257e-07 15.3317 -9.05351e-07 15.3626 -9.07448e-07 15.3935C-9.09544e-07 15.4245 -9.11643e-07 15.4555 -9.13744e-07 15.4865C-9.15844e-07 15.5175 -9.17947e-07 15.5485 -9.20052e-07 15.5796C-9.22157e-07 15.6106 -9.24264e-07 15.6417 -9.26374e-07 15.6729C-9.28483e-07 15.704 -9.30594e-07 15.7352 -9.32707e-07 15.7664C-9.34821e-07 15.7976 -9.36936e-07 15.8288 -9.39054e-07 15.86C-9.41171e-07 15.8913 -9.43291e-07 15.9226 -9.45413e-07 15.9539C-9.47534e-07 15.9852 -9.49658e-07 16.0165 -9.51784e-07 16.0479C-9.5391e-07 16.0793 -9.56037e-07 16.1107 -9.58167e-07 16.1421C-9.60297e-07 16.1736 -9.62429e-07 16.205 -9.64563e-07 16.2365C-9.66696e-07 16.268 -9.68832e-07 16.2995 -9.7097e-07 16.3311C-9.73108e-07 16.3627 -9.75248e-07 16.3942 -9.7739e-07 16.4258C-9.79531e-07 16.4575 -9.81675e-07 16.4891 -9.83821e-07 16.5208C-9.85966e-07 16.5524 -9.88114e-07 16.5841 -9.90264e-07 16.6159C-9.92413e-07 16.6476 -9.94565e-07 16.6793 -9.96718e-07 16.7111C-9.98872e-07 16.7429 -1.00103e-06 16.7747 -1.00318e-06 16.8066C-1.00534e-06 16.8384 -1.0075e-06 16.8703 -1.00966e-06 16.9022C-1.01182e-06 16.9341 -1.01399e-06 16.966 -1.01615e-06 16.9979C-1.01832e-06 17.0299 -1.02048e-06 17.0619 -1.02265e-06 17.0939C-1.02482e-06 17.1259 -1.02699e-06 17.1579 -1.02916e-06 17.19C-1.03133e-06 17.222 -1.03351e-06 17.2541 -1.03568e-06 17.2862C-1.03786e-06 17.3184 -1.04004e-06 17.3505 -1.04222e-06 17.3827C-1.0444e-06 17.4148 -1.04658e-06 17.447 -1.04876e-06 17.4793C-1.05094e-06 17.5115 -1.05313e-06 17.5437 -1.05531e-06 17.576C-1.0575e-06 17.6083 -1.05969e-06 17.6406 -1.06188e-06 17.6729C-1.06407e-06 17.7052 -1.06626e-06 17.7376 -1.06846e-06 17.7699C-1.07065e-06 17.8023 -1.07284e-06 17.8347 -1.07504e-06 17.8672C-1.07724e-06 17.8996 -1.07944e-06 17.932 -1.08164e-06 17.9645C-1.08384e-06 17.997 -1.08604e-06 18.0295 -1.08824e-06 18.062C-1.09045e-06 18.0945 -1.09265e-06 18.1271 -1.09486e-06 18.1597C-1.09707e-06 18.1923 -1.09928e-06 18.2249 -1.10149e-06 18.2575C-1.1037e-06 18.2901 -1.10591e-06 18.3228 -1.10812e-06 18.3554C-1.11034e-06 18.3881 -1.11255e-06 18.4208 -1.11477e-06 18.4535C-1.11699e-06 18.4863 -1.11921e-06 18.519 -1.12143e-06 18.5518C-1.12365e-06 18.5845 -1.12587e-06 18.6173 -1.12809e-06 18.6502C-1.13032e-06 18.683 -1.13254e-06 18.7158 -1.13477e-06 18.7487C-1.13699e-06 18.7815 -1.13922e-06 18.8144 -1.14145e-06 18.8473C-1.14368e-06 18.8802 -1.14591e-06 18.9132 -1.14815e-06 18.9461C-1.15038e-06 18.9791 -1.15261e-06 19.0121 -1.15485e-06 19.0451C-1.15708e-06 19.0781 -1.15932e-06 19.1111 -1.16156e-06 19.1441C-1.1638e-06 19.1772 -1.16604e-06 19.2103 -1.16828e-06 19.2433C-1.17052e-06 19.2764 -1.17277e-06 19.3095 -1.17501e-06 19.3427C-1.17726e-06 19.3758 -1.1795e-06 19.409 -1.18175e-06 19.4421C-1.184e-06 19.4753 -1.18625e-06 19.5085 -1.1885e-06 19.5417C-1.19075e-06 19.5749 -1.193e-06 19.6082 -1.19525e-06 19.6414C-1.19751e-06 19.6747 -1.19976e-06 19.708 -1.20202e-06 19.7413C-1.20428e-06 19.7746 -1.20653e-06 19.8079 -1.20879e-06 19.8413C-1.21105e-06 19.8746 -1.21331e-06 19.908 -1.21557e-06 19.9413C-1.21784e-06 19.9747 -1.2201e-06 20.0081 -1.22236e-06 20.0416C-1.22463e-06 20.075 -1.22689e-06 20.1084 -1.22916e-06 20.1419C-1.23143e-06 20.1754 -1.2337e-06 20.2088 -1.23597e-06 20.2423C-1.23824e-06 20.2758 -1.24051e-06 20.3094 -1.24278e-06 20.3429C-1.24505e-06 20.3764 -1.24733e-06 20.41 -1.2496e-06 20.4436C-1.25188e-06 20.4772 -1.25415e-06 20.5108 -1.25643e-06 20.5444C-1.25871e-06 20.578 -1.26099e-06 20.6116 -1.26327e-06 20.6453C-1.26555e-06 20.6789 -1.26783e-06 20.7126 -1.27011e-06 20.7463C-1.27239e-06 20.78 -1.27468e-06 20.8137 -1.27696e-06 20.8474C-1.27925e-06 20.8811 -1.28153e-06 20.9149 -1.28382e-06 20.9487C-1.28611e-06 20.9824 -1.2884e-06 21.0162 -1.29069e-06 21.05C-1.29298e-06 21.0838 -1.29527e-06 21.1176 -1.29756e-06 21.1514C-1.29985e-06 21.1853 -1.30215e-06 21.2191 -1.30444e-06 21.253C-1.30674e-06 21.2869 -1.30903e-06 21.3207 -1.31133e-06 21.3546C-1.31362e-06 21.3885 -1.31592e-06 21.4225 -1.31822e-06 21.4564C-1.32052e-06 21.4903 -1.32282e-06 21.5243 -1.32512e-06 21.5582C-1.32742e-06 21.5922 -1.32973e-06 21.6262 -1.33203e-06 21.6602C-1.33433e-06 21.6942 -1.33664e-06 21.7282 -1.33894e-06 21.7622C-1.34125e-06 21.7962 -1.34355e-06 21.8303 -1.34586e-06 21.8644C-1.34817e-06 21.8984 -1.35048e-06 21.9325 -1.35279e-06 21.9666C-1.3551e-06 22.0007 -1.35741e-06 22.0348 -1.35972e-06 22.0689C-1.36203e-06 22.103 -1.36435e-06 22.1372 -1.36666e-06 22.1713C-1.36897e-06 22.2055 -1.37129e-06 22.2396 -1.3736e-06 22.2738C-1.37592e-06 22.308 -1.37824e-06 22.3422 -1.38055e-06 22.3764C-1.38287e-06 22.4106 -1.38519e-06 22.4448 -1.38751e-06 22.4791C-1.38983e-06 22.5133 -1.39215e-06 22.5476 -1.39447e-06 22.5818C-1.39679e-06 22.6161 -1.39912e-06 22.6504 -1.40144e-06 22.6847C-1.40376e-06 22.7189 -1.40609e-06 22.7533 -1.40841e-06 22.7876C-1.41074e-06 22.8219 -1.41306e-06 22.8562 -1.41539e-06 22.8906C-1.41772e-06 22.9249 -1.42005e-06 22.9593 -1.42238e-06 22.9936C-1.4247e-06 23.028 -1.42703e-06 23.0624 -1.42936e-06 23.0968C-1.43169e-06 23.1312 -1.43403e-06 23.1656 -1.43636e-06 23.2C-1.43869e-06 23.2344 -1.44102e-06 23.2689 -1.44336e-06 23.3033C-1.44569e-06 23.3378 -1.44803e-06 23.3722 -1.45036e-06 23.4067C-1.4527e-06 23.4412 -1.45503e-06 23.4757 -1.45737e-06 23.5101C-1.45971e-06 23.5446 -1.46204e-06 23.5791 -1.46438e-06 23.6137C-1.46672e-06 23.6482 -1.46906e-06 23.6827 -1.4714e-06 23.7172C-1.47374e-06 23.7518 -1.47608e-06 23.7863 -1.47842e-06 23.8209C-1.48076e-06 23.8554 -1.48311e-06 23.89 -1.48545e-06 23.9246C-1.48779e-06 23.9592 -1.49014e-06 23.9938 -1.49248e-06 24.0284C-1.49482e-06 24.063 -1.49717e-06 24.0976 -1.49952e-06 24.1322C-1.50186e-06 24.1668 -1.50421e-06 24.2015 -1.50655e-06 24.2361C-1.5089e-06 24.2707 -1.51125e-06 24.3054 -1.5136e-06 24.3401C-1.51595e-06 24.3747 -1.5183e-06 24.4094 -1.52065e-06 24.4441C-1.52299e-06 24.4787 -1.52534e-06 24.5134 -1.5277e-06 24.5481C-1.53005e-06 24.5828 -1.5324e-06 24.6175 -1.53475e-06 24.6523C-1.5371e-06 24.687 -1.53946e-06 24.7217 -1.54181e-06 24.7564C-1.54416e-06 24.7912 -1.54652e-06 24.8259 -1.54887e-06 24.8607C-1.55122e-06 24.8954 -1.55358e-06 24.9302 -1.55594e-06 24.9649C-1.55829e-06 24.9997 -1.56065e-06 25.0345 -1.563e-06 25.0693C-1.56536e-06 25.104 -1.56772e-06 25.1388 -1.57007e-06 25.1736C-1.57243e-06 25.2084 -1.57479e-06 25.2432 -1.57715e-06 25.278C-1.57951e-06 25.3129 -1.58187e-06 25.3477 -1.58423e-06 25.3825C-1.58659e-06 25.4173 -1.58895e-06 25.4522 -1.59131e-06 25.487C-1.59367e-06 25.5219 -1.59603e-06 25.5567 -1.59839e-06 25.5916C-1.60075e-06 25.6264 -1.60311e-06 25.6613 -1.60548e-06 25.6961C-1.60784e-06 25.731 -1.6102e-06 25.7659 -1.61257e-06 25.8008C-1.61493e-06 25.8356 -1.61729e-06 25.8705 -1.61966e-06 25.9054C-1.62202e-06 25.9403 -1.62438e-06 25.9752 -1.62675e-06 26.0101C-1.62911e-06 26.045 -1.63148e-06 26.0799 -1.63384e-06 26.1148C-1.63621e-06 26.1498 -1.63858e-06 26.1847 -1.64094e-06 26.2196C-1.64331e-06 26.2545 -1.64568e-06 26.2895 -1.64804e-06 26.3244C-1.65041e-06 26.3593 -1.65278e-06 26.3943 -1.65514e-06 26.4292C-1.65751e-06 26.4642 -1.65988e-06 26.4991 -1.66225e-06 26.5341C-1.66462e-06 26.569 -1.66698e-06 26.604 -1.66935e-06 26.6389C-1.67172e-06 26.6739 -1.67409e-06 26.7089 -1.67646e-06 26.7438C-1.67883e-06 26.7788 -1.6812e-06 26.8138 -1.68357e-06 26.8488C-1.68594e-06 26.8837 -1.68831e-06 26.9187 -1.69068e-06 26.9537C-1.69305e-06 26.9887 -1.69542e-06 27.0237 -1.69779e-06 27.0587C-1.70016e-06 27.0937 -1.70253e-06 27.1286 -1.7049e-06 27.1636C-1.70727e-06 27.1986 -1.70965e-06 27.2336 -1.71202e-06 27.2686C-1.71439e-06 27.3036 -1.71676e-06 27.3387 -1.71913e-06 27.3737C-1.7215e-06 27.4087 -1.72388e-06 27.4437 -1.72625e-06 27.4787C-1.72862e-06 27.5137 -1.73099e-06 27.5487 -1.73337e-06 27.5837C-1.73574e-06 27.6187 -1.73811e-06 27.6538 -1.74048e-06 27.6888C-1.74286e-06 27.7238 -1.74523e-06 27.7588 -1.7476e-06 27.7938C-1.74997e-06 27.8289 -1.75235e-06 27.8639 -1.75472e-06 27.8989C-1.75709e-06 27.9339 -1.75947e-06 27.969 -1.76184e-06 28.004C-1.76421e-06 28.039 -1.76659e-06 28.0741 -1.76896e-06 28.1091C-1.77133e-06 28.1441 -1.77371e-06 28.1791 -1.77608e-06 28.2142C-1.77845e-06 28.2492 -1.78083e-06 28.2842 -1.7832e-06 28.3193C-1.78557e-06 28.3543 -1.78795e-06 28.3893 -1.79032e-06 28.4244C-1.79269e-06 28.4594 -1.79507e-06 28.4944 -1.79744e-06 28.5294C-1.79981e-06 28.5645 -1.80219e-06 28.5995 -1.80456e-06 28.6345C-1.80693e-06 28.6696 -1.80931e-06 28.7046 -1.81168e-06 28.7396C-1.81405e-06 28.7747 -1.81643e-06 28.8097 -1.8188e-06 28.8447C-1.82117e-06 28.8797 -1.82355e-06 28.9148 -1.82592e-06 28.9498C-1.82829e-06 28.9848 -1.83066e-06 29.0198 -1.83304e-06 29.0548C-1.83541e-06 29.0899 -1.83778e-06 29.1249 -1.84016e-06 29.1599C-1.84253e-06 29.1949 -1.8449e-06 29.2299 -1.84727e-06 29.2649C-1.84964e-06 29.3 -1.85202e-06 29.335 -1.85439e-06 29.37C-1.85676e-06 29.405 -1.85913e-06 29.44 -1.8615e-06 29.475C-1.86388e-06 29.51 -1.86625e-06 29.545 -1.86862e-06 29.58C-1.87099e-06 29.615 -1.87336e-06 29.65 -1.87573e-06 29.685C-1.8781e-06 29.72 -1.88047e-06 29.755 -1.88284e-06 29.79C-1.88521e-06 29.825 -1.88758e-06 29.8599 -1.88995e-06 29.8949C-1.89232e-06 29.9299 -1.89469e-06 29.9649 -1.89706e-06 29.9998C-1.89943e-06 30.0348 -1.9018e-06 30.0698 -1.90417e-06 30.1048C-1.90654e-06 30.1397 -1.90891e-06 30.1747 -1.91128e-06 30.2096C-1.91365e-06 30.2446 -1.91601e-06 30.2795 -1.91838e-06 30.3145C-1.92075e-06 30.3494 -1.92312e-06 30.3844 -1.92548e-06 30.4193C-1.92785e-06 30.4543 -1.93022e-06 30.4892 -1.93259e-06 30.5241C-1.93495e-06 30.5591 -1.93732e-06 30.594 -1.93968e-06 30.6289C-1.94205e-06 30.6638 -1.94441e-06 30.6987 -1.94678e-06 30.7336C-1.94915e-06 30.7685 -1.95151e-06 30.8034 -1.95387e-06 30.8383C-1.95624e-06 30.8732 -1.9586e-06 30.9081 -1.96097e-06 30.943C-1.96333e-06 30.9779 -1.96569e-06 31.0128 -1.96806e-06 31.0476C-1.97042e-06 31.0825 -1.97278e-06 31.1174 -1.97514e-06 31.1522C-1.9775e-06 31.1871 -1.97987e-06 31.222 -1.98223e-06 31.2568C-1.98459e-06 31.2917 -1.98695e-06 31.3265 -1.98931e-06 31.3613C-1.99167e-06 31.3962 -1.99403e-06 31.431 -1.99639e-06 31.4658C-1.99875e-06 31.5006 -2.0011e-06 31.5354 -2.00346e-06 31.5702C-2.00582e-06 31.605 -2.00818e-06 31.6398 -2.01053e-06 31.6746C-2.01289e-06 31.7094 -2.01525e-06 31.7442 -2.0176e-06 31.779C-2.01996e-06 31.8137 -2.02232e-06 31.8485 -2.02467e-06 31.8833C-2.02702e-06 31.918 -2.02938e-06 31.9528 -2.03173e-06 31.9875C-2.03409e-06 32.0222 -2.03644e-06 32.057 -2.03879e-06 32.0917C-2.04114e-06 32.1264 -2.0435e-06 32.1611 -2.04585e-06 32.1958C-2.0482e-06 32.2305 -2.05055e-06 32.2652 -2.0529e-06 32.2999C-2.05525e-06 32.3346 -2.0576e-06 32.3693 -2.05995e-06 32.404C-2.0623e-06 32.4386 -2.06465e-06 32.4733 -2.06699e-06 32.5079C-2.06934e-06 32.5426 -2.07169e-06 32.5772 -2.07403e-06 32.6119C-2.07638e-06 32.6465 -2.07873e-06 32.6811 -2.08107e-06 32.7157C-2.08342e-06 32.7503 -2.08576e-06 32.7849 -2.0881e-06 32.8195C-2.09045e-06 32.8541 -2.09279e-06 32.8887 -2.09513e-06 32.9232C-2.09747e-06 32.9578 -2.09981e-06 32.9924 -2.10216e-06 33.0269C-2.1045e-06 33.0615 -2.10684e-06 33.096 -2.10918e-06 33.1305C-2.11151e-06 33.165 -2.11385e-06 33.1996 -2.11619e-06 33.2341C-2.11853e-06 33.2686 -2.12086e-06 33.303 -2.1232e-06 33.3375C-2.12554e-06 33.372 -2.12787e-06 33.4065 -2.13021e-06 33.4409C-2.13254e-06 33.4754 -2.13487e-06 33.5098 -2.13721e-06 33.5442C-2.13954e-06 33.5787 -2.14187e-06 33.6131 -2.1442e-06 33.6475C-2.14653e-06 33.6819 -2.14886e-06 33.7163 -2.15119e-06 33.7507C-2.15352e-06 33.7851 -2.15585e-06 33.8194 -2.15818e-06 33.8538C-2.16051e-06 33.8881 -2.16283e-06 33.9225 -2.16516e-06 33.9568C-2.16748e-06 33.9911 -2.16981e-06 34.0255 -2.17213e-06 34.0598C-2.17446e-06 34.0941 -2.17678e-06 34.1283 -2.1791e-06 34.1626C-2.18143e-06 34.1969 -2.18375e-06 34.2312 -2.18607e-06 34.2654C-2.18839e-06 34.2997 -2.19071e-06 34.3339 -2.19302e-06 34.3681C-2.19534e-06 34.4023 -2.19766e-06 34.4365 -2.19998e-06 34.4707C-2.20229e-06 34.5049 -2.20461e-06 34.5391 -2.20692e-06 34.5732C-2.20924e-06 34.6074 -2.21155e-06 34.6416 -2.21386e-06 34.6757C-2.21618e-06 34.7098 -2.21849e-06 34.7439 -2.2208e-06 34.778C-2.22311e-06 34.8121 -2.22542e-06 34.8462 -2.22773e-06 34.8803C-2.23004e-06 34.9144 -2.23234e-06 34.9484 -2.23465e-06 34.9825C-2.23696e-06 35.0165 -2.23926e-06 35.0505 -2.24157e-06 35.0845C-2.24387e-06 35.1186 -2.24617e-06 35.1525 -2.24848e-06 35.1865C-2.25078e-06 35.2205 -2.25308e-06 35.2545 -2.25538e-06 35.2884C-2.25768e-06 35.3224 -2.25998e-06 35.3563 -2.26227e-06 35.3902C-2.26457e-06 35.4241 -2.26687e-06 35.458 -2.26916e-06 35.4919C-2.27146e-06 35.5258 -2.27375e-06 35.5596 -2.27605e-06 35.5935C-2.27834e-06 35.6273 -2.28063e-06 35.6611 -2.28292e-06 35.6949C-2.28521e-06 35.7288 -2.2875e-06 35.7626 -2.28979e-06 35.7963C-2.29208e-06 35.8301 -2.29437e-06 35.8639 -2.29665e-06 35.8976C-2.29894e-06 35.9313 -2.30122e-06 35.9651 -2.30351e-06 35.9988C-2.30579e-06 36.0325 -2.30807e-06 36.0661 -2.31035e-06 36.0998C-2.31263e-06 36.1335 -2.31491e-06 36.1671 -2.31719e-06 36.2008C-2.31947e-06 36.2344 -2.32175e-06 36.268 -2.32402e-06 36.3016C-2.3263e-06 36.3352 -2.32857e-06 36.3688 -2.33085e-06 36.4023C-2.33312e-06 36.4359 -2.33539e-06 36.4694 -2.33766e-06 36.5029C-2.33994e-06 36.5364 -2.3422e-06 36.5699 -2.34447e-06 36.6034C-2.34674e-06 36.6369 -2.34901e-06 36.6703 -2.35127e-06 36.7038C-2.35354e-06 36.7372 -2.3558e-06 36.7706 -2.35807e-06 36.804C-2.36033e-06 36.8374 -2.36259e-06 36.8708 -2.36485e-06 36.9042C-2.36711e-06 36.9375 -2.36937e-06 36.9709 -2.37163e-06 37.0042C-2.37388e-06 37.0375 -2.37614e-06 37.0708 -2.37839e-06 37.1041C-2.38065e-06 37.1373 -2.3829e-06 37.1706 -2.38515e-06 37.2038C-2.3874e-06 37.2371 -2.38966e-06 37.2703 -2.3919e-06 37.3035C-2.39415e-06 37.3367 -2.3964e-06 37.3698 -2.39865e-06 37.403C-2.40089e-06 37.4361 -2.40314e-06 37.4693 -2.40538e-06 37.5024C-2.40762e-06 37.5355 -2.40986e-06 37.5686 -2.4121e-06 37.6016C-2.41434e-06 37.6347 -2.41658e-06 37.6677 -2.41882e-06 37.7007C-2.42106e-06 37.7337 -2.42329e-06 37.7667 -2.42553e-06 37.7997C-2.42776e-06 37.8327 -2.42999e-06 37.8656 -2.43222e-06 37.8986C-2.43445e-06 37.9315 -2.43668e-06 37.9644 -2.43891e-06 37.9973C-2.44114e-06 38.0301 -2.44336e-06 38.063 -2.44559e-06 38.0958C-2.44781e-06 38.1287 -2.45004e-06 38.1615 -2.45226e-06 38.1943C-2.45448e-06 38.2271 -2.4567e-06 38.2598 -2.45892e-06 38.2926C-2.46114e-06 38.3253 -2.46335e-06 38.358 -2.46557e-06 38.3907C-2.46778e-06 38.4234 -2.47e-06 38.4561 -2.47221e-06 38.4887C-2.47442e-06 38.5214 -2.47663e-06 38.554 -2.47884e-06 38.5866C-2.48105e-06 38.6192 -2.48325e-06 38.6517 -2.48546e-06 38.6843C-2.48766e-06 38.7168 -2.48987e-06 38.7494 -2.49207e-06 38.7819C-2.49427e-06 38.8143 -2.49647e-06 38.8468 -2.49867e-06 38.8793C-2.50087e-06 38.9117 -2.50306e-06 38.9441 -2.50526e-06 38.9765C-2.50745e-06 39.0089 -2.50965e-06 39.0413 -2.51184e-06 39.0736C-2.51403e-06 39.106 -2.51622e-06 39.1383 -2.51841e-06 39.1706C-2.52059e-06 39.2029 -2.52278e-06 39.2351 -2.52496e-06 39.2674C-2.52715e-06 39.2996 -2.52933e-06 39.3318 -2.53151e-06 39.364C-2.53369e-06 39.3962 -2.53587e-06 39.4284 -2.53805e-06 39.4605C-2.54023e-06 39.4926 -2.5424e-06 39.5247 -2.54457e-06 39.5568C-2.54675e-06 39.5889 -2.54892e-06 39.621 -2.55109e-06 39.653C-2.55326e-06 39.685 -2.55543e-06 39.717 -2.55759e-06 39.749C-2.55976e-06 39.781 -2.56192e-06 39.8129 -2.56409e-06 39.8448C-2.56625e-06 39.8767 -2.56841e-06 39.9086 -2.57057e-06 39.9405C-2.57273e-06 39.9723 -2.57488e-06 40.0042 -2.57704e-06 40.036C-2.57919e-06 40.0678 -2.58135e-06 40.0996 -2.5835e-06 40.1313C-2.58565e-06 40.1631 -2.5878e-06 40.1948 -2.58994e-06 40.2265C-2.59209e-06 40.2581 -2.59424e-06 40.2898 -2.59638e-06 40.3214C-2.59852e-06 40.3531 -2.60066e-06 40.3847 -2.6028e-06 40.4163C-2.60494e-06 40.4478 -2.60708e-06 40.4794 -2.60921e-06 40.5109C-2.61135e-06 40.5424 -2.61348e-06 40.5739 -2.61561e-06 40.6053C-2.61775e-06 40.6368 -2.61987e-06 40.6682 -2.622e-06 40.6996C-2.62413e-06 40.731 -2.62625e-06 40.7624 -2.62838e-06 40.7937C-2.6305e-06 40.8251 -2.63262e-06 40.8564 -2.63474e-06 40.8876C-2.63686e-06 40.9189 -2.63898e-06 40.9502 -2.64109e-06 40.9814C-2.64321e-06 41.0126 -2.64532e-06 41.0438 -2.64743e-06 41.0749C-2.64954e-06 41.1061 -2.65165e-06 41.1372 -2.65376e-06 41.1683C-2.65586e-06 41.1994 -2.65797e-06 41.2304 -2.66007e-06 41.2615C-2.66217e-06 41.2925 -2.66427e-06 41.3235 -2.66637e-06 41.3545C-2.66847e-06 41.3854 -2.67056e-06 41.4164 -2.67266e-06 41.4473C-2.67475e-06 41.4782 -2.67684e-06 41.509 -2.67893e-06 41.5399C-2.68102e-06 41.5707 -2.68311e-06 41.6015 -2.68519e-06 41.6323C-2.68728e-06 41.6631 -2.68936e-06 41.6938 -2.69144e-06 41.7245C-2.69352e-06 41.7552 -2.6956e-06 41.7859 -2.69768e-06 41.8165C-2.69975e-06 41.8472 -2.70183e-06 41.8778 -2.7039e-06 41.9084C-2.70597e-06 41.9389 -2.70804e-06 41.9695 -2.71011e-06 42L4 42C4 41.9695 4 41.9389 4 41.9084C4 41.8778 4 41.8472 4 41.8165C4 41.7859 4 41.7552 4 41.7245C4 41.6938 4 41.6631 4 41.6323C4 41.6015 4 41.5707 4 41.5399C4 41.509 4 41.4782 4 41.4473C4 41.4164 4 41.3854 4 41.3545C4 41.3235 4 41.2925 4 41.2615C4 41.2304 4 41.1994 4 41.1683C4 41.1372 4 41.1061 4 41.0749C4 41.0438 4 41.0126 4 40.9814C4 40.9502 4 40.9189 4 40.8876C4 40.8564 4 40.8251 4 40.7937C4 40.7624 4 40.731 4 40.6996C4 40.6682 4 40.6368 4 40.6053C4 40.5739 4 40.5424 4 40.5109C4 40.4794 4 40.4478 4 40.4163C4 40.3847 4 40.3531 4 40.3214C4 40.2898 4 40.2581 4 40.2265C4 40.1948 4 40.1631 4 40.1313C4 40.0996 4 40.0678 4 40.036C4 40.0042 4 39.9723 4 39.9405C4 39.9086 4 39.8767 4 39.8448C4 39.8129 4 39.781 4 39.749C4 39.717 4 39.685 4 39.653C4 39.621 4 39.5889 4 39.5568C4 39.5247 4 39.4926 4 39.4605C4 39.4284 4 39.3962 4 39.364C4 39.3318 4 39.2996 4 39.2674C4 39.2351 4 39.2029 4 39.1706C4 39.1383 4 39.106 4 39.0736C4 39.0413 4 39.0089 4 38.9765C4 38.9441 4 38.9117 4 38.8793C4 38.8468 4 38.8143 4 38.7819C4 38.7494 4 38.7168 4 38.6843C4 38.6517 4 38.6192 4 38.5866C4 38.554 4 38.5214 4 38.4887C4 38.4561 4 38.4234 4 38.3907C4 38.358 4 38.3253 4 38.2926C4 38.2598 4 38.2271 4 38.1943C4 38.1615 4 38.1287 4 38.0958C4 38.063 4 38.0301 4 37.9973C4 37.9644 4 37.9315 4 37.8986C4 37.8656 4 37.8327 4 37.7997C4 37.7667 4 37.7337 4 37.7007C4 37.6677 4 37.6347 4 37.6016C4 37.5686 4 37.5355 4 37.5024C4 37.4693 4 37.4361 4 37.403C4 37.3698 4 37.3367 4 37.3035C4 37.2703 4 37.2371 4 37.2038C4 37.1706 4 37.1373 4 37.1041C4 37.0708 4 37.0375 4 37.0042C4 36.9709 4 36.9375 4 36.9042C4 36.8708 4 36.8374 4 36.804C4 36.7706 4 36.7372 4 36.7038C4 36.6703 4 36.6369 4 36.6034C4 36.5699 4 36.5364 4 36.5029C4 36.4694 4 36.4359 4 36.4023C4 36.3688 4 36.3352 4 36.3016C4 36.268 4 36.2344 4 36.2008C4 36.1671 4 36.1335 4 36.0998C4 36.0661 4 36.0325 4 35.9988C4 35.9651 4 35.9313 4 35.8976C4 35.8639 4 35.8301 4 35.7963C4 35.7626 4 35.7288 4 35.6949C4 35.6611 4 35.6273 4 35.5935C4 35.5596 4 35.5258 4 35.4919C4 35.458 4 35.4241 4 35.3902C4 35.3563 4 35.3224 4 35.2884C4 35.2545 4 35.2205 4 35.1865C4 35.1525 4 35.1186 4 35.0845C4 35.0505 4 35.0165 4 34.9825C4 34.9484 4 34.9144 4 34.8803C4 34.8462 4 34.8121 4 34.778C4 34.7439 4 34.7098 4 34.6757C4 34.6416 4 34.6074 4 34.5732C4 34.5391 4 34.5049 4 34.4707C4 34.4365 4 34.4023 4 34.3681C4 34.3339 4 34.2997 4 34.2654C4 34.2312 4 34.1969 4 34.1626C4 34.1283 4 34.0941 4 34.0598C4 34.0255 4 33.9911 4 33.9568C4 33.9225 4 33.8881 4 33.8538C4 33.8194 4 33.7851 4 33.7507C4 33.7163 4 33.6819 4 33.6475C4 33.6131 4 33.5787 4 33.5442C4 33.5098 4 33.4754 4 33.4409C4 33.4065 4 33.372 4 33.3375C4 33.303 4 33.2686 4 33.2341C4 33.1996 4 33.165 4 33.1305C4 33.096 4 33.0615 4 33.0269C4 32.9924 4 32.9578 4 32.9232C4 32.8887 4 32.8541 4 32.8195C4 32.7849 4 32.7503 4 32.7157C4 32.6811 4 32.6465 4 32.6119C4 32.5772 4 32.5426 4 32.5079C4 32.4733 4 32.4386 4 32.404C4 32.3693 4 32.3346 4 32.2999C4 32.2652 4 32.2305 4 32.1958C4 32.1611 4 32.1264 4 32.0917C4 32.057 4 32.0222 4 31.9875C4 31.9528 4 31.918 4 31.8833C4 31.8485 4 31.8137 4 31.779C4 31.7442 4 31.7094 4 31.6746C4 31.6398 4 31.605 4 31.5702C4 31.5354 4 31.5006 4 31.4658C4 31.431 4 31.3962 4 31.3613C4 31.3265 4 31.2917 4 31.2568C4 31.222 4 31.1871 4 31.1522C4 31.1174 4 31.0825 4 31.0476C4 31.0128 4 30.9779 4 30.943C4 30.9081 4 30.8732 4 30.8383C4 30.8034 4 30.7685 4 30.7336C4 30.6987 4 30.6638 4 30.6289C4 30.594 4 30.5591 4 30.5241C4 30.4892 4 30.4543 4 30.4193C4 30.3844 4 30.3494 4 30.3145C4 30.2795 4 30.2446 4 30.2096C4 30.1747 4 30.1397 4 30.1048C4 30.0698 4 30.0348 4 29.9998C4 29.9649 4 29.9299 4 29.8949C4 29.8599 4 29.825 4 29.79C4 29.755 4 29.72 4 29.685C4 29.65 4 29.615 4 29.58C4 29.545 4 29.51 4 29.475C4 29.44 4 29.405 4 29.37C4 29.335 4 29.3 4 29.2649C4 29.2299 4 29.1949 4 29.1599C4 29.1249 4 29.0899 4 29.0548C4 29.0198 4 28.9848 4 28.9498C4 28.9148 4 28.8797 4 28.8447C4 28.8097 4 28.7747 4 28.7396C4 28.7046 4 28.6696 4 28.6345C4 28.5995 4 28.5645 4 28.5294C4 28.4944 4 28.4594 4 28.4244C4 28.3893 4 28.3543 4 28.3193C4 28.2842 4 28.2492 4 28.2142C4 28.1791 4 28.1441 4 28.1091C4 28.0741 4 28.039 4 28.004C4 27.969 4 27.9339 4 27.8989C4 27.8639 4 27.8289 4 27.7938C4 27.7588 4 27.7238 4 27.6888C4 27.6538 4 27.6187 4 27.5837C4 27.5487 4 27.5137 4 27.4787C4 27.4437 4 27.4087 4 27.3737C4 27.3387 4 27.3036 4 27.2686C4 27.2336 4 27.1986 4 27.1636C4 27.1286 4 27.0937 4 27.0587C4 27.0237 4 26.9887 4 26.9537C4 26.9187 4 26.8837 4 26.8488C4 26.8138 4 26.7788 4 26.7438C4 26.7089 4 26.6739 4 26.6389C4 26.604 4 26.569 4 26.5341C4 26.4991 4 26.4642 4 26.4292C4 26.3943 4 26.3593 4 26.3244C4 26.2895 4 26.2545 4 26.2196C4 26.1847 4 26.1498 4 26.1148C4 26.0799 4 26.045 4 26.0101C4 25.9752 4 25.9403 4 25.9054C4 25.8705 4 25.8356 4 25.8008C4 25.7659 4 25.731 4 25.6961C4 25.6613 4 25.6264 4 25.5916C4 25.5567 4 25.5219 4 25.487C4 25.4522 4 25.4173 4 25.3825C4 25.3477 4 25.3129 4 25.278C4 25.2432 4 25.2084 4 25.1736C4 25.1388 4 25.104 4 25.0693C4 25.0345 4 24.9997 4 24.9649C4 24.9302 4 24.8954 4 24.8607C4 24.8259 4 24.7912 4 24.7564C4 24.7217 4 24.687 4 24.6523C4 24.6175 4 24.5828 4 24.5481C4 24.5134 4 24.4787 4 24.4441C4 24.4094 4 24.3747 4 24.3401C4 24.3054 4 24.2707 4 24.2361C4 24.2015 4 24.1668 4 24.1322C4 24.0976 4 24.063 4 24.0284C4 23.9938 4 23.9592 4 23.9246C4 23.89 4 23.8554 4 23.8209C4 23.7863 4 23.7518 4 23.7172C4 23.6827 4 23.6482 4 23.6137C4 23.5791 4 23.5446 4 23.5101C4 23.4757 4 23.4412 4 23.4067C4 23.3722 4 23.3378 4 23.3033C4 23.2689 4 23.2344 4 23.2C4 23.1656 4 23.1312 4 23.0968C4 23.0624 4 23.028 4 22.9936C4 22.9593 4 22.9249 4 22.8906C4 22.8562 4 22.8219 4 22.7876C4 22.7533 4 22.7189 4 22.6847C4 22.6504 4 22.6161 4 22.5818C4 22.5476 4 22.5133 4 22.4791C4 22.4448 4 22.4106 4 22.3764C4 22.3422 4 22.308 4 22.2738C4 22.2396 4 22.2055 4 22.1713C4 22.1372 4 22.103 4 22.0689C4 22.0348 4 22.0007 4 21.9666C4 21.9325 4 21.8984 4 21.8644C4 21.8303 4 21.7962 4 21.7622C4 21.7282 4 21.6942 4 21.6602C4 21.6262 4 21.5922 4 21.5582C4 21.5243 4 21.4903 4 21.4564C4 21.4225 4 21.3885 4 21.3546C4 21.3207 4 21.2869 4 21.253C4 21.2191 4 21.1853 4 21.1514C4 21.1176 4 21.0838 4 21.05C4 21.0162 4 20.9824 4 20.9487C4 20.9149 4 20.8811 4 20.8474C4 20.8137 4 20.78 4 20.7463C4 20.7126 4 20.6789 4 20.6453C4 20.6116 4 20.578 4 20.5444C4 20.5108 4 20.4772 4 20.4436C4 20.41 4 20.3764 4 20.3429C4 20.3094 4 20.2758 4 20.2423C4 20.2088 4 20.1754 4 20.1419C4 20.1084 4 20.075 4 20.0416C4 20.0081 4 19.9747 4 19.9413C4 19.908 4 19.8746 4 19.8413C4 19.8079 4 19.7746 4 19.7413C4 19.708 4 19.6747 4 19.6414C4 19.6082 4 19.5749 4 19.5417C4 19.5085 4 19.4753 4 19.4421C4 19.409 4 19.3758 4 19.3427C4 19.3095 4 19.2764 4 19.2433C4 19.2103 4 19.1772 4 19.1441C4 19.1111 4 19.0781 4 19.0451C4 19.0121 4 18.9791 4 18.9461C4 18.9132 4 18.8802 4 18.8473C4 18.8144 4 18.7815 4 18.7487C4 18.7158 4 18.683 4 18.6502C4 18.6173 4 18.5845 4 18.5518C4 18.519 4 18.4863 4 18.4535C4 18.4208 4 18.3881 4 18.3554C4 18.3228 4 18.2901 4 18.2575C4 18.2249 4 18.1923 4 18.1597C4 18.1271 4 18.0945 4 18.062C4 18.0295 4 17.997 4 17.9645C4 17.932 4 17.8996 4 17.8672C4 17.8347 4 17.8023 4 17.7699C4 17.7376 4 17.7052 4 17.6729C4 17.6406 4 17.6083 4 17.576C4 17.5437 4 17.5115 4 17.4793C4 17.447 4 17.4148 4 17.3827C4 17.3505 4 17.3184 4 17.2862C4 17.2541 4 17.222 4 17.19C4 17.1579 4 17.1259 4 17.0939C4 17.0619 4 17.0299 4 16.9979C4 16.966 4 16.9341 4 16.9022C4 16.8703 4 16.8384 4 16.8066C4 16.7747 4 16.7429 4 16.7111C4 16.6793 4 16.6476 4 16.6159C4 16.5841 4 16.5524 4 16.5208C4 16.4891 4 16.4575 4 16.4258C4 16.3942 4 16.3627 4 16.3311C4 16.2995 4 16.268 4 16.2365C4 16.205 4 16.1736 4 16.1421C4 16.1107 4 16.0793 4 16.0479C4 16.0165 4 15.9852 4 15.9539C4 15.9226 4 15.8913 4 15.86C4 15.8288 4 15.7976 4 15.7664C4 15.7352 4 15.704 4 15.6729C4 15.6417 4 15.6106 4 15.5796C4 15.5485 4 15.5175 4 15.4865C4 15.4555 4 15.4245 4 15.3935C4 15.3626 4 15.3317 4 15.3008C4 15.2699 4 15.2391 4 15.2083C4 15.1775 4 15.1467 4 15.1159C4 15.0852 4 15.0545 4 15.0238C4 14.9931 4 14.9624 4 14.9318C4 14.9012 4 14.8706 4 14.8401C4 14.8095 4 14.779 4 14.7485C4 14.718 4 14.6876 4 14.6571C4 14.6267 4 14.5963 4 14.566C4 14.5356 4 14.5053 4 14.475C4 14.4448 4 14.4145 4 14.3843C4 14.3541 4 14.3239 4 14.2938C4 14.2636 4 14.2335 4 14.2034C4 14.1734 4 14.1433 4 14.1133C4 14.0833 4 14.0533 4 14.0234C4 13.9935 4 13.9636 4 13.9337C4 13.9038 4 13.874 4 13.8442C4 13.8144 4 13.7847 4 13.755C4 13.7252 4 13.6956 4 13.6659C4 13.6363 4 13.6067 4 13.5771C4 13.5475 4 13.518 4 13.4885C4 13.459 4 13.4295 4 13.4001C4 13.3707 4 13.3413 4 13.3119C4 13.2826 4 13.2533 4 13.224C4 13.1947 4 13.1655 4 13.1363C4 13.1071 4 13.0779 4 13.0488C4 13.0197 4 12.9906 4 12.9615C4 12.9325 4 12.9035 4 12.8745C4 12.8455 4 12.8166 4 12.7877C4 12.7588 4 12.73 4 12.7012C4 12.6723 4 12.6436 4 12.6148C4 12.5861 4 12.5574 4 12.5287C4 12.5001 4 12.4715 4 12.4429C4 12.4143 4 12.3858 4 12.3573C4 12.3288 4 12.3003 4 12.2719C4 12.2435 4 12.2151 4 12.1868C4 12.1584 4 12.1302 4 12.1019C4 12.0736 4 12.0454 4 12.0173C4 11.9891 4 11.961 4 11.9329C4 11.9048 4 11.8767 4 11.8487C4 11.8207 4 11.7928 4 11.7648C4 11.7369 4 11.709 4 11.6812C4 11.6534 4 11.6256 4 11.5978C4 11.5701 4 11.5423 4 11.5147C4 11.487 4 11.4594 4 11.4318C4 11.4042 4 11.3767 4 11.3492C4 11.3217 4 11.2942 4 11.2668C4 11.2394 4 11.212 4 11.1847C4 11.1574 4 11.1301 4 11.1029C4 11.0756 4 11.0484 4 11.0213C4 10.9941 4 10.967 4 10.94C4 10.9129 4 10.8859 4 10.8589C4 10.832 4 10.805 4 10.7782C4 10.7513 4 10.7244 4 10.6976C4 10.6709 4 10.6441 4 10.6174C4 10.5907 4 10.564 4 10.5374C4 10.5108 4 10.4843 4 10.4577C4 10.4312 4 10.4048 4 10.3783C4 10.3519 4 10.3255 4 10.2992C4 10.2729 4 10.2466 4 10.2203C4 10.1941 4 10.1679 4 10.1417C4 10.1156 4 10.0895 4 10.0634C4 10.0374 4 10.0114 4 9.98541C4 9.95946 4 9.93354 4 9.90768C4 9.88181 4 9.856 4 9.83023C4 9.80446 4 9.77874 4 9.75306C4 9.72739 4 9.70176 4 9.67619C4 9.65061 4 9.62508 4 9.5996C4 9.57412 4 9.54869 4 9.5233C4 9.49792 4 9.47259 4 9.4473C4 9.42202 4 9.39678 4 9.3716C4 9.34641 4 9.32127 4 9.29618C4 9.2711 4 9.24606 4 9.22107C4 9.19608 4 9.17114 4 9.14625C4 9.12136 4 9.09653 4 9.07174C4 9.04695 4 9.02221 4 8.99752C4 8.97284 4 8.9482 4 8.92361C4 8.89903 4 8.87449 4 8.85001C4 8.82552 4 8.80109 4 8.77671C4 8.75232 4 8.72799 4 8.70371C4 8.67944 4 8.65521 4 8.63103C4 8.60686 4 8.58273 4 8.55866C4 8.53459 4 8.51057 4 8.4866C4 8.46263 4 8.43872 4 8.41485C4 8.39099 4 8.36718 4 8.34342C4 8.31966 4 8.29596 4 8.27231C4 8.24865 4 8.22505 4 8.20151C4 8.17796 4 8.15447 4 8.13103C4 8.10759 4 8.08421 4 8.06087C4 8.03754 4 8.01426 4 7.99104C4 7.96781 4 7.94464 4 7.92153C4 7.89841 4 7.87535 4 7.85234C4 7.82934 4 7.80638 4 7.78349C4 7.76059 4 7.73774 4 7.71496C4 7.69217 4 7.66943 4 7.64676C4 7.62408 4 7.60146 4 7.57889C4 7.55632 4 7.53381 4 7.51135C4 7.4889 4 7.4665 4 7.44415C4 7.42181 4 7.39952 4 7.37729C4 7.35505 4 7.33288 4 7.31076C4 7.28864 4 7.26657 4 7.24457C4 7.22256 4 7.20061 4 7.17872C4 7.15683 4 7.13499 4 7.11321C4 7.09143 4 7.06971 4 7.04805C4 7.02638 4 7.00478 4 6.98323C4 6.96168 4 6.94019 4 6.91875C4 6.89732 4 6.87594 4 6.85463C4 6.83331 4 6.81205 4 6.79085C4 6.76965 4 6.74851 4 6.72742C4 6.70634 4 6.68532 4 6.66435C4 6.64338 4 6.62248 4 6.60163C4 6.58078 4 6.55999 4 6.53926C4 6.51854 4 6.49787 4 6.47726C4 6.45665 4 6.4361 4 6.41561C4 6.39511 4 6.37468 4 6.35431C4 6.33394 4 6.31363 4 6.29338C4 6.27313 4 6.25294 4 6.23282C4 6.21269 4 6.19262 4 6.17261C4 6.1526 4 6.13266 4 6.11277C4 6.09289 4 6.07306 4 6.0533C4 6.03354 4 6.01384 4 5.9942C4 5.97456 4 5.95498 4 5.93546C4 5.91595 4 5.89649 4 5.8771C4 5.85771 4 5.83838 4 5.81911C4 5.79985 4 5.78064 4 5.7615C4 5.74236 4 5.72328 4 5.70426C4 5.68524 4 5.66629 4 5.6474C4 5.62851 4 5.60968 4 5.59091C4 5.57215 4 5.55345 4 5.53481C4 5.51617 4 5.4976 4 5.47909C4 5.46058 4 5.44213 4 5.42375C4 5.40537 4 5.38705 4 5.3688C4 5.35054 4 5.33236 4 5.31423C4 5.29611 4 5.27805 4 5.26005C4 5.24206 4 5.22413 4 5.20626C4 5.1884 4 5.1706 4 5.15286C4 5.13513 4 5.11746 4 5.09985C4 5.08225 4 5.06471 4 5.04724C4 5.02977 4 5.01236 4 4.99502C4 4.97768 4 4.9604 4 4.9432C4 4.92599 4 4.90885 4 4.89177C4 4.8747 4 4.85769 4 4.84075C4 4.82381 4 4.80693 4 4.79012C4 4.77331 4 4.75657 4 4.7399C4 4.72323 4 4.70662 4 4.69008C4 4.67354 4 4.65707 4 4.64067C4 4.62427 4 4.60793 4 4.59167C4 4.5754 4 4.5592 4 4.54307C4 4.52694 4 4.51087 4 4.49488C4 4.47889 4 4.46296 4 4.4471C4 4.43125 4 4.41546 4 4.39974C4 4.38402 4 4.36837 4 4.35279C4 4.33721 4 4.3217 4 4.30626C4 4.29082 4 4.27545 4 4.26014C4 4.24484 4 4.22961 4 4.21445C4 4.19928 4 4.18419 4 4.16917C4 4.15415 4 4.1392 4 4.12432C4 4.10943 4 4.09462 4 4.07988C4 4.06514 4 4.05047 4 4.03588C4 4.02128 4 4.00675 4 3.99229C4 3.97784 4 3.96345 4 3.94914C4 3.93483 4 3.92059 4 3.90642C4 3.89225 4 3.87815 4 3.86412C4 3.8501 4 3.83614 4 3.82226C4 3.80838 4 3.79457 4 3.78083C4 3.7671 4 3.75343 4 3.73984C4 3.72625 4 3.71273 4 3.69928C4 3.68584 4 3.67247 4 3.65917C4 3.64587 4 3.63264 4 3.61949C4 3.60633 4 3.59325 4 3.58025C4 3.56724 4 3.55431 4 3.54145C4 3.52859 4 3.51581 4 3.5031C4 3.49039 4 3.47776 4 3.46519C4 3.45263 4 3.44015 4 3.42774C4 3.41532 4 3.40299 4 3.39072C4 3.37846 4 3.36628 4 3.35416C4 3.34205 4 3.33001 4 3.31805C4 3.30609 4 3.29421 4 3.2824C4 3.27059 4 3.25885 4 3.24719C4 3.23554 4 3.22395 4 3.21245C4 3.20094 4 3.18951 4 3.17816C4 3.1668 4 3.15553 4 3.14433C4 3.13313 4 3.122 4 3.11096C4 3.09991 4 3.08894 4 3.07805C4 3.06715 4 3.05634 4 3.0456C4 3.03486 4 3.0242 4 3.01362C4 3.00304 4 2.99253 4 2.9821C4 2.97168 4 2.96133 4 2.95106C4 2.94079 4 2.93059 4 2.92048C4 2.91036 4 2.90033 4 2.89037C4 2.88041 4 2.87053 4 2.86074C4 2.85094 4 2.84121 4 2.83157C4 2.82193 4 2.81237 4 2.80289C4 2.7934 4 2.784 4 2.77468C4 2.76535 4 2.75611 4 2.74694C4 2.73778 4 2.72869 4 2.71969C4 2.71069 4 2.70176 4 2.69292C4 2.68407 4 2.67531 4 2.66663C4 2.65795 4 2.64934 4 2.64082C4 2.6323 4 2.62386 4 2.6155C4 2.60714 4 2.59887 4 2.59067C4 2.58247 4 2.57436 4 2.56632C4 2.55829 4 2.55034 4 2.54247C4 2.5346 4 2.52681 4 2.5191C4 2.5114 4 2.50378 4 2.49623C4 2.48869 4 2.48123 4 2.47386C4 2.46648 4 2.45919 4 2.45198C4 2.44477 4 2.43764 4 2.43059C4 2.42355 4 2.41659 4 2.40971C4 2.40283 4 2.39603 4 2.38932C4 2.38261 4 2.37598 4 2.36944C4 2.3629 4 2.35644 4 2.35006C4 2.34368 4 2.33739 4 2.33118C4 2.32498 4 2.31885 4 2.31282C4 2.30678 4 2.30082 4 2.29495C4 2.28908 4 2.2833 4 2.2776C4 2.2719 4 2.26629 4 2.26076C4 2.25523 4 2.24979 4 2.24443C4 2.23907 4 2.2338 4 2.22861C4 2.22343 4 2.21833 4 2.21331C4 2.2083 4 2.20337 4 2.19853C4 2.19369 4 2.18893 4 2.18426C4 2.17959 4 2.17501 4 2.17051C4 2.16602 4 2.16161 4 2.15729C4 2.15297 4 2.14873 4 2.14458C4 2.14044 4 2.13638 4 2.13241C4 2.12843 4 2.12455 4 2.12075C4 2.11695 4 2.11324 4 2.10962C4 2.106 4 2.10247 4 2.09902C4 2.09558 4 2.09222 4 2.08895C4 2.08569 4 2.08251 4 2.07942C4 2.07633 4 2.07332 4 2.07041C4 2.0675 4 2.06468 4 2.06194C4 2.05921 4 2.05656 4 2.05401C4 2.05145 4 2.04898 4 2.04661C4 2.04423 4 2.04195 4 2.03975C4 2.03755 4 2.03545 4 2.03343C4 2.03141 4 2.02949 4 2.02765C4 2.02582 4 2.02407 4 2.02242C4 2.02076 4 2.0192 4 2.01773C4 2.01626 4 2.01488 4 2.01359C4 2.0123 4 2.0111 4 2.00999C4 2.00888 4 2.00787 4 2.00694C4 2.00602 4 2.00519 4 2.00445C4 2.00371 4 2.00306 4 2.0025C4 2.00195 4 2.00149 4 2.00111C4 2.00074 4 2.00046 4 2.00028C4 2.00009 4 2 2 2Z" fill="white"/>
<path d="M22 2C22 0.895431 21.1046 3.11499e-08 20 0C18.8954 -3.11499e-08 18 0.89543 18 2L22 2ZM18 42C18 43.1046 18.8954 44 20 44C21.1046 44 22 43.1046 22 42L18 42ZM20 2C18 2 18 2.00009 18 2.00028C18 2.00046 18 2.00074 18 2.00111C18 2.00148 18 2.00195 18 2.0025C18 2.00306 18 2.00371 18 2.00445C18 2.00519 18 2.00602 18 2.00694C18 2.00787 18 2.00888 18 2.00999C18 2.0111 18 2.0123 18 2.01359C18 2.01488 18 2.01626 18 2.01773C18 2.0192 18 2.02076 18 2.02242C18 2.02407 18 2.02582 18 2.02765C18 2.02949 18 2.03141 18 2.03343C18 2.03545 18 2.03755 18 2.03975C18 2.04195 18 2.04423 18 2.04661C18 2.04898 18 2.05145 18 2.05401C18 2.05656 18 2.05921 18 2.06194C18 2.06468 18 2.0675 18 2.07041C18 2.07332 18 2.07633 18 2.07942C18 2.08251 18 2.08569 18 2.08895C18 2.09222 18 2.09558 18 2.09902C18 2.10247 18 2.106 18 2.10962C18 2.11324 18 2.11695 18 2.12075C18 2.12455 18 2.12843 18 2.13241C18 2.13638 18 2.14044 18 2.14458C18 2.14873 18 2.15297 18 2.15729C18 2.16161 18 2.16602 18 2.17051C18 2.17501 18 2.17959 18 2.18426C18 2.18893 18 2.19369 18 2.19853C18 2.20337 18 2.2083 18 2.21331C18 2.21833 18 2.22343 18 2.22861C18 2.2338 18 2.23907 18 2.24443C18 2.24979 18 2.25523 18 2.26076C18 2.26629 18 2.2719 18 2.2776C18 2.2833 18 2.28908 18 2.29495C18 2.30082 18 2.30678 18 2.31282C18 2.31885 18 2.32498 18 2.33118C18 2.33739 18 2.34368 18 2.35006C18 2.35644 18 2.3629 18 2.36944C18 2.37598 18 2.38261 18 2.38932C18 2.39603 18 2.40283 18 2.40971C18 2.41659 18 2.42355 18 2.43059C18 2.43764 18 2.44477 18 2.45198C18 2.45919 18 2.46648 18 2.47386C18 2.48123 18 2.48869 18 2.49623C18 2.50378 18 2.5114 18 2.5191C18 2.52681 18 2.5346 18 2.54247C18 2.55034 18 2.55829 18 2.56632C18 2.57436 18 2.58247 18 2.59067C18 2.59887 18 2.60714 18 2.6155C18 2.62386 18 2.6323 18 2.64082C18 2.64934 18 2.65795 18 2.66663C18 2.67531 18 2.68407 18 2.69292C18 2.70176 18 2.71069 18 2.71969C18 2.72869 18 2.73778 18 2.74694C18 2.75611 18 2.76535 18 2.77468C18 2.784 18 2.7934 18 2.80289C18 2.81237 18 2.82193 18 2.83157C18 2.84121 18 2.85094 18 2.86074C18 2.87053 18 2.88041 18 2.89037C18 2.90033 18 2.91036 18 2.92048C18 2.93059 18 2.94079 18 2.95106C18 2.96133 18 2.97168 18 2.9821C18 2.99253 18 3.00304 18 3.01362C18 3.0242 18 3.03486 18 3.0456C18 3.05634 18 3.06715 18 3.07805C18 3.08894 18 3.09991 18 3.11096C18 3.122 18 3.13313 18 3.14433C18 3.15553 18 3.1668 18 3.17816C18 3.18951 18 3.20094 18 3.21245C18 3.22395 18 3.23553 18 3.24719C18 3.25885 18 3.27059 18 3.2824C18 3.29421 18 3.30609 18 3.31805C18 3.33001 18 3.34205 18 3.35416C18 3.36627 18 3.37846 18 3.39072C18 3.40299 18 3.41532 18 3.42774C18 3.44015 18 3.45263 18 3.46519C18 3.47776 18 3.49039 18 3.5031C18 3.51581 18 3.52859 18 3.54145C18 3.55431 18 3.56724 18 3.58025C18 3.59325 18 3.60633 18 3.61949C18 3.63264 18 3.64587 18 3.65917C18 3.67247 18 3.68584 18 3.69928C18 3.71273 18 3.72625 18 3.73984C18 3.75343 18 3.7671 18 3.78083C18 3.79457 18 3.80838 18 3.82226C18 3.83614 18 3.8501 18 3.86412C18 3.87815 18 3.89225 18 3.90642C18 3.92059 18 3.93483 18 3.94914C18 3.96345 18 3.97784 18 3.99229C18 4.00675 18 4.02128 18 4.03588C18 4.05047 18 4.06514 18 4.07988C18 4.09462 18 4.10943 18 4.12431C18 4.1392 18 4.15415 18 4.16917C18 4.18419 18 4.19928 18 4.21445C18 4.22961 18 4.24484 18 4.26014C18 4.27545 18 4.29082 18 4.30626C18 4.3217 18 4.33721 18 4.35279C18 4.36837 18 4.38402 18 4.39974C18 4.41546 18 4.43125 18 4.4471C18 4.46296 18 4.47889 18 4.49488C18 4.51087 18 4.52694 18 4.54307C18 4.5592 18 4.5754 18 4.59166C18 4.60793 18 4.62427 18 4.64067C18 4.65707 18 4.67354 18 4.69008C18 4.70662 18 4.72323 18 4.7399C18 4.75657 18 4.77331 18 4.79012C18 4.80693 18 4.82381 18 4.84075C18 4.85769 18 4.8747 18 4.89177C18 4.90885 18 4.92599 18 4.9432C18 4.9604 18 4.97768 18 4.99502C18 5.01236 18 5.02977 18 5.04724C18 5.06471 18 5.08225 18 5.09985C18 5.11746 18 5.13513 18 5.15286C18 5.1706 18 5.1884 18 5.20626C18 5.22413 18 5.24206 18 5.26005C18 5.27805 18 5.29611 18 5.31423C18 5.33235 18 5.35054 18 5.3688C18 5.38705 18 5.40537 18 5.42375C18 5.44213 18 5.46058 18 5.47909C18 5.4976 18 5.51617 18 5.53481C18 5.55345 18 5.57215 18 5.59091C18 5.60968 18 5.62851 18 5.6474C18 5.66629 18 5.68524 18 5.70426C18 5.72328 18 5.74236 18 5.7615C18 5.78064 18 5.79985 18 5.81911C18 5.83838 18 5.85771 18 5.8771C18 5.89649 18 5.91595 18 5.93546C18 5.95498 18 5.97456 18 5.9942C18 6.01384 18 6.03354 18 6.0533C18 6.07306 18 6.09289 18 6.11277C18 6.13266 18 6.1526 18 6.17261C18 6.19262 18 6.21269 18 6.23282C18 6.25294 18 6.27313 18 6.29338C18 6.31363 18 6.33394 18 6.35431C18 6.37468 18 6.39511 18 6.41561C18 6.4361 18 6.45665 18 6.47726C18 6.49787 18 6.51854 18 6.53926C18 6.55999 18 6.58078 18 6.60163C18 6.62248 18 6.64338 18 6.66435C18 6.68532 18 6.70634 18 6.72742C18 6.74851 18 6.76965 18 6.79085C18 6.81205 18 6.83331 18 6.85463C18 6.87594 18 6.89732 18 6.91875C18 6.94019 18 6.96168 18 6.98323C18 7.00478 18 7.02638 18 7.04805C18 7.06971 18 7.09143 18 7.11321C18 7.13499 18 7.15683 18 7.17872C18 7.20061 18 7.22256 18 7.24457C18 7.26657 18 7.28864 18 7.31076C18 7.33288 18 7.35505 18 7.37729C18 7.39952 18 7.42181 18 7.44415C18 7.4665 18 7.4889 18 7.51135C18 7.53381 18 7.55632 18 7.57889C18 7.60146 18 7.62408 18 7.64676C18 7.66943 18 7.69217 18 7.71496C18 7.73774 18 7.76059 18 7.78349C18 7.80638 18 7.82934 18 7.85234C18 7.87535 18 7.89841 18 7.92153C18 7.94464 18 7.96781 18 7.99104C18 8.01426 18 8.03754 18 8.06087C18 8.08421 18 8.10759 18 8.13103C18 8.15447 18 8.17796 18 8.20151C18 8.22505 18 8.24865 18 8.2723C18 8.29596 18 8.31966 18 8.34342C18 8.36718 18 8.39099 18 8.41485C18 8.43871 18 8.46263 18 8.4866C18 8.51057 18 8.53459 18 8.55866C18 8.58273 18 8.60686 18 8.63103C18 8.65521 18 8.67944 18 8.70371C18 8.72799 18 8.75232 18 8.77671C18 8.80109 18 8.82552 18 8.85001C18 8.87449 18 8.89903 18 8.92361C18 8.9482 18 8.97284 18 8.99752C18 9.02221 18 9.04695 18 9.07174C18 9.09653 18 9.12136 18 9.14625C18 9.17114 18 9.19608 18 9.22107C18 9.24606 18 9.2711 18 9.29618C18 9.32127 18 9.34641 18 9.3716C18 9.39678 18 9.42202 18 9.4473C18 9.47259 18 9.49792 18 9.5233C18 9.54869 18 9.57412 18 9.5996C18 9.62508 18 9.65061 18 9.67619C18 9.70176 18 9.72739 18 9.75306C18 9.77874 18 9.80446 18 9.83023C18 9.856 18 9.88181 18 9.90768C18 9.93354 18 9.95945 18 9.98541C18 10.0114 18 10.0374 18 10.0634C18 10.0895 18 10.1156 18 10.1417C18 10.1679 18 10.1941 18 10.2203C18 10.2466 18 10.2729 18 10.2992C18 10.3255 18 10.3519 18 10.3783C18 10.4048 18 10.4312 18 10.4577C18 10.4843 18 10.5108 18 10.5374C18 10.564 18 10.5907 18 10.6174C18 10.6441 18 10.6709 18 10.6976C18 10.7244 18 10.7513 18 10.7782C18 10.805 18 10.832 18 10.8589C18 10.8859 18 10.9129 18 10.94C18 10.967 18 10.9941 18 11.0213C18 11.0484 18 11.0756 18 11.1029C18 11.1301 18 11.1574 18 11.1847C18 11.212 18 11.2394 18 11.2668C18 11.2942 18 11.3217 18 11.3492C18 11.3767 18 11.4042 18 11.4318C18 11.4594 18 11.487 18 11.5147C18 11.5423 18 11.5701 18 11.5978C18 11.6256 18 11.6534 18 11.6812C18 11.709 18 11.7369 18 11.7648C18 11.7928 18 11.8207 18 11.8487C18 11.8767 18 11.9048 18 11.9329C18 11.961 18 11.9891 18 12.0173C18 12.0454 18 12.0736 18 12.1019C18 12.1302 18 12.1584 18 12.1868C18 12.2151 18 12.2435 18 12.2719C18 12.3003 18 12.3288 18 12.3573C18 12.3858 18 12.4143 18 12.4429C18 12.4715 18 12.5001 18 12.5287C18 12.5574 18 12.5861 18 12.6148C18 12.6436 18 12.6723 18 12.7012C18 12.73 18 12.7588 18 12.7877C18 12.8166 18 12.8455 18 12.8745C18 12.9035 18 12.9325 18 12.9615C18 12.9906 18 13.0197 18 13.0488C18 13.0779 18 13.1071 18 13.1363C18 13.1655 18 13.1947 18 13.224C18 13.2533 18 13.2826 18 13.3119C18 13.3413 18 13.3707 18 13.4001C18 13.4295 18 13.459 18 13.4885C18 13.518 18 13.5475 18 13.5771C18 13.6067 18 13.6363 18 13.6659C18 13.6956 18 13.7252 18 13.755C18 13.7847 18 13.8144 18 13.8442C18 13.874 18 13.9038 18 13.9337C18 13.9636 18 13.9935 18 14.0234C18 14.0533 18 14.0833 18 14.1133C18 14.1433 18 14.1734 18 14.2034C18 14.2335 18 14.2636 18 14.2938C18 14.3239 18 14.3541 18 14.3843C18 14.4145 18 14.4448 18 14.475C18 14.5053 18 14.5356 18 14.566C18 14.5963 18 14.6267 18 14.6571C18 14.6876 18 14.718 18 14.7485C18 14.779 18 14.8095 18 14.8401C18 14.8706 18 14.9012 18 14.9318C18 14.9624 18 14.9931 18 15.0238C18 15.0545 18 15.0852 18 15.1159C18 15.1467 18 15.1775 18 15.2083C18 15.2391 18 15.2699 18 15.3008C18 15.3317 18 15.3626 18 15.3935C18 15.4245 18 15.4555 18 15.4865C18 15.5175 18 15.5485 18 15.5796C18 15.6106 18 15.6417 18 15.6729C18 15.704 18 15.7352 18 15.7664C18 15.7976 18 15.8288 18 15.86C18 15.8913 18 15.9226 18 15.9539C18 15.9852 18 16.0165 18 16.0479C18 16.0793 18 16.1107 18 16.1421C18 16.1736 18 16.205 18 16.2365C18 16.268 18 16.2995 18 16.3311C18 16.3627 18 16.3942 18 16.4258C18 16.4575 18 16.4891 18 16.5208C18 16.5524 18 16.5841 18 16.6159C18 16.6476 18 16.6793 18 16.7111C18 16.7429 18 16.7747 18 16.8066C18 16.8384 18 16.8703 18 16.9022C18 16.9341 18 16.966 18 16.9979C18 17.0299 18 17.0619 18 17.0939C18 17.1259 18 17.1579 18 17.19C18 17.222 18 17.2541 18 17.2862C18 17.3184 18 17.3505 18 17.3827C18 17.4148 18 17.447 18 17.4793C18 17.5115 18 17.5437 18 17.576C18 17.6083 18 17.6406 18 17.6729C18 17.7052 18 17.7376 18 17.7699C18 17.8023 18 17.8347 18 17.8672C18 17.8996 18 17.932 18 17.9645C18 17.997 18 18.0295 18 18.062C18 18.0945 18 18.1271 18 18.1597C18 18.1923 18 18.2249 18 18.2575C18 18.2901 18 18.3228 18 18.3554C18 18.3881 18 18.4208 18 18.4535C18 18.4863 18 18.519 18 18.5518C18 18.5845 18 18.6173 18 18.6502C18 18.683 18 18.7158 18 18.7487C18 18.7815 18 18.8144 18 18.8473C18 18.8802 18 18.9132 18 18.9461C18 18.9791 18 19.0121 18 19.0451C18 19.0781 18 19.1111 18 19.1441C18 19.1772 18 19.2103 18 19.2433C18 19.2764 18 19.3095 18 19.3427C18 19.3758 18 19.409 18 19.4421C18 19.4753 18 19.5085 18 19.5417C18 19.5749 18 19.6082 18 19.6414C18 19.6747 18 19.708 18 19.7413C18 19.7746 18 19.8079 18 19.8413C18 19.8746 18 19.908 18 19.9413C18 19.9747 18 20.0081 18 20.0416C18 20.075 18 20.1084 18 20.1419C18 20.1754 18 20.2088 18 20.2423C18 20.2758 18 20.3094 18 20.3429C18 20.3764 18 20.41 18 20.4436C18 20.4772 18 20.5108 18 20.5444C18 20.578 18 20.6116 18 20.6453C18 20.6789 18 20.7126 18 20.7463C18 20.78 18 20.8137 18 20.8474C18 20.8811 18 20.9149 18 20.9487C18 20.9824 18 21.0162 18 21.05C18 21.0838 18 21.1176 18 21.1514C18 21.1853 18 21.2191 18 21.253C18 21.2869 18 21.3207 18 21.3546C18 21.3885 18 21.4225 18 21.4564C18 21.4903 18 21.5243 18 21.5582C18 21.5922 18 21.6262 18 21.6602C18 21.6942 18 21.7282 18 21.7622C18 21.7962 18 21.8303 18 21.8644C18 21.8984 18 21.9325 18 21.9666C18 22.0007 18 22.0348 18 22.0689C18 22.103 18 22.1372 18 22.1713C18 22.2055 18 22.2396 18 22.2738C18 22.308 18 22.3422 18 22.3764C18 22.4106 18 22.4448 18 22.4791C18 22.5133 18 22.5476 18 22.5818C18 22.6161 18 22.6504 18 22.6847C18 22.7189 18 22.7533 18 22.7876C18 22.8219 18 22.8562 18 22.8906C18 22.9249 18 22.9593 18 22.9936C18 23.028 18 23.0624 18 23.0968C18 23.1312 18 23.1656 18 23.2C18 23.2344 18 23.2689 18 23.3033C18 23.3378 18 23.3722 18 23.4067C18 23.4412 18 23.4757 18 23.5101C18 23.5446 18 23.5791 18 23.6137C18 23.6482 18 23.6827 18 23.7172C18 23.7518 18 23.7863 18 23.8209C18 23.8554 18 23.89 18 23.9246C18 23.9592 18 23.9938 18 24.0284C18 24.063 18 24.0976 18 24.1322C18 24.1668 18 24.2015 18 24.2361C18 24.2707 18 24.3054 18 24.3401C18 24.3747 18 24.4094 18 24.4441C18 24.4787 18 24.5134 18 24.5481C18 24.5828 18 24.6175 18 24.6523C18 24.687 18 24.7217 18 24.7564C18 24.7912 18 24.8259 18 24.8607C18 24.8954 18 24.9302 18 24.9649C18 24.9997 18 25.0345 18 25.0693C18 25.104 18 25.1388 18 25.1736C18 25.2084 18 25.2432 18 25.278C18 25.3129 18 25.3477 18 25.3825C18 25.4173 18 25.4522 18 25.487C18 25.5219 18 25.5567 18 25.5916C18 25.6264 18 25.6613 18 25.6961C18 25.731 18 25.7659 18 25.8008C18 25.8356 18 25.8705 18 25.9054C18 25.9403 18 25.9752 18 26.0101C18 26.045 18 26.0799 18 26.1148C18 26.1498 18 26.1847 18 26.2196C18 26.2545 18 26.2895 18 26.3244C18 26.3593 18 26.3943 18 26.4292C18 26.4642 18 26.4991 18 26.5341C18 26.569 18 26.604 18 26.6389C18 26.6739 18 26.7089 18 26.7438C18 26.7788 18 26.8138 18 26.8488C18 26.8837 18 26.9187 18 26.9537C18 26.9887 18 27.0237 18 27.0587C18 27.0937 18 27.1286 18 27.1636C18 27.1986 18 27.2336 18 27.2686C18 27.3036 18 27.3387 18 27.3737C18 27.4087 18 27.4437 18 27.4787C18 27.5137 18 27.5487 18 27.5837C18 27.6187 18 27.6538 18 27.6888C18 27.7238 18 27.7588 18 27.7938C18 27.8289 18 27.8639 18 27.8989C18 27.9339 18 27.969 18 28.004C18 28.039 18 28.0741 18 28.1091C18 28.1441 18 28.1791 18 28.2142C18 28.2492 18 28.2842 18 28.3193C18 28.3543 18 28.3893 18 28.4244C18 28.4594 18 28.4944 18 28.5294C18 28.5645 18 28.5995 18 28.6345C18 28.6696 18 28.7046 18 28.7396C18 28.7747 18 28.8097 18 28.8447C18 28.8797 18 28.9148 18 28.9498C18 28.9848 18 29.0198 18 29.0548C18 29.0899 18 29.1249 18 29.1599C18 29.1949 18 29.2299 18 29.2649C18 29.3 18 29.335 18 29.37C18 29.405 18 29.44 18 29.475C18 29.51 18 29.545 18 29.58C18 29.615 18 29.65 18 29.685C18 29.72 18 29.755 18 29.79C18 29.825 18 29.8599 18 29.8949C18 29.9299 18 29.9649 18 29.9998C18 30.0348 18 30.0698 18 30.1048C18 30.1397 18 30.1747 18 30.2096C18 30.2446 18 30.2795 18 30.3145C18 30.3494 18 30.3844 18 30.4193C18 30.4543 18 30.4892 18 30.5241C18 30.5591 18 30.594 18 30.6289C18 30.6638 18 30.6987 18 30.7336C18 30.7685 18 30.8034 18 30.8383C18 30.8732 18 30.9081 18 30.943C18 30.9779 18 31.0128 18 31.0476C18 31.0825 18 31.1174 18 31.1522C18 31.1871 18 31.222 18 31.2568C18 31.2917 18 31.3265 18 31.3613C18 31.3962 18 31.431 18 31.4658C18 31.5006 18 31.5354 18 31.5702C18 31.605 18 31.6398 18 31.6746C18 31.7094 18 31.7442 18 31.779C18 31.8137 18 31.8485 18 31.8833C18 31.918 18 31.9528 18 31.9875C18 32.0222 18 32.057 18 32.0917C18 32.1264 18 32.1611 18 32.1958C18 32.2305 18 32.2652 18 32.2999C18 32.3346 18 32.3693 18 32.404C18 32.4386 18 32.4733 18 32.5079C18 32.5426 18 32.5772 18 32.6119C18 32.6465 18 32.6811 18 32.7157C18 32.7503 18 32.7849 18 32.8195C18 32.8541 18 32.8887 18 32.9232C18 32.9578 18 32.9924 18 33.0269C18 33.0615 18 33.096 18 33.1305C18 33.165 18 33.1996 18 33.2341C18 33.2686 18 33.303 18 33.3375C18 33.372 18 33.4065 18 33.4409C18 33.4754 18 33.5098 18 33.5442C18 33.5787 18 33.6131 18 33.6475C18 33.6819 18 33.7163 18 33.7507C18 33.7851 18 33.8194 18 33.8538C18 33.8881 18 33.9225 18 33.9568C18 33.9911 18 34.0255 18 34.0598C18 34.0941 18 34.1283 18 34.1626C18 34.1969 18 34.2312 18 34.2654C18 34.2997 18 34.3339 18 34.3681C18 34.4023 18 34.4365 18 34.4707C18 34.5049 18 34.5391 18 34.5732C18 34.6074 18 34.6416 18 34.6757C18 34.7098 18 34.7439 18 34.778C18 34.8121 18 34.8462 18 34.8803C18 34.9144 18 34.9484 18 34.9825C18 35.0165 18 35.0505 18 35.0845C18 35.1186 18 35.1525 18 35.1865C18 35.2205 18 35.2545 18 35.2884C18 35.3224 18 35.3563 18 35.3902C18 35.4241 18 35.458 18 35.4919C18 35.5258 18 35.5596 18 35.5935C18 35.6273 18 35.6611 18 35.6949C18 35.7288 18 35.7626 18 35.7963C18 35.8301 18 35.8639 18 35.8976C18 35.9313 18 35.9651 18 35.9988C18 36.0325 18 36.0661 18 36.0998C18 36.1335 18 36.1671 18 36.2008C18 36.2344 18 36.268 18 36.3016C18 36.3352 18 36.3688 18 36.4023C18 36.4359 18 36.4694 18 36.5029C18 36.5364 18 36.5699 18 36.6034C18 36.6369 18 36.6703 18 36.7038C18 36.7372 18 36.7706 18 36.804C18 36.8374 18 36.8708 18 36.9042C18 36.9375 18 36.9709 18 37.0042C18 37.0375 18 37.0708 18 37.1041C18 37.1373 18 37.1706 18 37.2038C18 37.2371 18 37.2703 18 37.3035C18 37.3367 18 37.3698 18 37.403C18 37.4361 18 37.4693 18 37.5024C18 37.5355 18 37.5686 18 37.6016C18 37.6347 18 37.6677 18 37.7007C18 37.7337 18 37.7667 18 37.7997C18 37.8327 18 37.8656 18 37.8986C18 37.9315 18 37.9644 18 37.9973C18 38.0301 18 38.063 18 38.0958C18 38.1287 18 38.1615 18 38.1943C18 38.2271 18 38.2598 18 38.2926C18 38.3253 18 38.358 18 38.3907C18 38.4234 18 38.4561 18 38.4887C18 38.5214 18 38.554 18 38.5866C18 38.6192 18 38.6517 18 38.6843C18 38.7168 18 38.7494 18 38.7819C18 38.8143 18 38.8468 18 38.8793C18 38.9117 18 38.9441 18 38.9765C18 39.0089 18 39.0413 18 39.0736C18 39.106 18 39.1383 18 39.1706C18 39.2029 18 39.2351 18 39.2674C18 39.2996 18 39.3318 18 39.364C18 39.3962 18 39.4284 18 39.4605C18 39.4926 18 39.5247 18 39.5568C18 39.5889 18 39.621 18 39.653C18 39.685 18 39.717 18 39.749C18 39.781 18 39.8129 18 39.8448C18 39.8767 18 39.9086 18 39.9405C18 39.9723 18 40.0042 18 40.036C18 40.0678 18 40.0996 18 40.1313C18 40.1631 18 40.1948 18 40.2265C18 40.2581 18 40.2898 18 40.3214C18 40.3531 18 40.3847 18 40.4163C18 40.4478 18 40.4794 18 40.5109C18 40.5424 18 40.5739 18 40.6053C18 40.6368 18 40.6682 18 40.6996C18 40.731 18 40.7624 18 40.7937C18 40.8251 18 40.8564 18 40.8876C18 40.9189 18 40.9502 18 40.9814C18 41.0126 18 41.0438 18 41.0749C18 41.1061 18 41.1372 18 41.1683C18 41.1994 18 41.2304 18 41.2615C18 41.2925 18 41.3235 18 41.3545C18 41.3854 18 41.4164 18 41.4473C18 41.4782 18 41.509 18 41.5399C18 41.5707 18 41.6015 18 41.6323C18 41.6631 18 41.6938 18 41.7245C18 41.7552 18 41.7859 18 41.8165C18 41.8472 18 41.8778 18 41.9084C18 41.9389 18 41.9695 18 42L22 42C22 41.9695 22 41.9389 22 41.9084C22 41.8778 22 41.8472 22 41.8165C22 41.7859 22 41.7552 22 41.7245C22 41.6938 22 41.6631 22 41.6323C22 41.6015 22 41.5707 22 41.5399C22 41.509 22 41.4782 22 41.4473C22 41.4164 22 41.3854 22 41.3545C22 41.3235 22 41.2925 22 41.2615C22 41.2304 22 41.1994 22 41.1683C22 41.1372 22 41.1061 22 41.0749C22 41.0438 22 41.0126 22 40.9814C22 40.9502 22 40.9189 22 40.8876C22 40.8564 22 40.8251 22 40.7937C22 40.7624 22 40.731 22 40.6996C22 40.6682 22 40.6368 22 40.6053C22 40.5739 22 40.5424 22 40.5109C22 40.4794 22 40.4478 22 40.4163C22 40.3847 22 40.3531 22 40.3214C22 40.2898 22 40.2581 22 40.2265C22 40.1948 22 40.1631 22 40.1313C22 40.0996 22 40.0678 22 40.036C22 40.0042 22 39.9723 22 39.9405C22 39.9086 22 39.8767 22 39.8448C22 39.8129 22 39.781 22 39.749C22 39.717 22 39.685 22 39.653C22 39.621 22 39.5889 22 39.5568C22 39.5247 22 39.4926 22 39.4605C22 39.4284 22 39.3962 22 39.364C22 39.3318 22 39.2996 22 39.2674C22 39.2351 22 39.2029 22 39.1706C22 39.1383 22 39.106 22 39.0736C22 39.0413 22 39.0089 22 38.9765C22 38.9441 22 38.9117 22 38.8793C22 38.8468 22 38.8143 22 38.7819C22 38.7494 22 38.7168 22 38.6843C22 38.6517 22 38.6192 22 38.5866C22 38.554 22 38.5214 22 38.4887C22 38.4561 22 38.4234 22 38.3907C22 38.358 22 38.3253 22 38.2926C22 38.2598 22 38.2271 22 38.1943C22 38.1615 22 38.1287 22 38.0958C22 38.063 22 38.0301 22 37.9973C22 37.9644 22 37.9315 22 37.8986C22 37.8656 22 37.8327 22 37.7997C22 37.7667 22 37.7337 22 37.7007C22 37.6677 22 37.6347 22 37.6016C22 37.5686 22 37.5355 22 37.5024C22 37.4693 22 37.4361 22 37.403C22 37.3698 22 37.3367 22 37.3035C22 37.2703 22 37.2371 22 37.2038C22 37.1706 22 37.1373 22 37.1041C22 37.0708 22 37.0375 22 37.0042C22 36.9709 22 36.9375 22 36.9042C22 36.8708 22 36.8374 22 36.804C22 36.7706 22 36.7372 22 36.7038C22 36.6703 22 36.6369 22 36.6034C22 36.5699 22 36.5364 22 36.5029C22 36.4694 22 36.4359 22 36.4023C22 36.3688 22 36.3352 22 36.3016C22 36.268 22 36.2344 22 36.2008C22 36.1671 22 36.1335 22 36.0998C22 36.0661 22 36.0325 22 35.9988C22 35.9651 22 35.9313 22 35.8976C22 35.8639 22 35.8301 22 35.7963C22 35.7626 22 35.7288 22 35.6949C22 35.6611 22 35.6273 22 35.5935C22 35.5596 22 35.5258 22 35.4919C22 35.458 22 35.4241 22 35.3902C22 35.3563 22 35.3224 22 35.2884C22 35.2545 22 35.2205 22 35.1865C22 35.1525 22 35.1186 22 35.0845C22 35.0505 22 35.0165 22 34.9825C22 34.9484 22 34.9144 22 34.8803C22 34.8462 22 34.8121 22 34.778C22 34.7439 22 34.7098 22 34.6757C22 34.6416 22 34.6074 22 34.5732C22 34.5391 22 34.5049 22 34.4707C22 34.4365 22 34.4023 22 34.3681C22 34.3339 22 34.2997 22 34.2654C22 34.2312 22 34.1969 22 34.1626C22 34.1283 22 34.0941 22 34.0598C22 34.0255 22 33.9911 22 33.9568C22 33.9225 22 33.8881 22 33.8538C22 33.8194 22 33.7851 22 33.7507C22 33.7163 22 33.6819 22 33.6475C22 33.6131 22 33.5787 22 33.5442C22 33.5098 22 33.4754 22 33.4409C22 33.4065 22 33.372 22 33.3375C22 33.303 22 33.2686 22 33.2341C22 33.1996 22 33.165 22 33.1305C22 33.096 22 33.0615 22 33.0269C22 32.9924 22 32.9578 22 32.9232C22 32.8887 22 32.8541 22 32.8195C22 32.7849 22 32.7503 22 32.7157C22 32.6811 22 32.6465 22 32.6119C22 32.5772 22 32.5426 22 32.5079C22 32.4733 22 32.4386 22 32.404C22 32.3693 22 32.3346 22 32.2999C22 32.2652 22 32.2305 22 32.1958C22 32.1611 22 32.1264 22 32.0917C22 32.057 22 32.0222 22 31.9875C22 31.9528 22 31.918 22 31.8833C22 31.8485 22 31.8137 22 31.779C22 31.7442 22 31.7094 22 31.6746C22 31.6398 22 31.605 22 31.5702C22 31.5354 22 31.5006 22 31.4658C22 31.431 22 31.3962 22 31.3613C22 31.3265 22 31.2917 22 31.2568C22 31.222 22 31.1871 22 31.1522C22 31.1174 22 31.0825 22 31.0476C22 31.0128 22 30.9779 22 30.943C22 30.9081 22 30.8732 22 30.8383C22 30.8034 22 30.7685 22 30.7336C22 30.6987 22 30.6638 22 30.6289C22 30.594 22 30.5591 22 30.5241C22 30.4892 22 30.4543 22 30.4193C22 30.3844 22 30.3494 22 30.3145C22 30.2795 22 30.2446 22 30.2096C22 30.1747 22 30.1397 22 30.1048C22 30.0698 22 30.0348 22 29.9998C22 29.9649 22 29.9299 22 29.8949C22 29.8599 22 29.825 22 29.79C22 29.755 22 29.72 22 29.685C22 29.65 22 29.615 22 29.58C22 29.545 22 29.51 22 29.475C22 29.44 22 29.405 22 29.37C22 29.335 22 29.3 22 29.2649C22 29.2299 22 29.1949 22 29.1599C22 29.1249 22 29.0899 22 29.0548C22 29.0198 22 28.9848 22 28.9498C22 28.9148 22 28.8797 22 28.8447C22 28.8097 22 28.7747 22 28.7396C22 28.7046 22 28.6696 22 28.6345C22 28.5995 22 28.5645 22 28.5294C22 28.4944 22 28.4594 22 28.4244C22 28.3893 22 28.3543 22 28.3193C22 28.2842 22 28.2492 22 28.2142C22 28.1791 22 28.1441 22 28.1091C22 28.0741 22 28.039 22 28.004C22 27.969 22 27.9339 22 27.8989C22 27.8639 22 27.8289 22 27.7938C22 27.7588 22 27.7238 22 27.6888C22 27.6538 22 27.6187 22 27.5837C22 27.5487 22 27.5137 22 27.4787C22 27.4437 22 27.4087 22 27.3737C22 27.3387 22 27.3036 22 27.2686C22 27.2336 22 27.1986 22 27.1636C22 27.1286 22 27.0937 22 27.0587C22 27.0237 22 26.9887 22 26.9537C22 26.9187 22 26.8837 22 26.8488C22 26.8138 22 26.7788 22 26.7438C22 26.7089 22 26.6739 22 26.6389C22 26.604 22 26.569 22 26.5341C22 26.4991 22 26.4642 22 26.4292C22 26.3943 22 26.3593 22 26.3244C22 26.2895 22 26.2545 22 26.2196C22 26.1847 22 26.1498 22 26.1148C22 26.0799 22 26.045 22 26.0101C22 25.9752 22 25.9403 22 25.9054C22 25.8705 22 25.8356 22 25.8008C22 25.7659 22 25.731 22 25.6961C22 25.6613 22 25.6264 22 25.5916C22 25.5567 22 25.5219 22 25.487C22 25.4522 22 25.4173 22 25.3825C22 25.3477 22 25.3129 22 25.278C22 25.2432 22 25.2084 22 25.1736C22 25.1388 22 25.104 22 25.0693C22 25.0345 22 24.9997 22 24.9649C22 24.9302 22 24.8954 22 24.8607C22 24.8259 22 24.7912 22 24.7564C22 24.7217 22 24.687 22 24.6523C22 24.6175 22 24.5828 22 24.5481C22 24.5134 22 24.4787 22 24.4441C22 24.4094 22 24.3747 22 24.3401C22 24.3054 22 24.2707 22 24.2361C22 24.2015 22 24.1668 22 24.1322C22 24.0976 22 24.063 22 24.0284C22 23.9938 22 23.9592 22 23.9246C22 23.89 22 23.8554 22 23.8209C22 23.7863 22 23.7518 22 23.7172C22 23.6827 22 23.6482 22 23.6137C22 23.5791 22 23.5446 22 23.5101C22 23.4757 22 23.4412 22 23.4067C22 23.3722 22 23.3378 22 23.3033C22 23.2689 22 23.2344 22 23.2C22 23.1656 22 23.1312 22 23.0968C22 23.0624 22 23.028 22 22.9936C22 22.9593 22 22.9249 22 22.8906C22 22.8562 22 22.8219 22 22.7876C22 22.7533 22 22.7189 22 22.6847C22 22.6504 22 22.6161 22 22.5818C22 22.5476 22 22.5133 22 22.4791C22 22.4448 22 22.4106 22 22.3764C22 22.3422 22 22.308 22 22.2738C22 22.2396 22 22.2055 22 22.1713C22 22.1372 22 22.103 22 22.0689C22 22.0348 22 22.0007 22 21.9666C22 21.9325 22 21.8984 22 21.8644C22 21.8303 22 21.7962 22 21.7622C22 21.7282 22 21.6942 22 21.6602C22 21.6262 22 21.5922 22 21.5582C22 21.5243 22 21.4903 22 21.4564C22 21.4225 22 21.3885 22 21.3546C22 21.3207 22 21.2869 22 21.253C22 21.2191 22 21.1853 22 21.1514C22 21.1176 22 21.0838 22 21.05C22 21.0162 22 20.9824 22 20.9487C22 20.9149 22 20.8811 22 20.8474C22 20.8137 22 20.78 22 20.7463C22 20.7126 22 20.6789 22 20.6453C22 20.6116 22 20.578 22 20.5444C22 20.5108 22 20.4772 22 20.4436C22 20.41 22 20.3764 22 20.3429C22 20.3094 22 20.2758 22 20.2423C22 20.2088 22 20.1754 22 20.1419C22 20.1084 22 20.075 22 20.0416C22 20.0081 22 19.9747 22 19.9413C22 19.908 22 19.8746 22 19.8413C22 19.8079 22 19.7746 22 19.7413C22 19.708 22 19.6747 22 19.6414C22 19.6082 22 19.5749 22 19.5417C22 19.5085 22 19.4753 22 19.4421C22 19.409 22 19.3758 22 19.3427C22 19.3095 22 19.2764 22 19.2433C22 19.2103 22 19.1772 22 19.1441C22 19.1111 22 19.0781 22 19.0451C22 19.0121 22 18.9791 22 18.9461C22 18.9132 22 18.8802 22 18.8473C22 18.8144 22 18.7815 22 18.7487C22 18.7158 22 18.683 22 18.6502C22 18.6173 22 18.5845 22 18.5518C22 18.519 22 18.4863 22 18.4535C22 18.4208 22 18.3881 22 18.3554C22 18.3228 22 18.2901 22 18.2575C22 18.2249 22 18.1923 22 18.1597C22 18.1271 22 18.0945 22 18.062C22 18.0295 22 17.997 22 17.9645C22 17.932 22 17.8996 22 17.8672C22 17.8347 22 17.8023 22 17.7699C22 17.7376 22 17.7052 22 17.6729C22 17.6406 22 17.6083 22 17.576C22 17.5437 22 17.5115 22 17.4793C22 17.447 22 17.4148 22 17.3827C22 17.3505 22 17.3184 22 17.2862C22 17.2541 22 17.222 22 17.19C22 17.1579 22 17.1259 22 17.0939C22 17.0619 22 17.0299 22 16.9979C22 16.966 22 16.9341 22 16.9022C22 16.8703 22 16.8384 22 16.8066C22 16.7747 22 16.7429 22 16.7111C22 16.6793 22 16.6476 22 16.6159C22 16.5841 22 16.5524 22 16.5208C22 16.4891 22 16.4575 22 16.4258C22 16.3942 22 16.3627 22 16.3311C22 16.2995 22 16.268 22 16.2365C22 16.205 22 16.1736 22 16.1421C22 16.1107 22 16.0793 22 16.0479C22 16.0165 22 15.9852 22 15.9539C22 15.9226 22 15.8913 22 15.86C22 15.8288 22 15.7976 22 15.7664C22 15.7352 22 15.704 22 15.6729C22 15.6417 22 15.6106 22 15.5796C22 15.5485 22 15.5175 22 15.4865C22 15.4555 22 15.4245 22 15.3935C22 15.3626 22 15.3317 22 15.3008C22 15.2699 22 15.2391 22 15.2083C22 15.1775 22 15.1467 22 15.1159C22 15.0852 22 15.0545 22 15.0238C22 14.9931 22 14.9624 22 14.9318C22 14.9012 22 14.8706 22 14.8401C22 14.8095 22 14.779 22 14.7485C22 14.718 22 14.6876 22 14.6571C22 14.6267 22 14.5963 22 14.566C22 14.5356 22 14.5053 22 14.475C22 14.4448 22 14.4145 22 14.3843C22 14.3541 22 14.3239 22 14.2938C22 14.2636 22 14.2335 22 14.2034C22 14.1734 22 14.1433 22 14.1133C22 14.0833 22 14.0533 22 14.0234C22 13.9935 22 13.9636 22 13.9337C22 13.9038 22 13.874 22 13.8442C22 13.8144 22 13.7847 22 13.755C22 13.7252 22 13.6956 22 13.6659C22 13.6363 22 13.6067 22 13.5771C22 13.5475 22 13.518 22 13.4885C22 13.459 22 13.4295 22 13.4001C22 13.3707 22 13.3413 22 13.3119C22 13.2826 22 13.2533 22 13.224C22 13.1947 22 13.1655 22 13.1363C22 13.1071 22 13.0779 22 13.0488C22 13.0197 22 12.9906 22 12.9615C22 12.9325 22 12.9035 22 12.8745C22 12.8455 22 12.8166 22 12.7877C22 12.7588 22 12.73 22 12.7012C22 12.6723 22 12.6436 22 12.6148C22 12.5861 22 12.5574 22 12.5287C22 12.5001 22 12.4715 22 12.4429C22 12.4143 22 12.3858 22 12.3573C22 12.3288 22 12.3003 22 12.2719C22 12.2435 22 12.2151 22 12.1868C22 12.1584 22 12.1302 22 12.1019C22 12.0736 22 12.0454 22 12.0173C22 11.9891 22 11.961 22 11.9329C22 11.9048 22 11.8767 22 11.8487C22 11.8207 22 11.7928 22 11.7648C22 11.7369 22 11.709 22 11.6812C22 11.6534 22 11.6256 22 11.5978C22 11.5701 22 11.5423 22 11.5147C22 11.487 22 11.4594 22 11.4318C22 11.4042 22 11.3767 22 11.3492C22 11.3217 22 11.2942 22 11.2668C22 11.2394 22 11.212 22 11.1847C22 11.1574 22 11.1301 22 11.1029C22 11.0756 22 11.0484 22 11.0213C22 10.9941 22 10.967 22 10.94C22 10.9129 22 10.8859 22 10.8589C22 10.832 22 10.805 22 10.7782C22 10.7513 22 10.7244 22 10.6976C22 10.6709 22 10.6441 22 10.6174C22 10.5907 22 10.564 22 10.5374C22 10.5108 22 10.4843 22 10.4577C22 10.4312 22 10.4048 22 10.3783C22 10.3519 22 10.3255 22 10.2992C22 10.2729 22 10.2466 22 10.2203C22 10.1941 22 10.1679 22 10.1417C22 10.1156 22 10.0895 22 10.0634C22 10.0374 22 10.0114 22 9.98541C22 9.95946 22 9.93354 22 9.90768C22 9.88181 22 9.856 22 9.83023C22 9.80446 22 9.77874 22 9.75306C22 9.72739 22 9.70176 22 9.67619C22 9.65061 22 9.62508 22 9.5996C22 9.57412 22 9.54869 22 9.5233C22 9.49792 22 9.47259 22 9.4473C22 9.42202 22 9.39678 22 9.3716C22 9.34641 22 9.32127 22 9.29618C22 9.2711 22 9.24606 22 9.22107C22 9.19608 22 9.17114 22 9.14625C22 9.12136 22 9.09653 22 9.07174C22 9.04695 22 9.02221 22 8.99752C22 8.97284 22 8.9482 22 8.92361C22 8.89903 22 8.87449 22 8.85001C22 8.82552 22 8.80109 22 8.77671C22 8.75232 22 8.72799 22 8.70371C22 8.67944 22 8.65521 22 8.63103C22 8.60686 22 8.58273 22 8.55866C22 8.53459 22 8.51057 22 8.4866C22 8.46263 22 8.43872 22 8.41485C22 8.39099 22 8.36718 22 8.34342C22 8.31966 22 8.29596 22 8.27231C22 8.24865 22 8.22505 22 8.20151C22 8.17796 22 8.15447 22 8.13103C22 8.10759 22 8.08421 22 8.06087C22 8.03754 22 8.01426 22 7.99104C22 7.96781 22 7.94464 22 7.92153C22 7.89841 22 7.87535 22 7.85234C22 7.82934 22 7.80638 22 7.78349C22 7.76059 22 7.73774 22 7.71496C22 7.69217 22 7.66943 22 7.64676C22 7.62408 22 7.60146 22 7.57889C22 7.55632 22 7.53381 22 7.51135C22 7.4889 22 7.4665 22 7.44415C22 7.42181 22 7.39952 22 7.37729C22 7.35505 22 7.33288 22 7.31076C22 7.28864 22 7.26657 22 7.24457C22 7.22256 22 7.20061 22 7.17872C22 7.15683 22 7.13499 22 7.11321C22 7.09143 22 7.06971 22 7.04805C22 7.02638 22 7.00478 22 6.98323C22 6.96168 22 6.94019 22 6.91875C22 6.89732 22 6.87594 22 6.85463C22 6.83331 22 6.81205 22 6.79085C22 6.76965 22 6.74851 22 6.72742C22 6.70634 22 6.68532 22 6.66435C22 6.64338 22 6.62248 22 6.60163C22 6.58078 22 6.55999 22 6.53926C22 6.51854 22 6.49787 22 6.47726C22 6.45665 22 6.4361 22 6.41561C22 6.39511 22 6.37468 22 6.35431C22 6.33394 22 6.31363 22 6.29338C22 6.27313 22 6.25294 22 6.23282C22 6.21269 22 6.19262 22 6.17261C22 6.1526 22 6.13266 22 6.11277C22 6.09289 22 6.07306 22 6.0533C22 6.03354 22 6.01384 22 5.9942C22 5.97456 22 5.95498 22 5.93546C22 5.91595 22 5.89649 22 5.8771C22 5.85771 22 5.83838 22 5.81911C22 5.79985 22 5.78064 22 5.7615C22 5.74236 22 5.72328 22 5.70426C22 5.68524 22 5.66629 22 5.6474C22 5.62851 22 5.60968 22 5.59091C22 5.57215 22 5.55345 22 5.53481C22 5.51617 22 5.4976 22 5.47909C22 5.46058 22 5.44213 22 5.42375C22 5.40537 22 5.38705 22 5.3688C22 5.35054 22 5.33236 22 5.31423C22 5.29611 22 5.27805 22 5.26005C22 5.24206 22 5.22413 22 5.20626C22 5.1884 22 5.1706 22 5.15286C22 5.13513 22 5.11746 22 5.09985C22 5.08225 22 5.06471 22 5.04724C22 5.02977 22 5.01236 22 4.99502C22 4.97768 22 4.9604 22 4.9432C22 4.92599 22 4.90885 22 4.89177C22 4.8747 22 4.85769 22 4.84075C22 4.82381 22 4.80693 22 4.79012C22 4.77331 22 4.75657 22 4.7399C22 4.72323 22 4.70662 22 4.69008C22 4.67354 22 4.65707 22 4.64067C22 4.62427 22 4.60793 22 4.59167C22 4.5754 22 4.5592 22 4.54307C22 4.52694 22 4.51087 22 4.49488C22 4.47889 22 4.46296 22 4.4471C22 4.43125 22 4.41546 22 4.39974C22 4.38402 22 4.36837 22 4.35279C22 4.33721 22 4.3217 22 4.30626C22 4.29082 22 4.27545 22 4.26014C22 4.24484 22 4.22961 22 4.21445C22 4.19928 22 4.18419 22 4.16917C22 4.15415 22 4.1392 22 4.12432C22 4.10943 22 4.09462 22 4.07988C22 4.06514 22 4.05047 22 4.03588C22 4.02128 22 4.00675 22 3.99229C22 3.97784 22 3.96345 22 3.94914C22 3.93483 22 3.92059 22 3.90642C22 3.89225 22 3.87815 22 3.86412C22 3.8501 22 3.83614 22 3.82226C22 3.80838 22 3.79457 22 3.78083C22 3.7671 22 3.75343 22 3.73984C22 3.72625 22 3.71273 22 3.69928C22 3.68584 22 3.67247 22 3.65917C22 3.64587 22 3.63264 22 3.61949C22 3.60633 22 3.59325 22 3.58025C22 3.56724 22 3.55431 22 3.54145C22 3.52859 22 3.51581 22 3.5031C22 3.49039 22 3.47776 22 3.46519C22 3.45263 22 3.44015 22 3.42774C22 3.41532 22 3.40299 22 3.39072C22 3.37846 22 3.36628 22 3.35416C22 3.34205 22 3.33001 22 3.31805C22 3.30609 22 3.29421 22 3.2824C22 3.27059 22 3.25885 22 3.24719C22 3.23554 22 3.22395 22 3.21245C22 3.20094 22 3.18951 22 3.17816C22 3.1668 22 3.15553 22 3.14433C22 3.13313 22 3.122 22 3.11096C22 3.09991 22 3.08894 22 3.07805C22 3.06715 22 3.05634 22 3.0456C22 3.03486 22 3.0242 22 3.01362C22 3.00304 22 2.99253 22 2.9821C22 2.97168 22 2.96133 22 2.95106C22 2.94079 22 2.93059 22 2.92048C22 2.91036 22 2.90033 22 2.89037C22 2.88041 22 2.87053 22 2.86074C22 2.85094 22 2.84121 22 2.83157C22 2.82193 22 2.81237 22 2.80289C22 2.7934 22 2.784 22 2.77468C22 2.76535 22 2.75611 22 2.74694C22 2.73778 22 2.72869 22 2.71969C22 2.71069 22 2.70176 22 2.69292C22 2.68407 22 2.67531 22 2.66663C22 2.65795 22 2.64934 22 2.64082C22 2.6323 22 2.62386 22 2.6155C22 2.60714 22 2.59887 22 2.59067C22 2.58247 22 2.57436 22 2.56632C22 2.55829 22 2.55034 22 2.54247C22 2.5346 22 2.52681 22 2.5191C22 2.5114 22 2.50378 22 2.49623C22 2.48869 22 2.48123 22 2.47386C22 2.46648 22 2.45919 22 2.45198C22 2.44477 22 2.43764 22 2.43059C22 2.42355 22 2.41659 22 2.40971C22 2.40283 22 2.39603 22 2.38932C22 2.38261 22 2.37598 22 2.36944C22 2.3629 22 2.35644 22 2.35006C22 2.34368 22 2.33739 22 2.33118C22 2.32498 22 2.31885 22 2.31282C22 2.30678 22 2.30082 22 2.29495C22 2.28908 22 2.2833 22 2.2776C22 2.2719 22 2.26629 22 2.26076C22 2.25523 22 2.24979 22 2.24443C22 2.23907 22 2.2338 22 2.22861C22 2.22343 22 2.21833 22 2.21331C22 2.2083 22 2.20337 22 2.19853C22 2.19369 22 2.18893 22 2.18426C22 2.17959 22 2.17501 22 2.17051C22 2.16602 22 2.16161 22 2.15729C22 2.15297 22 2.14873 22 2.14458C22 2.14044 22 2.13638 22 2.13241C22 2.12843 22 2.12455 22 2.12075C22 2.11695 22 2.11324 22 2.10962C22 2.106 22 2.10247 22 2.09902C22 2.09558 22 2.09222 22 2.08895C22 2.08569 22 2.08251 22 2.07942C22 2.07633 22 2.07332 22 2.07041C22 2.0675 22 2.06468 22 2.06194C22 2.05921 22 2.05656 22 2.05401C22 2.05145 22 2.04898 22 2.04661C22 2.04423 22 2.04195 22 2.03975C22 2.03755 22 2.03545 22 2.03343C22 2.03141 22 2.02949 22 2.02765C22 2.02582 22 2.02407 22 2.02242C22 2.02076 22 2.0192 22 2.01773C22 2.01626 22 2.01488 22 2.01359C22 2.0123 22 2.0111 22 2.00999C22 2.00888 22 2.00787 22 2.00694C22 2.00602 22 2.00519 22 2.00445C22 2.00371 22 2.00306 22 2.0025C22 2.00195 22 2.00149 22 2.00111C22 2.00074 22 2.00046 22 2.00028C22 2.00009 22 2 20 2Z" fill="white"/>
</svg>
