<?xml version="1.0" encoding="UTF-8" standalone="no"?>
<svg
   width="22.000004"
   height="44"
   viewBox="0 0 22.000004 44"
   fill="none"
   version="1.1"
   id="svg6"
   sodipodi:docname="ControlButton_Pause.svg"
   inkscape:version="1.2.1 (9c6d41e410, 2022-07-14)"
   xmlns:inkscape="http://www.inkscape.org/namespaces/inkscape"
   xmlns:sodipodi="http://sodipodi.sourceforge.net/DTD/sodipodi-0.dtd"
   xmlns="http://www.w3.org/2000/svg"
   xmlns:svg="http://www.w3.org/2000/svg">
  <defs
     id="defs10" />
  <sodipodi:namedview
     id="namedview8"
     pagecolor="#ffffff"
     bordercolor="#000000"
     borderopacity="0.25"
     inkscape:showpageshadow="2"
     inkscape:pageopacity="0.0"
     inkscape:pagecheckerboard="0"
     inkscape:deskcolor="#d1d1d1"
     showgrid="false"
     inkscape:zoom="13.017193"
     inkscape:cx="-7.5669155"
     inkscape:cy="13.174883"
     inkscape:window-width="1920"
     inkscape:window-height="997"
     inkscape:window-x="-9"
     inkscape:window-y="45"
     inkscape:window-maximized="1"
     inkscape:current-layer="svg6" />
  <path
     d="m 4.0000027,2 c 0,-1.104569 -0.89543,-1.999999968850098 -2,-2 C 0.89543371,-3.1149898e-8 2.7849475e-6,0.89543 2.71011e-6,2 Z M 0,42 c -7.482999e-8,1.1046 0.89543071,2 2.0000027,2 1.10457,0 2,-0.8954 2,-2 z M 2.0000027,2 C 2.71011e-6,2 2.71011e-6,2.00009 2.71011e-6,2.00028 c 0,1.8e-4 0,4.6e-4 0,8.3e-4 0,3.7e-4 0,8.4e-4 0,0.00139 0,5.6e-4 0,0.00121 0,0.00195 0,7.4e-4 0,0.00157 0,0.00249 0,9.3e-4 0,0.00194 0,0.00305 0,0.00111 0,0.00231 0,0.0036 0,0.00129 0,0.00267 0,0.00414 0,0.00147 0,0.00303 0,0.00469 0,0.00165 0,0.0034 0,0.00523 0,0.00184 0,0.00376 0,0.00578 0,0.00202 0,0.00412 0,0.00632 0,0.0022 0,0.00448 0,0.00686 0,0.00237 0,0.00484 0,0.0074 0,0.00255 0,0.0052 0,0.00793 0,0.00274 0,0.00556 0,0.00847 0,0.00291 0,0.00592 0,0.00901 0,0.00309 0,0.00627 0,0.00953 0,0.00327 0,0.00663 0,0.01007 0,0.00345 0,0.00698 0,0.0106 0,0.00362 0,0.00733 0,0.01113 0,0.0038 0,0.00768 0,0.01166 0,0.00397 0,0.00803 0,0.01217 -1.0077e-8,0.00415 -1.03639e-8,0.00839 -1.06567e-8,0.01271 -2.928e-10,0.00432 -5.915e-10,0.00873 -8.961e-10,0.01322 -3.046e-10,0.0045 -6.151e-10,0.00908 -9.314e-10,0.01375 -3.164e-10,0.00467 -6.386e-10,0.00943 -9.666e-10,0.01427 -3.281e-10,0.00484 -6.62e-10,0.00977 -1.0017e-9,0.01478 -3.398e-10,0.00502 -6.853e-10,0.01012 -1.0367e-9,0.0153 -3.514e-10,0.00519 -7.086e-10,0.01046 -1.0716e-9,0.01582 -3.63e-10,0.00536 -7.318e-10,0.0108 -1.1064e-9,0.01633 -3.746e-10,0.00553 -7.549e-10,0.01114 -1.141e-9,0.01684 -3.862e-10,0.0057 -7.781e-10,0.01148 -1.1757e-9,0.01735 -3.977e-10,0.00587 -8.01e-10,0.01183 -1.2102e-9,0.01787 -4.091e-10,0.00603 -8.24e-10,0.01216 -1.2445e-9,0.01836 -4.206e-10,0.00621 -8.469e-10,0.0125 -1.2789e-9,0.01888 -4.32e-10,0.00638 -8.696e-10,0.01284 -1.313e-9,0.01938 -4.434e-10,0.00654 -8.924e-10,0.01317 -1.3471e-9,0.01988 -4.548e-10,0.00671 -9.151e-10,0.01351 -1.3812e-9,0.02039 -4.66e-10,0.00688 -9.377e-10,0.01384 -1.415e-9,0.02088 -4.773e-10,0.00705 -9.602e-10,0.01418 -1.4488e-9,0.02139 -4.885e-10,0.00721 -9.827e-10,0.0145 -1.4825e-9,0.02188 -4.997e-10,0.00737 -1.0051e-9,0.01483 -1.5161e-9,0.02237 -5.109e-10,0.00755 -1.0274e-9,0.01517 -1.5495e-9,0.02287 -5.221e-10,0.00771 -1.0498e-9,0.0155 -1.583e-9,0.02337 -5.332e-10,0.00787 -1.072e-9,0.01582 -1.6162e-9,0.02385 -5.443e-10,0.00804 -1.0941e-9,0.01615 -1.6495e-9,0.02435 -5.553e-10,0.0082 -1.1162e-9,0.01647 -1.6825e-9,0.02483 -5.664e-10,0.00836 -1.1382e-9,0.0168 -1.7155e-9,0.02532 -5.774e-10,0.00852 -1.1602e-9,0.01713 -1.7484e-9,0.02581 -5.883e-10,0.00868 -1.182e-9,0.01744 -1.7812e-9,0.02629 -5.992e-10,0.00884 -1.2038e-9,0.01777 -1.8139e-9,0.02677 -6.101e-10,0.009 -1.2256e-9,0.01809 -1.8465e-9,0.02725 -6.209e-10,0.00917 -1.2472e-9,0.01841 -1.8789e-9,0.02774 -6.317e-10,0.00932 -1.2689e-9,0.01872 -1.9114e-9,0.02821 -6.425e-10,0.00948 -1.2903e-9,0.01904 -1.9436e-9,0.02868 -6.532e-10,0.00964 -1.3118e-9,0.01937 -1.9758e-9,0.02917 -6.639e-10,0.00979 -1.3332e-9,0.01967 -2.0079e-9,0.02963 -6.746e-10,0.00996 -1.3546e-9,0.01999 -2.0399e-9,0.03011 -6.852e-10,0.01011 -1.3758e-9,0.02031 -2.0717e-9,0.03058 -6.959e-10,0.01027 -1.3971e-9,0.02062 -2.1036e-9,0.03104 -7.064e-10,0.01043 -1.4182e-9,0.02094 -2.1352e-9,0.03152 -7.17e-10,0.01058 -1.4393e-9,0.02124 -2.1668e-9,0.03198 -7.275e-10,0.01074 -1.4603e-9,0.02155 -2.1983e-9,0.03245 -7.38e-10,0.01089 -1.4812e-9,0.02186 -2.2297e-9,0.03291 -7.484e-10,0.01104 -1.5021e-9,0.02217 -2.2609e-9,0.03337 -7.589e-10,0.0112 -1.5229e-9,0.02247 -2.2922e-9,0.03383 -7.692e-10,0.01135 -1.5436e-9,0.02278 -2.3232e-9,0.03429 -7.795e-10,0.0115 -1.5643e-9,0.02308 -2.3542e-9,0.03474 -7.898e-10,0.01166 -1.5849e-9,0.0234 -2.385e-9,0.03521 -8.002e-10,0.01181 -1.6055e-9,0.02369 -2.4159e-9,0.03565 -8.104e-10,0.01196 -1.6259e-9,0.024 -2.4465e-9,0.03611 -8.207e-10,0.01211 -1.6464e-9,0.0243 -2.4772e-9,0.03656 -8.307e-10,0.01227 -1.6666e-9,0.0246 -2.5075e-9,0.03702 -8.41e-10,0.01241 -1.687e-9,0.02489 -2.538e-9,0.03745 -8.512e-10,0.01257 -1.7072e-9,0.0252 -2.5682e-9,0.03791 -8.61e-10,0.01271 -1.727e-9,0.02549 -2.599e-9,0.03835 -8.71e-10,0.01286 -1.747e-9,0.02579 -2.628e-9,0.0388 -8.81e-10,0.013 -1.767e-9,0.02608 -2.659e-9,0.03924 -8.91e-10,0.01315 -1.787e-9,0.02638 -2.688e-9,0.03968 -9.01e-10,0.0133 -1.807e-9,0.02667 -2.718e-9,0.04011 -9.11e-10,0.01345 -1.827e-9,0.02697 -2.748e-9,0.04056 -9.21e-10,0.01359 -1.846e-9,0.02726 -2.777e-9,0.04099 -9.31e-10,0.01374 -1.867e-9,0.02755 -2.807e-9,0.04143 -9.41e-10,0.01388 -1.886e-9,0.02784 -2.836e-9,0.04186 -9.51e-10,0.01403 -1.906e-9,0.02813 -2.866e-9,0.0423 -9.6e-10,0.01417 -1.925e-9,0.02841 -2.894e-9,0.04272 -9.7e-10,0.01431 -1.945e-9,0.0287 -2.924e-9,0.04315 -9.8e-10,0.01446 -1.964e-9,0.02899 -2.953e-9,0.04359 -9.89e-10,0.01459 -1.983e-9,0.02926 -2.982e-9,0.044 -9.98e-10,0.01474 -2.002e-9,0.02955 -3.01e-9,0.04443 -1.008e-9,0.01489 -2.021e-9,0.02984 -3.039e-9,0.04486 -1.018e-9,0.01502 -2.04e-9,0.03011 -3.068e-9,0.04528 -1.027e-9,0.01516 -2.059e-9,0.03039 -3.096e-9,0.04569 -1.037e-9,0.01531 -2.078e-9,0.03068 -3.124e-9,0.04612 -1.046e-9,0.01544 -2.097e-9,0.03095 -3.153e-9,0.04653 -1.056e-9,0.01558 -2.116e-9,0.03123 -3.181e-9,0.04695 -1.065e-9,0.01572 -2.135e-9,0.03151 -3.209e-9,0.04736 -1.074e-9,0.01586 -2.153e-9,0.03179 -3.237e-9,0.04778 -1.083e-9,0.01599 -2.172e-9,0.03206 -3.265e-9,0.04819 -1.092e-9,0.01613 -2.19e-9,0.03233 -3.292e-9,0.04859 -1.102e-9,0.01627 -2.209e-9,0.03261 -3.32e-9,0.04901 -1.112e-9,0.0164 -2.228e-9,0.03287 -3.348e-9,0.04941 -1.121e-9,0.01654 -2.246e-9,0.03315 -3.376e-9,0.04982 -1.129e-9,0.01667 -2.263e-9,0.03341 -3.402e-9,0.05022 -1.139e-9,0.01681 -2.282e-9,0.03369 -3.43e-9,0.05063 -1.148e-9,0.01694 -2.3e-9,0.03395 -3.457e-9,0.05102 -1.157e-9,0.01708 -2.318e-9,0.03422 -3.484e-9,0.05143 -1.166e-9,0.0172 -2.337e-9,0.03448 -3.511e-9,0.05182 -1.175e-9,0.01734 -2.355e-9,0.03475 -3.538e-9,0.05222 -1.184e-9,0.01747 -2.373e-9,0.03501 -3.565e-9,0.05261 -1.193e-9,0.01761 -2.39e-9,0.03528 -3.592e-9,0.05301 -1.201e-9,0.01774 -2.407e-9,0.03554 -3.618e-9,0.0534 -1.21e-9,0.01787 -2.425e-9,0.0358 -3.644e-9,0.05379 -1.219e-9,0.018 -2.443e-9,0.03606 -3.671e-9,0.05418 -1.228e-9,0.01812 -2.46e-9,0.03631 -3.697e-9,0.05457 -1.237e-9,0.01825 -2.478e-9,0.03657 -3.723e-9,0.05495 -1.246e-9,0.01838 -2.495e-9,0.03683 -3.75e-9,0.05534 -1.254e-9,0.01851 -2.512e-9,0.03708 -3.775e-9,0.05572 -1.263e-9,0.01864 -2.53e-9,0.03734 -3.801e-9,0.0561 -1.271e-9,0.01877 -2.547e-9,0.0376 -3.827e-9,0.05649 -1.28e-9,0.01889 -2.564e-9,0.03784 -3.852e-9,0.05686 -1.289e-9,0.01902 -2.581e-9,0.0381 -3.878e-9,0.05724 -1.297e-9,0.01914 -2.599e-9,0.03835 -3.904e-9,0.05761 -1.305e-9,0.01927 -2.615e-9,0.0386 -3.929e-9,0.05799 -1.314e-9,0.01939 -2.632e-9,0.03885 -3.954e-9,0.05836 -1.322e-9,0.01952 -2.649e-9,0.0391 -3.979e-9,0.05874 -1.331e-9,0.01964 -2.666e-9,0.03934 -4.005e-9,0.0591 -1.339e-9,0.01976 -2.682e-9,0.03959 -4.029e-9,0.05947 -1.348e-9,0.01989 -2.699e-9,0.03983 -4.054e-9,0.05984 -1.356e-9,0.02001 -2.716e-9,0.04008 -4.079e-9,0.06021 -1.364e-9,0.02012 -2.732e-9,0.04031 -4.104e-9,0.06056 -1.372e-9,0.02025 -2.748e-9,0.04056 -4.128e-9,0.06093 -1.38e-9,0.02037 -2.765e-9,0.0408 -4.153e-9,0.0613 -1.388e-9,0.02049 -2.781e-9,0.04104 -4.177e-9,0.06165 -1.396e-9,0.02061 -2.797e-9,0.04128 -4.201e-9,0.062 -1.405e-9,0.02073 -2.813e-9,0.04152 -4.226e-9,0.06237 -1.412e-9,0.02085 -2.829e-9,0.04175 -4.249e-9,0.06272 -1.421e-9,0.02097 -2.845e-9,0.04199 -4.274e-9,0.06307 -1.428e-9,0.02109 -2.86e-9,0.04223 -4.297e-9,0.06343 -1.436e-9,0.0212 -2.877e-9,0.04246 -4.321e-9,0.06378 -1.444e-9,0.02131 -2.892e-9,0.04269 -4.345e-9,0.06412 -1.452e-9,0.02144 -2.908e-9,0.04293 -4.368e-9,0.06448 -1.46e-9,0.02155 -2.924e-9,0.04315 -4.392e-9,0.06482 -1.467e-9,0.02166 -2.939e-9,0.04338 -4.415e-9,0.06516 -1.475e-9,0.02178 -2.955e-9,0.04362 -4.438e-9,0.06551 -1.483e-9,0.02189 -2.97e-9,0.04384 -4.461e-9,0.06585 -1.491e-9,0.022 -2.986e-9,0.04407 -4.485e-9,0.06619 -1.499e-9,0.02212 -3.001e-9,0.04429 -4.507e-9,0.06653 -1.507e-9,0.02223 -3.017e-9,0.04452 -4.531e-9,0.06686 -1.514e-9,0.02235 -3.031e-9,0.04475 -4.553e-9,0.0672 -1.521e-9,0.02246 -3.046e-9,0.04497 -4.575e-9,0.06754 -1.529e-9,0.02257 -3.062e-9,0.04519 -4.599e-9,0.06787 -1.536e-9,0.02267 -3.076e-9,0.04541 -4.62e-9,0.0682 -1.544e-9,0.02278 -3.092e-9,0.04563 -4.644e-9,0.06853 -1.551e-9,0.02289 -3.106e-9,0.04585 -4.665e-9,0.06885 -1.559e-9,0.02301 -3.121e-9,0.04607 -4.687e-9,0.06919 -1.566e-9,0.02311 -3.136e-9,0.04628 -4.71e-9,0.06951 -1.573e-9,0.02322 -3.15e-9,0.0465 -4.731e-9,0.06983 -1.581e-9,0.02334 -3.165e-9,0.04672 -4.754e-9,0.07016 -1.588e-9,0.02344 -3.179e-9,0.04693 -4.775e-9,0.07048 -1.595e-9,0.02354 -3.194e-9,0.04714 -4.796e-9,0.07079 -1.603e-9,0.02366 -3.209e-9,0.04736 -4.819e-9,0.07112 -1.609e-9,0.02376 -3.222e-9,0.04757 -4.839e-9,0.07143 -1.617e-9,0.02386 -3.237e-9,0.04778 -4.861e-9,0.07175 -1.624e-9,0.02397 -3.252e-9,0.04799 -4.883e-9,0.07206 -1.63e-9,0.02407 -3.265e-9,0.0482 -4.903e-9,0.07237 -1.638e-9,0.02418 -3.279e-9,0.04841 -4.924e-9,0.07268 -1.645e-9,0.02428 -3.294e-9,0.04861 -4.946e-9,0.073 -1.652e-9,0.02438 -3.307e-9,0.04881 -4.966e-9,0.0733 -1.659e-9,0.02448 -3.321e-9,0.04902 -4.987e-9,0.0736 -1.666e-9,0.02459 -3.335e-9,0.04923 -5.008e-9,0.07391 -1.672e-9,0.02469 -3.348e-9,0.04943 -5.028e-9,0.07422 -1.679e-9,0.02479 -3.362e-9,0.04962 -5.049e-9,0.07451 -1.686e-9,0.02489 -3.376e-9,0.04983 -5.069e-9,0.07482 -1.693e-9,0.02499 -3.389e-9,0.05003 -5.089e-9,0.07511 -1.7e-9,0.02509 -3.403e-9,0.05023 -5.109e-9,0.07542 -1.707e-9,0.02518 -3.416e-9,0.05042 -5.13e-9,0.0757 -1.713e-9,0.02529 -3.429e-9,0.05062 -5.149e-9,0.076 -1.72e-9,0.02539 -3.443e-9,0.05082 -5.169e-9,0.0763 -1.726e-9,0.02548 -3.456e-9,0.05101 -5.189e-9,0.07659 -1.733e-9,0.02557 -3.469e-9,0.0512 -5.208e-9,0.07687 -1.74e-9,0.02568 -3.483e-9,0.0514 -5.229e-9,0.07717 -1.746e-9,0.02577 -3.495e-9,0.05158 -5.247e-9,0.07745 -1.753e-9,0.02586 -3.508e-9,0.05177 -5.267e-9,0.07773 -1.759e-9,0.02599 -3.521e-9,0.05199 -5.286e-9,0.07799 -1.765e-9,0.0261 -3.534e-9,0.0522 -5.305e-9,0.0783 -1.772e-9,0.0262 -3.547e-9,0.0524 -5.325e-9,0.0786 -1.778e-9,0.0263 -3.559e-9,0.0526 -5.343e-9,0.0789 -1.784e-9,0.0263 -3.571e-9,0.0527 -5.362e-9,0.0791 -1.79e-9,0.0265 -3.584e-9,0.0529 -5.381e-9,0.0794 -1.796e-9,0.0266 -3.596e-9,0.0531 -5.399e-9,0.0797 -1.803e-9,0.0266 -3.609e-9,0.0533 -5.418e-9,0.08 -1.809e-9,0.0267 -3.621e-9,0.0535 -5.437e-9,0.0802 -1.815e-9,0.0268 -3.633e-9,0.0537 -5.454e-9,0.0806 -1.822e-9,0.0268 -3.646e-9,0.0538 -5.473e-9,0.0807 -1.828e-9,0.027 -3.658e-9,0.054 -5.491e-9,0.0811 -1.834e-9,0.027 -3.67e-9,0.0541 -5.509e-9,0.0813 -1.84e-9,0.0271 -3.682e-9,0.0543 -5.528e-9,0.0816 -1.845e-9,0.0272 -3.693e-9,0.0545 -5.544e-9,0.0818 -1.852e-9,0.0273 -3.706e-9,0.0547 -5.563e-9,0.0821 -1.857e-9,0.0274 -3.717e-9,0.0549 -5.58e-9,0.0824 -1.863e-9,0.0275 -3.729e-9,0.055 -5.598e-9,0.0826 -1.869e-9,0.0276 -3.741e-9,0.0552 -5.615e-9,0.0829 -1.875e-9,0.0276 -3.753e-9,0.0554 -5.633e-9,0.0831 -1.88e-9,0.0278 -3.764e-9,0.0556 -5.65e-9,0.0834 -1.886e-9,0.0278 -3.775e-9,0.0557 -5.667e-9,0.0836 -1.891e-9,0.028 -3.786e-9,0.0559 -5.684e-9,0.0839 -1.897e-9,0.028 -3.797e-9,0.0561 -5.7e-9,0.0842 -1.904e-9,0.0281 -3.809e-9,0.0562 -5.718e-9,0.0844 -1.909e-9,0.0281 -3.82e-9,0.0563 -5.735e-9,0.0846 -1.914e-9,0.0283 -3.831e-9,0.0565 -5.751e-9,0.0849 -1.919e-9,0.0283 -3.842e-9,0.0567 -5.767e-9,0.0851 -1.926e-9,0.0284 -3.854e-9,0.0569 -5.784e-9,0.0854 -1.931e-9,0.0285 -3.864e-9,0.057 -5.801e-9,0.0856 -1.936e-9,0.0286 -3.875e-9,0.0572 -5.816e-9,0.0858 -1.942e-9,0.0287 -3.886e-9,0.0574 -5.833e-9,0.0861 -1.947e-9,0.0288 -3.896e-9,0.0575 -5.849e-9,0.0864 -1.952e-9,0.0288 -3.907e-9,0.0576 -5.864e-9,0.0865 -1.958e-9,0.0289 -3.918e-9,0.0578 -5.881e-9,0.0868 -1.963e-9,0.029 -3.928e-9,0.058 -5.896e-9,0.087 -1.968e-9,0.0291 -3.939e-9,0.0582 -5.912e-9,0.0873 -1.973e-9,0.0291 -3.949e-9,0.0583 -5.927e-9,0.0875 -1.979e-9,0.0292 -3.959e-9,0.0584 -5.943e-9,0.0877 -1.983e-9,0.0293 -3.969e-9,0.0586 -5.958e-9,0.0879 -1.989e-9,0.0294 -3.98e-9,0.0588 -5.973e-9,0.0882 -1.994e-9,0.0294 -3.99e-9,0.0589 -5.989e-9,0.0884 -1.998e-9,0.0295 -4e-9,0.059 -6.003e-9,0.0886 -2.004e-9,0.0296 -4.01e-9,0.0592 -6.019e-9,0.0888 -2.008e-9,0.0297 -4.019e-9,0.0593 -6.033e-9,0.0891 -2.013e-9,0.0297 -4.029e-9,0.0594 -6.048e-9,0.0892 -2.018e-9,0.0298 -4.039e-9,0.0596 -6.062e-9,0.0895 -2.024e-9,0.0299 -4.049e-9,0.0598 -6.078e-9,0.0897 -2.028e-9,0.0299 -4.058e-9,0.0599 -6.091e-9,0.0899 -2.033e-9,0.03 -4.068e-9,0.0601 -6.106e-9,0.0901 -2.037e-9,0.0301 -4.077e-9,0.0602 -6.12e-9,0.0904 -2.042e-9,0.0301 -4.087e-9,0.0603 -6.134e-9,0.0905 -2.047e-9,0.0302 -4.096e-9,0.0605 -6.148e-9,0.0907 -2.052e-9,0.0303 -4.106e-9,0.0606 -6.162e-9,0.091 -2.057e-9,0.0303 -4.115e-9,0.0607 -6.176e-9,0.0911 -2.061e-9,0.0305 -4.124e-9,0.0609 -6.19e-9,0.0914 -2.065e-9,0.0305 -4.133e-9,0.061 -6.203e-9,0.0916 -2.07e-9,0.0305 -4.142e-9,0.0611 -6.217e-9,0.0917 -2.074e-9,0.0306 -4.151e-9,0.0613 -6.23e-9,0.092 -2.079e-9,0.0307 -4.16e-9,0.0614 -6.244e-9,0.0921 -2.083e-9,0.0308 -4.169e-9,0.0616 -6.256e-9,0.0924 -2.088e-9,0.0308 -4.178e-9,0.0616 -6.27e-9,0.0925 -2.092e-9,0.0309 -4.186e-9,0.0618 -6.283e-9,0.0927 -2.096e-9,0.031 -4.195e-9,0.062 -6.296e-9,0.093 -2.1e-9,0.031 -4.203e-9,0.062 -6.308e-9,0.0931 -2.105e-9,0.031 -4.212e-9,0.0621 -6.322e-9,0.0933 -2.109e-9,0.0311 -4.22e-9,0.0623 -6.333e-9,0.0935 -2.114e-9,0.0312 -4.229e-9,0.0624 -6.347e-9,0.0936 -2.117e-9,0.0313 -4.237e-9,0.0626 -6.359e-9,0.0939 -2.121e-9,0.0313 -4.245e-9,0.0626 -6.371e-9,0.094 -2.126e-9,0.0314 -4.253e-9,0.0628 -6.383e-9,0.0942 -2.13e-9,0.0315 -4.262e-9,0.0629 -6.396e-9,0.0944 -2.133e-9,0.0315 -4.269e-9,0.063 -6.407e-9,0.0946 -2.138e-9,0.0316 -4.278e-9,0.0631 -6.42e-9,0.0947 -2.141e-9,0.0317 -4.285e-9,0.0633 -6.431e-9,0.095 -2.145e-9,0.0316 -4.293e-9,0.0633 -6.443e-9,0.0951 -2.149e-9,0.0317 -4.301e-9,0.0634 -6.454e-9,0.0952 -2.154e-9,0.0318 -4.312e-9,0.0636 -6.462e-9,0.0955 -2.16e-9,0.0318 -4.32e-9,0.0637 -6.48e-9,0.0956 -2.16e-9,0.0319 -4.33e-9,0.0638 -6.49e-9,0.0957 -2.17e-9,0.032 -4.33e-9,0.064 -6.5e-9,0.096 -2.17e-9,0.032 -4.34e-9,0.064 -6.51e-9,0.0961 -2.17e-9,0.032 -4.35e-9,0.0641 -6.52e-9,0.0962 -2.18e-9,0.0322 -4.36e-9,0.0643 -6.54e-9,0.0965 -2.18e-9,0.0321 -4.36e-9,0.0643 -6.54e-9,0.0966 -2.18e-9,0.0322 -4.37e-9,0.0644 -6.55e-9,0.0967 -2.19e-9,0.0323 -4.38e-9,0.0646 -6.57e-9,0.0969 -2.19e-9,0.0323 -4.38e-9,0.0647 -6.58e-9,0.097 -2.19e-9,0.0324 -4.38e-9,0.0648 -6.58e-9,0.0973 -2.2e-9,0.0324 -4.4e-9,0.0648 -6.6e-9,0.0973 -2.2e-9,0.0325 -4.4e-9,0.065 -6.6e-9,0.0975 -2.21e-9,0.0325 -4.41e-9,0.0651 -6.62e-9,0.0977 -2.21e-9,0.0326 -4.42e-9,0.0652 -6.63e-9,0.0978 -2.21e-9,0.0326 -4.42e-9,0.0653 -6.63e-9,0.0979 -2.22e-9,0.0327 -4.43e-9,0.0654 -6.65e-9,0.0981 -2.22e-9,0.0328 -4.44e-9,0.0655 -6.66e-9,0.0983 -2.22e-9,0.0327 -4.44e-9,0.0655 -6.66e-9,0.0984 -2.23e-9,0.0328 -4.45e-9,0.0656 -6.68e-9,0.0985 -2.22e-9,0.0328 -4.45e-9,0.0657 -6.68e-9,0.0986 -2.23e-9,0.0329 -4.46e-9,0.0659 -6.7e-9,0.0988 -2.23e-9,0.033 -4.46e-9,0.066 -6.7e-9,0.099 -2.23e-9,0.033 -4.47e-9,0.066 -6.71e-9,0.099 -2.24e-9,0.0331 -4.48e-9,0.0662 -6.72e-9,0.0992 -2.24e-9,0.0331 -4.49e-9,0.0662 -6.73e-9,0.0994 -2.25e-9,0.0331 -4.49e-9,0.0663 -6.74e-9,0.0994 -2.25e-9,0.0332 -4.5e-9,0.0664 -6.75e-9,0.0996 -2.25e-9,0.0332 -4.5e-9,0.0665 -6.75e-9,0.0997 -2.26e-9,0.0333 -4.51e-9,0.0666 -6.77e-9,0.0999 -2.26e-9,0.0333 -4.51e-9,0.0666 -6.77e-9,0.1 -2.26e-9,0.0333 -4.52e-9,0.0667 -6.78e-9,0.1 -2.27e-9,0.0334 -4.53e-9,0.0668 -6.79e-9,0.1003 -2.27e-9,0.0334 -4.53e-9,0.0668 -6.8e-9,0.1003 -2.27e-9,0.0335 -4.54e-9,0.0669 -6.81e-9,0.1004 -2.27e-9,0.0335 -4.54e-9,0.0671 -6.81e-9,0.1006 -2.27e-9,0.0335 -4.55e-9,0.0671 -6.82e-9,0.1007 -2.28e-9,0.0336 -4.55e-9,0.0672 -6.83e-9,0.1008 -2.28e-9,0.0336 -4.56e-9,0.0672 -6.84e-9,0.1009 -2.28e-9,0.0336 -4.56e-9,0.0673 -6.84e-9,0.101 -2.28e-9,0.0337 -4.57e-9,0.0674 -6.85e-9,0.1011 -2.29e-9,0.0337 -4.57e-9,0.0675 -6.86e-9,0.1013 -2.29e-9,0.0337 -4.58e-9,0.0675 -6.87e-9,0.1013 -2.29e-9,0.0338 -4.58e-9,0.0676 -6.87e-9,0.1014 -2.29e-9,0.0339 -4.59e-9,0.0677 -6.88e-9,0.1016 -2.3e-9,0.0339 -4.59e-9,0.0677 -6.89e-9,0.1016 -2.29e-9,0.0339 -4.59e-9,0.0679 -6.89e-9,0.1018 -2.3e-9,0.0339 -4.6e-9,0.0679 -6.9e-9,0.1018 -2.3e-9,0.034 -4.61e-9,0.068 -6.91e-9,0.102 -2.3e-9,0.034 -4.61e-9,0.068 -6.91e-9,0.102 -2.31e-9,0.034 -4.61e-9,0.0681 -6.92e-9,0.1022 -2.31e-9,0.034 -4.62e-9,0.0681 -6.93e-9,0.1022 -2.31e-9,0.0341 -4.62e-9,0.0682 -6.93e-9,0.1023 -2.31e-9,0.0341 -4.63e-9,0.0683 -6.94e-9,0.1024 -2.31e-9,0.0342 -4.63e-9,0.0683 -6.94e-9,0.1025 -2.32e-9,0.0342 -4.64e-9,0.0684 -6.95e-9,0.1026 -2.32e-9,0.0342 -4.64e-9,0.0684 -6.96e-9,0.1027 -2.32e-9,0.0342 -4.64e-9,0.0685 -6.96e-9,0.1027 -2.32e-9,0.0343 -4.65e-9,0.0686 -6.97e-9,0.1029 -2.32e-9,0.0342 -4.65e-9,0.0686 -6.97e-9,0.1029 -2.33e-9,0.0343 -4.65e-9,0.0686 -6.98e-9,0.103 -2.33e-9,0.0343 -4.66e-9,0.0687 -6.99e-9,0.103 -2.32e-9,0.0344 -4.65e-9,0.0688 -6.98e-9,0.1032 -2.33e-9,0.0344 -4.67e-9,0.0688 -7e-9,0.1032 -2.33e-9,0.0344 -4.66e-9,0.0689 -7e-9,0.1033 -2.33e-9,0.0345 -4.67e-9,0.0689 -7e-9,0.1034 -2.34e-9,0.0345 -4.67e-9,0.069 -7.01e-9,0.1034 -2.34e-9,0.0345 -4.67e-9,0.069 -7.01e-9,0.1036 -2.34e-9,0.0345 -4.68e-9,0.069 -7.02e-9,0.1035 -2.34e-9,0.0346 -4.68e-9,0.0691 -7.02e-9,0.1037 -2.34e-9,0.0345 -4.69e-9,0.0691 -7.03e-9,0.1037 -2.34e-9,0.0346 -4.69e-9,0.0692 -7.03e-9,0.1038 -2.34e-9,0.0346 -4.69e-9,0.0692 -7.04e-9,0.1038 -2.34e-9,0.0346 -4.69e-9,0.0693 -7.03e-9,0.1039 -2.35e-9,0.0346 -4.7e-9,0.0693 -7.05e-9,0.104 -2.35e-9,0.0346 -4.7e-9,0.0693 -7.05e-9,0.104 -2.34e-9,0.0346 -4.69e-9,0.0693 -7.05e-9,0.104 -2.35e-9,0.0347 -4.7e-9,0.0694 -7.05e-9,0.1042 -2.35e-9,0.0347 -4.71e-9,0.0694 -7.06e-9,0.1041 -2.35e-9,0.0348 -4.71e-9,0.0695 -7.06e-9,0.1043 -2.35e-9,0.0347 -4.71e-9,0.0695 -7.07e-9,0.1042 -2.35e-9,0.0348 -4.71e-9,0.0696 -7.06e-9,0.1044 -2.36e-9,0.0347 -4.72e-9,0.0695 -7.07e-9,0.1043 -2.36e-9,0.0348 -4.72e-9,0.0696 -7.08e-9,0.1044 -2.36e-9,0.0349 -4.72e-9,0.0697 -7.08e-9,0.1045 -2.36e-9,0.0348 -4.72e-9,0.0697 -7.08e-9,0.1045 -2.36e-9,0.0349 -4.72e-9,0.0697 -7.08e-9,0.1046 -2.36e-9,0.0348 -4.72e-9,0.0697 -7.09e-9,0.1045 -2.36e-9,0.0349 -4.72e-9,0.0698 -7.09e-9,0.1047 -2.36e-9,0.0348 -4.72e-9,0.0697 -7.09e-9,0.1046 -2.36e-9,0.0349 -4.72e-9,0.0698 -7.09e-9,0.1047 -2.36e-9,0.0349 -4.73e-9,0.0698 -7.09e-9,0.1047 -2.37e-9,0.035 -4.74e-9,0.0699 -7.1e-9,0.1048 -2.37e-9,0.0349 -4.74e-9,0.0699 -7.1e-9,0.1048 -2.37e-9,0.0349 -4.74e-9,0.0699 -7.1e-9,0.1048 -2.37e-9,0.035 -4.74e-9,0.0699 -7.11e-9,0.1049 -2.37e-9,0.0349 -4.73e-9,0.0699 -7.1e-9,0.1048 -2.37e-9,0.035 -4.74e-9,0.07 -7.11e-9,0.1049 -2.37e-9,0.035 -4.74e-9,0.07 -7.11e-9,0.105 -2.37e-9,0.0349 -4.74e-9,0.0699 -7.11e-9,0.1049 -2.37e-9,0.035 -4.74e-9,0.07 -7.11e-9,0.105 -2.37e-9,0.035 -4.74e-9,0.0699 -7.11e-9,0.1049 -2.37e-9,0.035 -4.75e-9,0.07 -7.12e-9,0.105 -2.37e-9,0.035 -4.74e-9,0.0701 -7.11e-9,0.1051 -2.37e-9,0.035 -4.75e-9,0.07 -7.12e-9,0.105 -2.37e-9,0.035 -4.74e-9,0.07 -7.12e-9,0.105 -2.37e-9,0.035 -4.74e-9,0.0701 -7.11e-9,0.1051 -2.38e-9,0.035 -4.75e-9,0.07 -7.12e-9,0.105 -2.37e-9,0.0351 -4.75e-9,0.0701 -7.12e-9,0.1051 -2.37e-9,0.035 -4.75e-9,0.0701 -7.12e-9,0.1051 -2.37e-9,0.035 -4.75e-9,0.0701 -7.12e-9,0.1051 -2.37e-9,0.035 -4.75e-9,0.07 -7.12e-9,0.1051 -2.37e-9,0.035 -4.75e-9,0.07 -7.12e-9,0.1051 -2.37e-9,0.035 -4.75e-9,0.07 -7.12e-9,0.1051 -2.37e-9,0.035 -4.75e-9,0.07 -7.12e-9,0.105 -2.37e-9,0.0351 -4.75e-9,0.0701 -7.12e-9,0.1051 -2.37e-9,0.0351 -4.75e-9,0.0701 -7.12e-9,0.1051 -2.37e-9,0.0351 -4.75e-9,0.0701 -7.12e-9,0.1051 -2.37e-9,0.035 -4.75e-9,0.0701 -7.12e-9,0.1051 -2.37e-9,0.035 -4.74e-9,0.07 -7.12e-9,0.105 -2.37e-9,0.0351 -4.74e-9,0.0701 -7.12e-9,0.1051 -2.37e-9,0.035 -4.74e-9,0.07 -7.11e-9,0.105 -2.37e-9,0.0351 -4.75e-9,0.0701 -7.12e-9,0.1051 -2.37e-9,0.035 -4.74e-9,0.07 -7.11e-9,0.105 -2.38e-9,0.035 -4.75e-9,0.07 -7.12e-9,0.105 -2.37e-9,0.035 -4.74e-9,0.07 -7.11e-9,0.105 -2.37e-9,0.035 -4.74e-9,0.07 -7.11e-9,0.105 -2.37e-9,0.035 -4.74e-9,0.0699 -7.11e-9,0.1049 -2.37e-9,0.035 -4.74e-9,0.07 -7.11e-9,0.1049 -2.37e-9,0.035 -4.74e-9,0.07 -7.11e-9,0.105 -2.37e-9,0.0349 -4.74e-9,0.0699 -7.11e-9,0.1048 -2.37e-9,0.035 -4.73e-9,0.0699 -7.1e-9,0.1049 -2.37e-9,0.0349 -4.74e-9,0.0699 -7.1e-9,0.1048 -2.37e-9,0.035 -4.74e-9,0.0699 -7.11e-9,0.1048 -2.36e-9,0.035 -4.73e-9,0.0699 -7.09e-9,0.1048 -2.37e-9,0.0349 -4.73e-9,0.0698 -7.1e-9,0.1047 -2.37e-9,0.0349 -4.73e-9,0.0698 -7.09e-9,0.1047 -2.37e-9,0.0349 -4.73e-9,0.0698 -7.1e-9,0.1047 -2.36e-9,0.0349 -4.72e-9,0.0698 -7.09e-9,0.1046 -2.36e-9,0.0349 -4.72e-9,0.0698 -7.08e-9,0.1046 -2.36e-9,0.0349 -4.73e-9,0.0698 -7.09e-9,0.1046 -2.36e-9,0.0349 -4.72e-9,0.0697 -7.08e-9,0.1045 -2.36e-9,0.0349 -4.72e-9,0.0697 -7.08e-9,0.1045 -2.36e-9,0.0348 -4.71e-9,0.0696 -7.07e-9,0.1044 -2.36e-9,0.0348 -4.72e-9,0.0696 -7.07e-9,0.1044 -2.36e-9,0.0348 -4.72e-9,0.0696 -7.07e-9,0.1044 -2.36e-9,0.0347 -4.72e-9,0.0695 -7.07e-9,0.1043 -2.35e-9,0.0347 -4.71e-9,0.0695 -7.06e-9,0.1042 -2.36e-9,0.0347 -4.71e-9,0.0695 -7.06e-9,0.1042 -2.35e-9,0.0347 -4.71e-9,0.0694 -7.06e-9,0.1041 -2.35e-9,0.0347 -4.7e-9,0.0694 -7.05e-9,0.1041 -2.35e-9,0.0347 -4.7e-9,0.0694 -7.05e-9,0.1041 -2.35e-9,0.0346 -4.7e-9,0.0693 -7.04e-9,0.1039 -2.35e-9,0.0347 -4.7e-9,0.0693 -7.04e-9,0.104 -2.35e-9,0.0346 -4.7e-9,0.0692 -7.04e-9,0.1038 -2.35e-9,0.0346 -4.69e-9,0.0692 -7.03e-9,0.1038 -2.35e-9,0.0346 -4.69e-9,0.0692 -7.03e-9,0.1037 -2.34e-9,0.0346 -4.68e-9,0.0692 -7.03e-9,0.1037 -2.34e-9,0.0346 -4.68e-9,0.0691 -7.02e-9,0.1036 -2.33e-9,0.0345 -4.67e-9,0.0691 -7.01e-9,0.1036 -2.34e-9,0.0345 -4.67e-9,0.0689 -7.01e-9,0.1034 -2.34e-9,0.0345 -4.67e-9,0.069 -7.01e-9,0.1034 -2.33e-9,0.0345 -4.66e-9,0.0689 -7e-9,0.1033 -2.33e-9,0.0345 -4.66e-9,0.0689 -6.99e-9,0.1033 -2.33e-9,0.0344 -4.66e-9,0.0688 -6.99e-9,0.1032 -2.33e-9,0.0344 -4.66e-9,0.0687 -6.99e-9,0.1031 -2.33e-9,0.0343 -4.65e-9,0.0687 -6.98e-9,0.103 -2.32e-9,0.0343 -4.65e-9,0.0687 -6.97e-9,0.103 -2.33e-9,0.0343 -4.65e-9,0.0685 -6.97e-9,0.1028 -2.33e-9,0.0343 -4.65e-9,0.0686 -6.97e-9,0.1028 -2.32e-9,0.0343 -4.64e-9,0.0685 -6.95e-9,0.1027 -2.32e-9,0.0342 -4.64e-9,0.0684 -6.96e-9,0.1026 -2.31e-9,0.0342 -4.63e-9,0.0684 -6.94e-9,0.1025 -2.32e-9,0.0342 -4.63e-9,0.0684 -6.94e-9,0.1025 -2.32e-9,0.0341 -4.63e-9,0.0682 -6.94e-9,0.1023 -2.31e-9,0.0341 -4.62e-9,0.0682 -6.93e-9,0.1023 -2.31e-9,0.0341 -4.61e-9,0.0681 -6.92e-9,0.1022 -2.31e-9,0.034 -4.61e-9,0.068 -6.92e-9,0.102 -2.3e-9,0.0341 -4.6e-9,0.068 -6.91e-9,0.102 -2.3e-9,0.034 -4.6e-9,0.068 -6.9e-9,0.1019 -2.3e-9,0.034 -4.6e-9,0.0679 -6.89e-9,0.1018 -2.3e-9,0.0339 -4.6e-9,0.0678 -6.89e-9,0.1017 -2.3e-9,0.0339 -4.59e-9,0.0677 -6.89e-9,0.1016 -2.29e-9,0.0338 -4.58e-9,0.0676 -6.87e-9,0.1014 -2.29e-9,0.0339 -4.58e-9,0.0677 -6.87e-9,0.1014 -2.29e-9,0.0338 -4.58e-9,0.0676 -6.86e-9,0.1013 -2.29e-9,0.0337 -4.57e-9,0.0675 -6.86e-9,0.1012 -2.28e-9,0.0337 -4.56e-9,0.0673 -6.84e-9,0.101 -2.28e-9,0.0337 -4.56e-9,0.0673 -6.84e-9,0.101 -2.28e-9,0.0336 -4.56e-9,0.0672 -6.83e-9,0.1008 -2.28e-9,0.0336 -4.55e-9,0.0672 -6.83e-9,0.1007 -2.27e-9,0.0336 -4.54e-9,0.0671 -6.81e-9,0.1006 -2.28e-9,0.0335 -4.54e-9,0.067 -6.81e-9,0.1005 -2.27e-9,0.0335 -4.54e-9,0.0669 -6.8e-9,0.1004 -2.27e-9,0.0334 -4.53e-9,0.0668 -6.8e-9,0.1002 -2.26e-9,0.0334 -4.52e-9,0.0668 -6.78e-9,0.1002 -2.26e-9,0.0333 -4.52e-9,0.0667 -6.78e-9,0.1 -2.25e-9,0.0333 -4.51e-9,0.0666 -6.76e-9,0.0999 -2.26e-9,0.0332 -4.51e-9,0.0665 -6.76e-9,0.0997 -2.25e-9,0.0333 -4.51e-9,0.0665 -6.75e-9,0.0997 -2.25e-9,0.0332 -4.5e-9,0.0663 -6.75e-9,0.0995 -2.24e-9,0.0331 -4.49e-9,0.0663 -6.73e-9,0.0994 -2.24e-9,0.0331 -4.48e-9,0.0662 -6.72e-9,0.0992 -2.24e-9,0.0331 -4.48e-9,0.0661 -6.72e-9,0.0991 -2.24e-9,0.033 -4.47e-9,0.066 -6.71e-9,0.099 -2.23e-9,0.033 -4.46e-9,0.0659 -6.69e-9,0.0989 -2.23e-9,0.0329 -4.46e-9,0.0658 -6.69e-9,0.0987 -2.23e-9,0.0328 -4.45e-9,0.0657 -6.68e-9,0.0985 -2.22e-9,0.0329 -4.45e-9,0.0657 -6.67e-9,0.0985 -2.22e-9,0.0328 -4.44e-9,0.0655 -6.66e-9,0.0983 -2.22e-9,0.0327 -4.43e-9,0.0654 -6.65e-9,0.0981 -2.21e-9,0.0327 -4.43e-9,0.0654 -6.64e-9,0.098 -2.21e-9,0.0327 -4.42e-9,0.0653 -6.63e-9,0.0979 -2.21e-9,0.0326 -4.41e-9,0.0651 -6.62e-9,0.0977 -2.2e-9,0.0325 -4.41e-9,0.0651 -6.61e-9,0.0976 -2.2e-9,0.0324 -4.4e-9,0.0649 -6.6e-9,0.0974 -2.2e-9,0.0324 -4.39e-9,0.0648 -6.59e-9,0.0972 -2.19e-9,0.0324 -4.39e-9,0.0648 -6.58e-9,0.0971 -2.19e-9,0.0324 -4.38e-9,0.0647 -6.57e-9,0.097 -2.18e-9,0.0323 -4.37e-9,0.0645 -6.55e-9,0.0968 -2.19e-9,0.0322 -4.37e-9,0.0644 -6.55e-9,0.0966 -2.18e-9,0.0322 -4.36e-9,0.0644 -6.54e-9,0.0965 -2.18e-9,0.0321 -4.35e-9,0.0642 -6.52e-9,0.0963 -2.18e-9,0.0321 -4.35e-9,0.0642 -6.52e-9,0.0962 -2.17e-9,0.032 -4.34e-9,0.064 -6.5e-9,0.096 -2.17e-9,0.032 -4.33e-9,0.0639 -6.5e-9,0.0958 -2.16e-9,0.0319 -4.32e-9,0.0638 -6.48e-9,0.0957 -2.16e-9,0.0318 -4.31e-9,0.0637 -6.47e-9,0.0955 -2.15e-9,0.0318 -4.31e-9,0.0636 -6.46e-9,0.0953 -2.15e-9,0.0318 -4.3e-9,0.0635 -6.44e-9,0.0952 -2.15e-9,0.0316 -4.3e-9,0.0633 -6.44e-9,0.0949 -2.14e-9,0.0317 -4.28e-9,0.0633 -6.42e-9,0.0949 -2.14e-9,0.0315 -4.28e-9,0.0631 -6.41e-9,0.0946 -2.13999e-9,0.0315 -4.26999e-9,0.063 -6.39999e-9,0.0944 -2.14e-9,0.0315 -4.26e-9,0.0629 -6.39e-9,0.0943 -2.13e-9,0.0314 -4.25e-9,0.0628 -6.38e-9,0.0941 -2.12e-9,0.0314 -4.24e-9,0.0627 -6.36e-9,0.0939 -2.12e-9,0.0313 -4.24e-9,0.0626 -6.35e-9,0.0938 -2.12e-9,0.0312 -4.23e-9,0.0624 -6.34e-9,0.0935 -2.11e-9,0.0312 -4.22e-9,0.0623 -6.33e-9,0.0934 -2.1e-9,0.0311 -4.21e-9,0.0621 -6.31e-9,0.0932 -2.1e-9,0.031 -4.2e-9,0.062 -6.3e-9,0.093 -2.1e-9,0.0309 -4.19e-9,0.0619 -6.29e-9,0.0928 -2.09e-9,0.0309 -4.18e-9,0.0617 -6.27e-9,0.0926 -2.09e-9,0.0308 -4.18e-9,0.0616 -6.26e-9,0.0924 -2.09e-9,0.0308 -4.17e-9,0.0615 -6.25e-9,0.0922 -2.08e-9,0.0307 -4.16e-9,0.0614 -6.24e-9,0.092 C 1.036001e-8,41.8472 0,41.8778 0,41.9084 0,41.9389 0,41.9695 0,42 h 4.0000027 c 0,-0.0305 0,-0.0611 0,-0.0916 0,-0.0306 0,-0.0612 0,-0.0919 0,-0.0306 0,-0.0613 0,-0.092 0,-0.0307 0,-0.0614 0,-0.0922 0,-0.0308 0,-0.0616 0,-0.0924 0,-0.0309 0,-0.0617 0,-0.0926 0,-0.0309 0,-0.0619 0,-0.0928 0,-0.031 0,-0.062 0,-0.093 0,-0.0311 0,-0.0621 0,-0.0932 0,-0.0311 0,-0.0622 0,-0.0934 0,-0.0311 0,-0.0623 0,-0.0935 0,-0.0312 0,-0.0625 0,-0.0938 0,-0.0312 0,-0.0625 0,-0.0939 0,-0.0313 0,-0.0627 0,-0.0941 0,-0.0314 0,-0.0628 0,-0.0943 0,-0.0314 0,-0.0629 0,-0.0944 0,-0.0315 0,-0.0631 0,-0.0946 0,-0.0316 0,-0.0632 0,-0.0949 0,-0.0316 0,-0.0633 0,-0.0949 0,-0.0317 0,-0.0634 0,-0.0952 0,-0.0317 0,-0.0635 0,-0.0953 0,-0.0318 0,-0.0637 0,-0.0955 0,-0.0319 0,-0.0638 0,-0.0957 0,-0.0319 0,-0.0638 0,-0.0958 0,-0.032 0,-0.064 0,-0.096 0,-0.032 0,-0.0641 0,-0.0962 0,-0.0321 0,-0.0642 0,-0.0963 0,-0.0321 0,-0.0643 0,-0.0965 0,-0.0322 0,-0.0644 0,-0.0966 0,-0.0323 0,-0.0645 0,-0.0968 0,-0.0323 0,-0.0646 0,-0.097 0,-0.0323 0,-0.0647 0,-0.0971 0,-0.0324 0,-0.0648 0,-0.0972 0,-0.0325 0,-0.065 0,-0.0974 0,-0.0325 0,-0.0651 0,-0.0976 0,-0.0326 0,-0.0651 0,-0.0977 0,-0.0326 0,-0.0652 0,-0.0979 0,-0.0326 0,-0.0653 0,-0.098 0,-0.0327 0,-0.0654 0,-0.0981 0,-0.0328 0,-0.0655 0,-0.0983 0,-0.0328 0,-0.0656 0,-0.0985 0,-0.0328 0,-0.0657 0,-0.0985 0,-0.0329 0,-0.0658 0,-0.0987 0,-0.033 0,-0.0659 0,-0.0989 0,-0.033 0,-0.066 0,-0.099 0,-0.033 0,-0.066 0,-0.0991 0,-0.033 0,-0.0661 0,-0.0992 0,-0.0331 0,-0.0663 0,-0.0994 0,-0.0332 0,-0.0663 0,-0.0995 0,-0.0332 0,-0.0664 0,-0.0997 0,-0.0332 0,-0.0665 0,-0.0997 0,-0.0333 0,-0.0666 0,-0.0999 0,-0.0333 0,-0.0667 0,-0.1 0,-0.0334 0,-0.0668 0,-0.1002 0,-0.0334 0,-0.0668 0,-0.1002 0,-0.0335 0,-0.0669 0,-0.1004 0,-0.0335 0,-0.067 0,-0.1005 0,-0.0335 0,-0.067 0,-0.1006 0,-0.0335 0,-0.0671 0,-0.1007 0,-0.0336 0,-0.0672 0,-0.1008 0,-0.0337 0,-0.0673 0,-0.101 0,-0.0337 0,-0.0673 0,-0.101 0,-0.0337 0,-0.0675 0,-0.1012 0,-0.0337 0,-0.0675 0,-0.1013 0,-0.0337 0,-0.0675 0,-0.1014 0,-0.0338 0,-0.0676 0,-0.1014 0,-0.0339 0,-0.0677 0,-0.1016 0,-0.0339 0,-0.0678 0,-0.1017 0,-0.0339 0,-0.0678 0,-0.1018 0,-0.0339 0,-0.0679 0,-0.1019 0,-0.034 0,-0.0679 0,-0.102 0,-0.034 0,-0.068 0,-0.102 0,-0.0341 0,-0.0681 0,-0.1022 0,-0.0341 0,-0.0682 0,-0.1023 0,-0.0341 0,-0.0682 0,-0.1023 0,-0.0341 0,-0.0683 0,-0.1025 0,-0.0341 0,-0.0683 0,-0.1025 0,-0.0342 0,-0.0684 0,-0.1026 0,-0.0342 0,-0.0684 0,-0.1027 0,-0.0342 0,-0.0685 0,-0.1028 0,-0.0343 0,-0.0685 0,-0.1028 0,-0.0343 0,-0.0687 0,-0.103 0,-0.0343 0,-0.0687 0,-0.103 0,-0.0344 0,-0.0687 0,-0.1031 0,-0.0344 0,-0.0688 0,-0.1032 0,-0.0344 0,-0.0688 0,-0.1033 0,-0.0344 0,-0.0688 0,-0.1033 0,-0.0344 0,-0.0689 0,-0.1034 0,-0.0345 0,-0.0689 0,-0.1034 0,-0.0345 0,-0.0691 0,-0.1036 0,-0.0345 0,-0.069 0,-0.1036 0,-0.0345 0,-0.0691 0,-0.1037 0,-0.0345 0,-0.0691 0,-0.1037 0,-0.0346 0,-0.0692 0,-0.1038 0,-0.0346 0,-0.0692 0,-0.1038 0,-0.0347 0,-0.0693 0,-0.104 0,-0.0346 0,-0.0693 0,-0.1039 0,-0.0347 0,-0.0694 0,-0.1041 0,-0.0347 0,-0.0694 0,-0.1041 0,-0.0347 0,-0.0694 0,-0.1041 0,-0.0347 0,-0.0695 0,-0.1042 0,-0.0347 0,-0.0695 0,-0.1042 0,-0.0348 0,-0.0696 0,-0.1043 0,-0.0348 0,-0.0696 0,-0.1044 0,-0.0348 0,-0.0696 0,-0.1044 0,-0.0348 0,-0.0696 0,-0.1044 0,-0.0348 0,-0.0696 0,-0.1045 0,-0.0348 0,-0.0696 0,-0.1045 0,-0.0348 0,-0.0697 0,-0.1046 0,-0.0348 0,-0.0697 0,-0.1046 0,-0.0348 0,-0.0697 0,-0.1046 0,-0.0349 0,-0.0698 0,-0.1047 0,-0.0349 0,-0.0698 0,-0.1047 0,-0.0349 0,-0.0698 0,-0.1047 0,-0.0349 0,-0.0698 0,-0.1048 0,-0.0349 0,-0.0698 0,-0.1048 0,-0.0349 0,-0.0699 0,-0.1048 0,-0.035 0,-0.0699 0,-0.1049 0,-0.0349 0,-0.0699 0,-0.1048 0,-0.035 0,-0.07 0,-0.105 0,-0.0349 0,-0.0699 0,-0.1049 0,-0.035 0,-0.0699 0,-0.1049 0,-0.035 0,-0.07 0,-0.105 0,-0.035 0,-0.07 0,-0.105 0,-0.035 0,-0.07 0,-0.105 0,-0.035 0,-0.07 0,-0.105 0,-0.035 0,-0.07 0,-0.1051 0,-0.035 0,-0.07 0,-0.105 0,-0.035 0,-0.07 0,-0.1051 0,-0.035 0,-0.07 0,-0.105 0,-0.035 0,-0.0701 0,-0.1051 0,-0.035 0,-0.07 0,-0.1051 0,-0.035 0,-0.07 0,-0.1051 0,-0.035 0,-0.07 0,-0.1051 0,-0.035 0,-0.07 0,-0.105 0,-0.0351 0,-0.0701 0,-0.1051 0,-0.0351 0,-0.0701 0,-0.1051 0,-0.0351 0,-0.0701 0,-0.1051 0,-0.035 0,-0.0701 0,-0.1051 0,-0.035 0,-0.0701 0,-0.1051 0,-0.035 0,-0.07 0,-0.1051 0,-0.035 0,-0.07 0,-0.105 0,-0.035 0,-0.0701 0,-0.1051 0,-0.035 0,-0.07 0,-0.105 0,-0.035 0,-0.07 0,-0.105 0,-0.035 0,-0.0701 0,-0.1051 0,-0.035 0,-0.07 0,-0.105 0,-0.035 0,-0.0699 0,-0.1049 0,-0.035 0,-0.07 0,-0.105 0,-0.035 0,-0.07 0,-0.1049 0,-0.035 0,-0.07 0,-0.105 0,-0.0349 0,-0.0699 0,-0.1049 0,-0.0349 0,-0.0699 0,-0.1048 0,-0.035 0,-0.0699 0,-0.1049 0,-0.0349 0,-0.0699 0,-0.1048 0,-0.0349 0,-0.0699 0,-0.1048 0,-0.0349 0,-0.0698 0,-0.1048 0,-0.0349 0,-0.0698 0,-0.1047 0,-0.0349 0,-0.0698 0,-0.1047 0,-0.0349 0,-0.0698 0,-0.1046 0,-0.0349 0,-0.0698 0,-0.1047 0,-0.0348 0,-0.0697 0,-0.1045 0,-0.0349 0,-0.0697 0,-0.1046 0,-0.0348 0,-0.0697 0,-0.1045 0,-0.0348 0,-0.0696 0,-0.1045 0,-0.0348 0,-0.0696 0,-0.1044 0,-0.0348 0,-0.0696 0,-0.1043 0,-0.0348 0,-0.0696 0,-0.1044 0,-0.0347 0,-0.0695 0,-0.1042 0,-0.0348 0,-0.0695 0,-0.1043 0,-0.0347 0,-0.0694 0,-0.1041 0,-0.0348 0,-0.0695 0,-0.1042 0,-0.0347 0,-0.0694 0,-0.104 0,-0.0347 0,-0.0694 0,-0.104 0,-0.0347 0,-0.0694 0,-0.104 0,-0.0346 0,-0.0693 0,-0.1039 0,-0.0346 0,-0.0692 0,-0.1038 0,-0.0346 0,-0.0692 0,-0.1038 0,-0.0346 0,-0.0692 0,-0.1037 0,-0.0346 0,-0.0691 0,-0.1037 0,-0.0345 0,-0.069 0,-0.1035 0,-0.0346 0,-0.0691 0,-0.1036 0,-0.0344 0,-0.0689 0,-0.1034 0,-0.0345 0,-0.0689 0,-0.1034 0,-0.0344 0,-0.0689 0,-0.1033 0,-0.0344 0,-0.0688 0,-0.1032 0,-0.0344 0,-0.0688 0,-0.1032 0,-0.0343 0,-0.0687 0,-0.103 0,-0.0344 0,-0.0687 0,-0.103 0,-0.0343 0,-0.0687 0,-0.1029 0,-0.0343 0,-0.0686 0,-0.1029 0,-0.0342 0,-0.0685 0,-0.1027 0,-0.0343 0,-0.0685 0,-0.1027 0,-0.0342 0,-0.0684 0,-0.1026 0,-0.0342 0,-0.0683 0,-0.1025 0,-0.0341 0,-0.0683 0,-0.1024 0,-0.0341 0,-0.0682 0,-0.1023 0,-0.0341 0,-0.0682 0,-0.1022 0,-0.0341 0,-0.0682 0,-0.1022 0,-0.034 0,-0.068 0,-0.102 0,-0.034 0,-0.068 0,-0.102 0,-0.0339 0,-0.0679 0,-0.1018 0,-0.0339 0,-0.0679 0,-0.1018 0,-0.0339 0,-0.0677 0,-0.1016 0,-0.0339 0,-0.0677 0,-0.1016 0,-0.0338 0,-0.0676 0,-0.1014 0,-0.0338 0,-0.0676 0,-0.1013 0,-0.0338 0,-0.0676 0,-0.1013 0,-0.0337 0,-0.0674 0,-0.1011 0,-0.0337 0,-0.0674 0,-0.101 0,-0.0337 0,-0.0673 0,-0.1009 0,-0.0336 0,-0.0672 0,-0.1008 0,-0.0336 0,-0.0672 0,-0.1007 0,-0.0335 0,-0.0671 0,-0.1006 0,-0.0335 0,-0.0669 0,-0.1004 0,-0.0335 0,-0.0669 0,-0.1003 0,-0.0335 0,-0.0669 0,-0.1003 0,-0.0333 0,-0.0667 0,-0.1 0,-0.0334 0,-0.0667 0,-0.1 0,-0.0333 0,-0.0666 0,-0.0999 0,-0.0332 0,-0.0665 0,-0.0997 0,-0.0332 0,-0.0664 0,-0.0996 0,-0.0331 0,-0.0663 0,-0.0994 0,-0.0332 0,-0.0663 0,-0.0994 0,-0.033 0,-0.0661 0,-0.0992 0,-0.033 0,-0.066 0,-0.099 0,-0.033 0,-0.066 0,-0.099 0,-0.0329 0,-0.0659 0,-0.0988 0,-0.0329 0,-0.0658 0,-0.0986 0,-0.0329 0,-0.0657 0,-0.0985 0,-0.0329 0,-0.0657 0,-0.0984 0,-0.0328 0,-0.0655 0,-0.0983 0,-0.0327 0,-0.0654 0,-0.0981 0,-0.0326 0,-0.0653 0,-0.0979 0,-0.0326 0,-0.0652 0,-0.0978 0,-0.0326 0,-0.0652 0,-0.0977 0,-0.0325 0,-0.065 0,-0.0975 0,-0.0325 0,-0.0649 0,-0.0973 0,-0.0325 0,-0.0649 0,-0.0973 0,-0.0323 0,-0.0647 0,-0.097 0,-0.0323 0,-0.0646 0,-0.0969 0,-0.0323 0,-0.0645 0,-0.0967 0,-0.0323 0,-0.0645 0,-0.0966 0,-0.0322 0,-0.0643 0,-0.0965 0,-0.0321 0,-0.0642 0,-0.0962 0,-0.0321 0,-0.0641 0,-0.0961 0,-0.032 0,-0.064 0,-0.096 0,-0.0319 0,-0.0638 0,-0.0957 0,-0.0319 0,-0.0638 0,-0.0956 0,-0.0319 0,-0.0637 0,-0.0955 0,-0.0318 0,-0.0635 0,-0.0952 0,-0.0318 0,-0.0635 0,-0.0951 0,-0.0317 0,-0.0633 0,-0.095 0,-0.0316 0,-0.0631 0,-0.0947 0,-0.0316 0,-0.0631 0,-0.0946 0,-0.0315 0,-0.0629 0,-0.0944 0,-0.0314 0,-0.0628 0,-0.0942 0,-0.0314 0,-0.0627 0,-0.094 0,-0.0313 0,-0.0626 0,-0.0939 0,-0.0312 0,-0.0624 0,-0.0936 0,-0.0312 0,-0.0624 0,-0.0935 0,-0.0312 0,-0.0623 0,-0.0933 0,-0.0311 0,-0.0621 0,-0.0931 0,-0.031 0,-0.062 0,-0.093 0,-0.0309 0,-0.0618 0,-0.0927 0,-0.0309 0,-0.0617 0,-0.0925 0,-0.0308 0,-0.0616 0,-0.0924 0,-0.0307 0,-0.0614 0,-0.0921 0,-0.0307 0,-0.0614 0,-0.092 0,-0.0306 0,-0.0612 0,-0.0917 0,-0.0306 0,-0.0611 0,-0.0916 0,-0.0305 0,-0.0609 0,-0.0914 0,-0.0304 0,-0.0608 0,-0.0911 0,-0.0304 0,-0.0607 0,-0.091 0,-0.0302 0,-0.0605 0,-0.0907 0,-0.0302 0,-0.0604 0,-0.0905 0,-0.0302 0,-0.0603 0,-0.0904 0,-0.03 0,-0.0601 0,-0.0901 0,-0.03 0,-0.06 0,-0.0899 0,-0.0299 0,-0.0598 0,-0.0897 0,-0.0299 0,-0.0597 0,-0.0895 0,-0.0298 0,-0.0595 0,-0.0892 0,-0.0298 0,-0.0594 0,-0.0891 0,-0.0296 0,-0.0592 0,-0.0888 0,-0.0296 0,-0.0591 0,-0.0886 0,-0.0295 0,-0.059 0,-0.0884 0,-0.0294 0,-0.0588 0,-0.0882 0,-0.0293 0,-0.0586 0,-0.0879 0,-0.0293 0,-0.0585 0,-0.0877 0,-0.0292 0,-0.0584 0,-0.0875 0,-0.0291 0,-0.0582 0,-0.0873 0,-0.029 0,-0.058 0,-0.087 0,-0.029 0,-0.0579 0,-0.0868 0,-0.0289 0,-0.0577 0,-0.0865 0,-0.0289 0,-0.0576 0,-0.0864 0,-0.0287 0,-0.0574 0,-0.0861 0,-0.0286 0,-0.0572 0,-0.0858 0,-0.0286 0,-0.0571 0,-0.0856 0,-0.0285 0,-0.057 0,-0.0854 0,-0.0284 0,-0.0568 0,-0.0851 0,-0.0284 0,-0.0566 0,-0.0849 0,-0.0283 0,-0.0565 0,-0.0846 0,-0.0282 0,-0.0563 0,-0.0844 0,-0.0281 0,-0.0562 0,-0.0842 0,-0.028 0,-0.0559 0,-0.0839 0,-0.0279 0,-0.0558 0,-0.0836 0,-0.0278 0,-0.0556 0,-0.0834 0,-0.0277 0,-0.0555 0,-0.0831 0,-0.0277 0,-0.0553 0,-0.0829 0,-0.0276 0,-0.0551 0,-0.0826 0,-0.0275 0,-0.055 0,-0.0824 0,-0.0274 0,-0.0548 0,-0.0821 0,-0.0273 0,-0.0546 0,-0.0818 0,-0.0273 0,-0.0545 0,-0.0816 0,-0.0272 0,-0.0543 0,-0.0813 0,-0.0271 0,-0.0541 0,-0.0811 0,-0.0269 0,-0.0539 0,-0.0807 0,-0.0269 0,-0.0538 0,-0.0806 0,-0.0267 0,-0.0535 0,-0.0802 0,-0.0267 0,-0.0534 0,-0.08 0,-0.0266 0,-0.0531 0,-0.0797 0,-0.0265 0,-0.0529 0,-0.0794 0,-0.0264 0,-0.0528 0,-0.0791 0,-0.0263 0,-0.0526 0,-0.0789 0,-0.0262 0,-0.0524 0,-0.0786 0,-0.0261 0,-0.0522 0,-0.0783 0,-0.026 0,-0.052 0,-0.07799 0,-0.02595 0,-0.05187 0,-0.07773 0,-0.02587 0,-0.05168 0,-0.07745 0,-0.02577 0,-0.05149 0,-0.07717 0,-0.02567 0,-0.0513 0,-0.07687 0,-0.02558 0,-0.05111 0,-0.07659 0,-0.02548 0,-0.05091 0,-0.0763 0,-0.02538 0,-0.05071 0,-0.076 0,-0.02528 0,-0.05052 0,-0.0757 0,-0.02519 0,-0.05033 0,-0.07542 0,-0.02508 0,-0.05012 0,-0.07511 0,-0.02499 0,-0.04993 0,-0.07482 0,-0.02489 0,-0.04972 0,-0.07451 0,-0.02479 0,-0.04953 0,-0.07422 0,-0.02468 0,-0.04932 0,-0.07391 0,-0.02458 0,-0.04912 0,-0.0736 0,-0.02449 0,-0.04892 0,-0.0733 0,-0.02439 0,-0.04872 0,-0.073 0,-0.02427 0,-0.0485 0,-0.07268 0,-0.02417 0,-0.0483 0,-0.07237 0,-0.02407 0,-0.04809 0,-0.07206 0,-0.02397 0,-0.04788 0,-0.07175 0,-0.02386 0,-0.04767 0,-0.07143 0,-0.02376 0,-0.04746 0,-0.07111 0,-0.02366 0,-0.04726 0,-0.0708 0,-0.02355 0,-0.04704 0,-0.07048 0,-0.02344 0,-0.04682 0,-0.07016 0,-0.02333 0,-0.04661 0,-0.06983 0,-0.02323 0,-0.0464 0,-0.06951 0,-0.02312 0,-0.04618 0,-0.06919 0,-0.023 0,-0.04596 0,-0.06885 0,-0.0229 0,-0.04575 0,-0.06853 0,-0.02279 0,-0.04553 0,-0.0682 0,-0.02268 0,-0.0453 0,-0.06787 0,-0.02257 0,-0.04508 0,-0.06754 0,-0.02245 0,-0.04485 0,-0.0672 0,-0.02234 0,-0.04463 0,-0.06686 0,-0.02224 0,-0.04441 0,-0.06653 0,-0.02212 0,-0.04419 0,-0.06619 0,-0.02201 0,-0.04396 0,-0.06585 0,-0.02189 0,-0.04373 0,-0.06551 0,-0.02178 0,-0.0435 0,-0.06516 0,-0.02167 0,-0.04327 0,-0.06482 0,-0.02155 0,-0.04304 0,-0.06448 0,-0.02143 0,-0.04281 0,-0.06412 0,-0.02132 0,-0.04258 0,-0.06378 0,-0.0212 0,-0.04234 0,-0.06343 0,-0.02108 0,-0.0421 0,-0.06307 0,-0.02097 0,-0.04187 0,-0.06272 0,-0.02085 0,-0.04164 0,-0.06237 0,-0.02072 0,-0.04139 0,-0.062 0,-0.02061 0,-0.04116 0,-0.06165 0,-0.0205 0,-0.04093 0,-0.0613 0,-0.02037 0,-0.04068 0,-0.06093 0,-0.02025 0,-0.04044 0,-0.06056 0,-0.02013 0,-0.0402 0,-0.06021 0,-0.02001 0,-0.03995 0,-0.05984 0,-0.01988 0,-0.03971 0,-0.05947 0,-0.01976 0,-0.03946 0,-0.0591 0,-0.01964 0,-0.03922 0,-0.05874 0,-0.01951 0,-0.03897 0,-0.05836 0,-0.01939 0,-0.03872 0,-0.05799 0,-0.01926 0,-0.03847 0,-0.05761 0,-0.01914 0,-0.03822 0,-0.05724 0,-0.01902 0,-0.03797 0,-0.05686 0,-0.01889 0,-0.03772 0,-0.05649 0,-0.01876 0,-0.03746 0,-0.0561 0,-0.01864 0,-0.03721 0,-0.05572 0,-0.01851 0,-0.03696 0,-0.05534 0,-0.01838 0,-0.0367 0,-0.05495 0,-0.01826 0,-0.03644 0,-0.05457 0,-0.01812 0,-0.03618 0,-0.05418 0,-0.01799 0,-0.03592 0,-0.05379 0,-0.01786 0,-0.03566 0,-0.0534 0,-0.01773 0,-0.0354 0,-0.05301 0,-0.0176 0,-0.03514 0,-0.05261 0,-0.01747 0,-0.03488 0,-0.05222 0,-0.01734 0,-0.03462 0,-0.05182 0,-0.01721 0,-0.03435 0,-0.05143 0,-0.01707 0,-0.03408 0,-0.05102 0,-0.01694 0,-0.03382 0,-0.05063 0,-0.01681 0,-0.03355 0,-0.05022 0,-0.01667 0,-0.03328 0,-0.04982 0,-0.01654 0,-0.03301 0,-0.04941 0,-0.0164 0,-0.03274 0,-0.049 0,-0.01627 0,-0.03247 0,-0.0486 0,-0.01613 0,-0.0322 0,-0.04819 0,-0.01599 0,-0.03192 0,-0.04778 0,-0.01585 0,-0.03164 0,-0.04736 0,-0.01572 0,-0.03137 0,-0.04695 0,-0.01558 0,-0.03109 0,-0.04653 0,-0.01544 0,-0.03081 0,-0.04612 0,-0.0153 0,-0.03053 0,-0.04569 0,-0.01517 0,-0.03026 0,-0.04528 0,-0.01502 0,-0.02997 0,-0.04485 0,-0.01489 0,-0.0297 0,-0.04444 0,-0.01474 0,-0.02941 0,-0.044 0,-0.0146 0,-0.02913 0,-0.04359 0,-0.01445 0,-0.02884 0,-0.04315 0,-0.01431 0,-0.02855 0,-0.04272 0,-0.01417 0,-0.02827 0,-0.0423 0,-0.01402 0,-0.02798 0,-0.04186 0,-0.01388 0,-0.02769 0,-0.04143 0,-0.01373 0,-0.0274 0,-0.04099 0,-0.01359 0,-0.02711 0,-0.04056 0,-0.01344 0,-0.02681 0,-0.04011 0,-0.0133 0,-0.02653 0,-0.03968 0,-0.01316 0,-0.02624 0,-0.03924 0,-0.01301 0,-0.02594 0,-0.0388 0,-0.01286 0,-0.02564 0,-0.03835 0,-0.01271 0,-0.02534 0,-0.03791 0,-0.01256 0,-0.02504 0,-0.03745 0,-0.01242 0,-0.02475 0,-0.03702 0,-0.01226 0,-0.02444 0,-0.03656 0,-0.01211 0,-0.02415 0,-0.03611 0,-0.01196 0,-0.02384 0,-0.03565 0,-0.01181 0,-0.02355 0,-0.03521 0,-0.01165 0,-0.02324 0,-0.03474 0,-0.01151 0,-0.02294 0,-0.03429 0,-0.01136 0,-0.02263 0,-0.03383 0,-0.0112 0,-0.02233 0,-0.03337 0,-0.01105 0,-0.02202 0,-0.03291 0,-0.0109 0,-0.02171 0,-0.03245 0,-0.01074 0,-0.0214 0,-0.03198 0,-0.01058 0,-0.02109 0,-0.03152 0,-0.01042 0,-0.02077 0,-0.03104 0,-0.01027 0,-0.02047 0,-0.03058 0,-0.01012 0,-0.02015 0,-0.03011 0,-0.00996 0,-0.01984 0,-0.02963 0,-0.0098 0,-0.01953 0,-0.02917 0,-0.00964 0,-0.0192 0,-0.02868 0,-0.00949 0,-0.01889 0,-0.02821 0,-0.00933 0,-0.01857 0,-0.02774 0,-0.00916 0,-0.01825 0,-0.02725 0,-0.009 0,-0.01793 0,-0.02677 0,-0.00885 0,-0.01761 0,-0.02629 0,-0.00868 0,-0.01729 0,-0.02581 0,-0.00852 0,-0.01696 0,-0.02532 0,-0.00836 0,-0.01663 0,-0.02483 0,-0.0082 0,-0.01631 0,-0.02435 0,-0.00803 0,-0.01598 0,-0.02385 0,-0.00787 0,-0.01566 0,-0.02337 0,-0.0077 0,-0.01532 0,-0.02287 0,-0.00754 0,-0.015 0,-0.02237 0,-0.00738 0,-0.01467 0,-0.02188 0,-0.00721 0,-0.01434 0,-0.02139 0,-0.00704 0,-0.014 0,-0.02088 0,-0.00688 0,-0.01368 0,-0.02039 0,-0.00671 0,-0.01334 0,-0.01988 0,-0.00654 0,-0.013 0,-0.01938 0,-0.00638 0,-0.01267 0,-0.01888 0,-0.0062 0,-0.01233 0,-0.01836 0,-0.00604 0,-0.012 0,-0.01787 0,-0.00587 0,-0.01165 0,-0.01735 0,-0.0057 0,-0.01131 0,-0.01684 0,-0.00553 0,-0.01097 0,-0.01633 0,-0.00536 0,-0.01063 0,-0.01582 0,-0.00518 0,-0.01028 0,-0.0153 0,-0.00501 0,-0.00994 0,-0.01478 0,-0.00484 0,-0.0096 0,-0.01427 0,-0.00467 0,-0.00925 0,-0.01375 0,-0.00449 0,-0.0089 0,-0.01322 0,-0.00432 0,-0.00856 0,-0.01271 0,-0.00414 0,-0.0082 0,-0.01217 0,-0.00398 0,-0.00786 0,-0.01166 0,-0.0038 0,-0.00751 0,-0.01113 0,-0.00362 0,-0.00715 0,-0.0106 0,-0.00344 0,-0.0068 0,-0.01007 0,-0.00326 0,-0.00644 0,-0.00953 0,-0.00309 0,-0.0061 0,-0.00901 0,-0.00291 0,-0.00573 0,-0.00847 0,-0.00273 0,-0.00538 0,-0.00793 0,-0.00256 0,-0.00503 0,-0.0074 0,-0.00238 0,-0.00466 0,-0.00686 0,-0.0022 0,-0.0043 0,-0.00632 0,-0.00202 0,-0.00394 0,-0.00578 0,-0.00183 0,-0.00358 0,-0.00523 0,-0.00166 0,-0.00322 0,-0.00469 0,-0.00147 0,-0.00285 0,-0.00414 0,-0.00129 0,-0.00249 0,-0.0036 0,-0.00111 0,-0.00212 0,-0.00305 0,-9.2e-4 0,-0.00175 0,-0.00249 0,-7.4e-4 0,-0.00139 0,-0.00195 0,-5.5e-4 0,-0.00101 0,-0.00139 0,-3.7e-4 0,-6.5e-4 0,-8.3e-4 0,-1.9e-4 0,-2.8e-4 -2,-2.8e-4 z"
     fill="#ffffff"
     id="path2" />
  <path
     d="m 22.000003,2 c 0,-1.104569 -0.8954,-1.999999968850098 -2,-2 -1.1046,-3.1149898e-8 -2,0.89543 -2,2 z m -4,40 c 0,1.1046 0.8954,2 2,2 1.1046,0 2,-0.8954 2,-2 z m 2,-40 c -2,0 -2,9e-5 -2,2.8e-4 0,1.8e-4 0,4.6e-4 0,8.3e-4 0,3.7e-4 0,8.4e-4 0,0.00139 0,5.6e-4 0,0.00121 0,0.00195 0,7.4e-4 0,0.00157 0,0.00249 0,9.3e-4 0,0.00194 0,0.00305 0,0.00111 0,0.00231 0,0.0036 0,0.00129 0,0.00267 0,0.00414 0,0.00147 0,0.00303 0,0.00469 0,0.00165 0,0.0034 0,0.00523 0,0.00184 0,0.00376 0,0.00578 0,0.00202 0,0.00412 0,0.00632 0,0.0022 0,0.00448 0,0.00686 0,0.00237 0,0.00484 0,0.0074 0,0.00255 0,0.0052 0,0.00793 0,0.00274 0,0.00556 0,0.00847 0,0.00291 0,0.00592 0,0.00901 0,0.00309 0,0.00627 0,0.00953 0,0.00327 0,0.00663 0,0.01007 0,0.00345 0,0.00698 0,0.0106 0,0.00362 0,0.00733 0,0.01113 0,0.0038 0,0.00768 0,0.01166 0,0.00397 0,0.00803 0,0.01217 0,0.00415 0,0.00839 0,0.01271 0,0.00432 0,0.00873 0,0.01322 0,0.0045 0,0.00908 0,0.01375 0,0.00467 0,0.00943 0,0.01427 0,0.00484 0,0.00977 0,0.01478 0,0.00502 0,0.01012 0,0.0153 0,0.00519 0,0.01046 0,0.01582 0,0.00536 0,0.0108 0,0.01633 0,0.00553 0,0.01114 0,0.01684 0,0.0057 0,0.01148 0,0.01735 0,0.00587 0,0.01183 0,0.01787 0,0.00603 0,0.01216 0,0.01836 0,0.00621 0,0.0125 0,0.01888 0,0.00638 0,0.01284 0,0.01938 0,0.00654 0,0.01317 0,0.01988 0,0.00671 0,0.01351 0,0.02039 0,0.00688 0,0.01384 0,0.02088 0,0.00705 0,0.01418 0,0.02139 0,0.00721 0,0.0145 0,0.02188 0,0.00737 0,0.01483 0,0.02237 0,0.00755 0,0.01517 0,0.02287 0,0.00771 0,0.0155 0,0.02337 0,0.00787 0,0.01582 0,0.02385 0,0.00804 0,0.01615 0,0.02435 0,0.0082 0,0.01647 0,0.02483 0,0.00836 0,0.0168 0,0.02532 0,0.00852 0,0.01713 0,0.02581 0,0.00868 0,0.01744 0,0.02629 0,0.00884 0,0.01777 0,0.02677 0,0.009 0,0.01809 0,0.02725 0,0.00917 0,0.01841 0,0.02774 0,0.00932 0,0.01872 0,0.02821 0,0.00948 0,0.01904 0,0.02868 0,0.00964 0,0.01937 0,0.02917 0,0.00979 0,0.01967 0,0.02963 0,0.00996 0,0.01999 0,0.03011 0,0.01011 0,0.02031 0,0.03058 0,0.01027 0,0.02062 0,0.03104 0,0.01043 0,0.02094 0,0.03152 0,0.01058 0,0.02124 0,0.03198 0,0.01074 0,0.02155 0,0.03245 0,0.01089 0,0.02186 0,0.03291 0,0.01104 0,0.02217 0,0.03337 0,0.0112 0,0.02247 0,0.03383 0,0.01135 0,0.02278 0,0.03429 0,0.0115 0,0.02308 0,0.03474 0,0.01166 0,0.0234 0,0.03521 0,0.01181 0,0.02369 0,0.03565 0,0.01196 0,0.024 0,0.03611 0,0.01211 0,0.0243 0,0.03656 0,0.01227 0,0.0246 0,0.03702 0,0.01241 0,0.02489 0,0.03745 0,0.01257 0,0.0252 0,0.03791 0,0.01271 0,0.02549 0,0.03835 0,0.01286 0,0.02579 0,0.0388 0,0.013 0,0.02608 0,0.03924 0,0.01315 0,0.02638 0,0.03968 0,0.0133 0,0.02667 0,0.04011 0,0.01345 0,0.02697 0,0.04056 0,0.01359 0,0.02726 0,0.04099 0,0.01374 0,0.02755 0,0.04143 0,0.01388 0,0.02784 0,0.04186 0,0.01403 0,0.02813 0,0.0423 0,0.01417 0,0.02841 0,0.04272 0,0.01431 0,0.0287 0,0.04315 0,0.01446 0,0.02899 0,0.04359 0,0.01459 0,0.02926 0,0.044 0,0.01474 0,0.02955 0,0.04443 0,0.01489 0,0.02984 0,0.04486 0,0.01502 0,0.03011 0,0.04528 0,0.01516 0,0.03039 0,0.04569 0,0.01531 0,0.03068 0,0.04612 0,0.01544 0,0.03095 0,0.04653 0,0.01558 0,0.03123 0,0.04695 0,0.01572 0,0.03151 0,0.04736 0,0.01586 0,0.03179 0,0.04778 0,0.01599 0,0.03206 0,0.04819 0,0.01613 0,0.03233 0,0.04859 0,0.01627 0,0.03261 0,0.04901 0,0.0164 0,0.03287 0,0.04941 0,0.01654 0,0.03315 0,0.04982 0,0.01667 0,0.03341 0,0.05022 0,0.01681 0,0.03369 0,0.05063 0,0.01694 0,0.03395 0,0.05102 0,0.01708 0,0.03422 0,0.05143 0,0.0172 0,0.03448 0,0.05182 0,0.01734 0,0.03475 0,0.05222 0,0.01747 0,0.03501 0,0.05261 0,0.01761 0,0.03528 0,0.05301 0,0.01774 0,0.03554 0,0.0534 0,0.01787 0,0.0358 0,0.05379 0,0.018 0,0.03606 0,0.05418 0,0.01812 0,0.03631 0,0.05457 0,0.01825 0,0.03657 0,0.05495 0,0.01838 0,0.03683 0,0.05534 0,0.01851 0,0.03708 0,0.05572 0,0.01864 0,0.03734 0,0.0561 0,0.01877 0,0.0376 0,0.05649 0,0.01889 0,0.03784 0,0.05686 0,0.01902 0,0.0381 0,0.05724 0,0.01914 0,0.03835 0,0.05761 0,0.01927 0,0.0386 0,0.05799 0,0.01939 0,0.03885 0,0.05836 0,0.01952 0,0.0391 0,0.05874 0,0.01964 0,0.03934 0,0.0591 0,0.01976 0,0.03959 0,0.05947 0,0.01989 0,0.03983 0,0.05984 0,0.02001 0,0.04008 0,0.06021 0,0.02012 0,0.04031 0,0.06056 0,0.02025 0,0.04056 0,0.06093 0,0.02037 0,0.0408 0,0.0613 0,0.02049 0,0.04104 0,0.06165 0,0.02061 0,0.04128 0,0.062 0,0.02073 0,0.04152 0,0.06237 0,0.02085 0,0.04175 0,0.06272 0,0.02097 0,0.04199 0,0.06307 0,0.02109 0,0.04223 0,0.06343 0,0.0212 0,0.04246 0,0.06378 0,0.02131 0,0.04269 0,0.06412 0,0.02144 0,0.04293 0,0.06448 0,0.02155 0,0.04315 0,0.06482 0,0.02166 0,0.04338 0,0.06516 0,0.02178 0,0.04362 0,0.06551 0,0.02189 0,0.04384 0,0.06585 0,0.022 0,0.04407 0,0.06619 0,0.02212 0,0.04429 0,0.06653 0,0.02223 0,0.04452 0,0.06686 0,0.02235 0,0.04475 0,0.0672 0,0.02246 0,0.04497 0,0.06754 0,0.02257 0,0.04519 0,0.06787 0,0.02267 0,0.04541 0,0.0682 0,0.02278 0,0.04563 0,0.06853 0,0.02289 0,0.04585 0,0.06885 0,0.02301 0,0.04607 0,0.06919 0,0.02311 0,0.04628 0,0.06951 0,0.02322 0,0.0465 0,0.06983 0,0.02334 0,0.04672 0,0.07016 0,0.02344 0,0.04693 0,0.07048 0,0.02354 0,0.04714 0,0.07079 0,0.02366 0,0.04736 0,0.07112 0,0.02376 0,0.04757 0,0.07143 0,0.02386 0,0.04778 0,0.07175 0,0.02397 0,0.04799 0,0.07206 0,0.02407 0,0.0482 0,0.07237 0,0.02418 0,0.04841 0,0.07268 0,0.02428 0,0.04861 0,0.073 0,0.02438 0,0.04881 0,0.0733 0,0.02448 0,0.04902 0,0.0736 0,0.02459 0,0.04923 0,0.07391 0,0.02469 0,0.04943 0,0.07422 0,0.02479 0,0.04962 0,0.07451 0,0.02489 0,0.04983 0,0.07482 0,0.02499 0,0.05003 0,0.07511 0,0.02509 0,0.05023 0,0.07542 0,0.02518 0,0.05042 0,0.0757 0,0.02529 0,0.05062 0,0.076 0,0.02539 0,0.05082 0,0.0763 0,0.02548 0,0.05101 0,0.07659 0,0.02557 0,0.0512 0,0.07687 0,0.02568 0,0.0514 0,0.07717 0,0.02577 0,0.05158 0,0.07745 0,0.02586 0,0.05177 0,0.07773 0,0.02599 0,0.05199 0,0.07799 0,0.0261 0,0.0522 0,0.0783 0,0.0262 0,0.0524 0,0.0786 0,0.0263 0,0.0526 0,0.0789 0,0.0263 0,0.0527 0,0.0791 0,0.0265 0,0.0529 0,0.0794 0,0.0266 0,0.0531 0,0.0797 0,0.0266 0,0.0533 0,0.08 0,0.0267 0,0.0535 0,0.0802 0,0.0268 0,0.0537 0,0.0806 0,0.0268 0,0.0538 0,0.0807 0,0.027 0,0.054 0,0.0811 0,0.027 0,0.0541 0,0.0813 0,0.0271 0,0.0543 0,0.0816 0,0.0272 0,0.0545 0,0.0818 0,0.0273 0,0.0547 0,0.0821 0,0.0274 0,0.0549 0,0.0824 0,0.0275 0,0.055 0,0.0826 0,0.0276 0,0.0552 0,0.0829 0,0.0276 0,0.0554 0,0.0831 0,0.0278 0,0.0556 0,0.0834 0,0.0278 0,0.0557 0,0.0836 0,0.028 0,0.0559 0,0.0839 0,0.028 0,0.0561 0,0.0842 0,0.0281 0,0.0562 0,0.0844 0,0.0281 0,0.0563 0,0.0846 0,0.0283 0,0.0565 0,0.0849 0,0.0283 0,0.0567 0,0.0851 0,0.0284 0,0.0569 0,0.0854 0,0.0285 0,0.057 0,0.0856 0,0.0286 0,0.0572 0,0.0858 0,0.0287 0,0.0574 0,0.0861 0,0.0288 0,0.0575 0,0.0864 0,0.0288 0,0.0576 0,0.0865 0,0.0289 0,0.0578 0,0.0868 0,0.029 0,0.058 0,0.087 0,0.0291 0,0.0582 0,0.0873 0,0.0291 0,0.0583 0,0.0875 0,0.0292 0,0.0584 0,0.0877 0,0.0293 0,0.0586 0,0.0879 0,0.0294 0,0.0588 0,0.0882 0,0.0294 0,0.0589 0,0.0884 0,0.0295 0,0.059 0,0.0886 0,0.0296 0,0.0592 0,0.0888 0,0.0297 0,0.0593 0,0.0891 0,0.0297 0,0.0594 0,0.0892 0,0.0298 0,0.0596 0,0.0895 0,0.0299 0,0.0598 0,0.0897 0,0.0299 0,0.0599 0,0.0899 0,0.03 0,0.0601 0,0.0901 0,0.0301 0,0.0602 0,0.0904 0,0.0301 0,0.0603 0,0.0905 0,0.0302 0,0.0605 0,0.0907 0,0.0303 0,0.0606 0,0.091 0,0.0303 0,0.0607 0,0.0911 0,0.0305 0,0.0609 0,0.0914 0,0.0305 0,0.061 0,0.0916 0,0.0305 0,0.0611 0,0.0917 0,0.0306 0,0.0613 0,0.092 0,0.0307 0,0.0614 0,0.0921 0,0.0308 0,0.0616 0,0.0924 0,0.0308 0,0.0616 0,0.0925 0,0.0309 0,0.0618 0,0.0927 0,0.031 0,0.062 0,0.093 0,0.031 0,0.062 0,0.0931 0,0.031 0,0.0621 0,0.0933 0,0.0311 0,0.0623 0,0.0935 0,0.0312 0,0.0624 0,0.0936 0,0.0313 0,0.0626 0,0.0939 0,0.0313 0,0.0626 0,0.094 0,0.0314 0,0.0628 0,0.0942 0,0.0315 0,0.0629 0,0.0944 0,0.0315 0,0.063 0,0.0946 0,0.0316 0,0.0631 0,0.0947 0,0.0317 0,0.0633 0,0.095 0,0.0316 0,0.0633 0,0.0951 0,0.0317 0,0.0634 0,0.0952 0,0.0318 0,0.0636 0,0.0955 0,0.0318 0,0.0637 0,0.0956 0,0.0319 0,0.0638 0,0.0957 0,0.032 0,0.064 0,0.096 0,0.032 0,0.064 0,0.0961 0,0.032 0,0.0641 0,0.0962 0,0.0322 0,0.0643 0,0.0965 0,0.0321 0,0.0643 0,0.0966 0,0.0322 0,0.0644 0,0.0967 0,0.0323 0,0.0646 0,0.0969 0,0.0323 0,0.0647 0,0.097 0,0.0324 0,0.0648 0,0.0973 0,0.0324 0,0.0648 0,0.0973 0,0.0325 0,0.065 0,0.0975 0,0.0325 0,0.0651 0,0.0977 0,0.0326 0,0.0652 0,0.0978 0,0.0326 0,0.0653 0,0.0979 0,0.0327 0,0.0654 0,0.0981 0,0.0328 0,0.0655 0,0.0983 0,0.0327 0,0.0655 0,0.0984 0,0.0328 0,0.0656 0,0.0985 0,0.0328 0,0.0657 0,0.0986 0,0.0329 0,0.0659 0,0.0988 0,0.033 0,0.066 0,0.099 0,0.033 0,0.066 0,0.099 0,0.0331 0,0.0662 0,0.0992 0,0.0331 0,0.0662 0,0.0994 0,0.0331 0,0.0663 0,0.0994 0,0.0332 0,0.0664 0,0.0996 0,0.0332 0,0.0665 0,0.0997 0,0.0333 0,0.0666 0,0.0999 0,0.0333 0,0.0666 0,0.1 0,0.0333 0,0.0667 0,0.1 0,0.0334 0,0.0668 0,0.1003 0,0.0334 0,0.0668 0,0.1003 0,0.0335 0,0.0669 0,0.1004 0,0.0335 0,0.0671 0,0.1006 0,0.0335 0,0.0671 0,0.1007 0,0.0336 0,0.0672 0,0.1008 0,0.0336 0,0.0672 0,0.1009 0,0.0336 0,0.0673 0,0.101 0,0.0337 0,0.0674 0,0.1011 0,0.0337 0,0.0675 0,0.1013 0,0.0337 0,0.0675 0,0.1013 0,0.0338 0,0.0676 0,0.1014 0,0.0339 0,0.0677 0,0.1016 0,0.0339 0,0.0677 0,0.1016 0,0.0339 0,0.0679 0,0.1018 0,0.0339 0,0.0679 0,0.1018 0,0.034 0,0.068 0,0.102 0,0.034 0,0.068 0,0.102 0,0.034 0,0.0681 0,0.1022 0,0.034 0,0.0681 0,0.1022 0,0.0341 0,0.0682 0,0.1023 0,0.0341 0,0.0683 0,0.1024 0,0.0342 0,0.0683 0,0.1025 0,0.0342 0,0.0684 0,0.1026 0,0.0342 0,0.0684 0,0.1027 0,0.0342 0,0.0685 0,0.1027 0,0.0343 0,0.0686 0,0.1029 0,0.0342 0,0.0686 0,0.1029 0,0.0343 0,0.0686 0,0.103 0,0.0343 0,0.0687 0,0.103 0,0.0344 0,0.0688 0,0.1032 0,0.0344 0,0.0688 0,0.1032 0,0.0344 0,0.0689 0,0.1033 0,0.0345 0,0.0689 0,0.1034 0,0.0345 0,0.069 0,0.1034 0,0.0345 0,0.069 0,0.1036 0,0.0345 0,0.069 0,0.1035 0,0.0346 0,0.0691 0,0.1037 0,0.0345 0,0.0691 0,0.1037 0,0.0346 0,0.0692 0,0.1038 0,0.0346 0,0.0692 0,0.1038 0,0.0346 0,0.0693 0,0.1039 0,0.0346 0,0.0693 0,0.104 0,0.0346 0,0.0693 0,0.104 0,0.0346 0,0.0693 0,0.104 0,0.0347 0,0.0694 0,0.1042 0,0.0347 0,0.0694 0,0.1041 0,0.0348 0,0.0695 0,0.1043 0,0.0347 0,0.0695 0,0.1042 0,0.0348 0,0.0696 0,0.1044 0,0.0347 0,0.0695 0,0.1043 0,0.0348 0,0.0696 0,0.1044 0,0.0349 0,0.0697 0,0.1045 0,0.0348 0,0.0697 0,0.1045 0,0.0349 0,0.0697 0,0.1046 0,0.0348 0,0.0697 0,0.1045 0,0.0349 0,0.0698 0,0.1047 0,0.0348 0,0.0697 0,0.1046 0,0.0349 0,0.0698 0,0.1047 0,0.0349 0,0.0698 0,0.1047 0,0.035 0,0.0699 0,0.1048 0,0.0349 0,0.0699 0,0.1048 0,0.0349 0,0.0699 0,0.1048 0,0.035 0,0.0699 0,0.1049 0,0.0349 0,0.0699 0,0.1048 0,0.035 0,0.07 0,0.1049 0,0.035 0,0.07 0,0.105 0,0.0349 0,0.0699 0,0.1049 0,0.035 0,0.07 0,0.105 0,0.035 0,0.0699 0,0.1049 0,0.035 0,0.07 0,0.105 0,0.035 0,0.0701 0,0.1051 0,0.035 0,0.07 0,0.105 0,0.035 0,0.07 0,0.105 0,0.035 0,0.0701 0,0.1051 0,0.035 0,0.07 0,0.105 0,0.0351 0,0.0701 0,0.1051 0,0.035 0,0.0701 0,0.1051 0,0.035 0,0.0701 0,0.1051 0,0.035 0,0.07 0,0.1051 0,0.035 0,0.07 0,0.1051 0,0.035 0,0.07 0,0.1051 0,0.035 0,0.07 0,0.105 0,0.0351 0,0.0701 0,0.1051 0,0.0351 0,0.0701 0,0.1051 0,0.0351 0,0.0701 0,0.1051 0,0.035 0,0.0701 0,0.1051 0,0.035 0,0.07 0,0.105 0,0.0351 0,0.0701 0,0.1051 0,0.035 0,0.07 0,0.105 0,0.0351 0,0.0701 0,0.1051 0,0.035 0,0.07 0,0.105 0,0.035 0,0.07 0,0.105 0,0.035 0,0.07 0,0.105 0,0.035 0,0.07 0,0.105 0,0.035 0,0.0699 0,0.1049 0,0.035 0,0.07 0,0.1049 0,0.035 0,0.07 0,0.105 0,0.0349 0,0.0699 0,0.1048 0,0.035 0,0.0699 0,0.1049 0,0.0349 0,0.0699 0,0.1048 0,0.035 0,0.0699 0,0.1048 0,0.035 0,0.0699 0,0.1048 0,0.0349 0,0.0698 0,0.1047 0,0.0349 0,0.0698 0,0.1047 0,0.0349 0,0.0698 0,0.1047 0,0.0349 0,0.0698 0,0.1046 0,0.0349 0,0.0698 0,0.1046 0,0.0349 0,0.0698 0,0.1046 0,0.0349 0,0.0697 0,0.1045 0,0.0349 0,0.0697 0,0.1045 0,0.0348 0,0.0696 0,0.1044 0,0.0348 0,0.0696 0,0.1044 0,0.0348 0,0.0696 0,0.1044 0,0.0347 0,0.0695 0,0.1043 0,0.0347 0,0.0695 0,0.1042 0,0.0347 0,0.0695 0,0.1042 0,0.0347 0,0.0694 0,0.1041 0,0.0347 0,0.0694 0,0.1041 0,0.0347 0,0.0694 0,0.1041 0,0.0346 0,0.0693 0,0.1039 0,0.0347 0,0.0693 0,0.104 0,0.0346 0,0.0692 0,0.1038 0,0.0346 0,0.0692 0,0.1038 0,0.0346 0,0.0692 0,0.1037 0,0.0346 0,0.0692 0,0.1037 0,0.0346 0,0.0691 0,0.1036 0,0.0345 0,0.0691 0,0.1036 0,0.0345 0,0.0689 0,0.1034 0,0.0345 0,0.069 0,0.1034 0,0.0345 0,0.0689 0,0.1033 0,0.0345 0,0.0689 0,0.1033 0,0.0344 0,0.0688 0,0.1032 0,0.0344 0,0.0687 0,0.1031 0,0.0343 0,0.0687 0,0.103 0,0.0343 0,0.0687 0,0.103 0,0.0343 0,0.0685 0,0.1028 0,0.0343 0,0.0686 0,0.1028 0,0.0343 0,0.0685 0,0.1027 0,0.0342 0,0.0684 0,0.1026 0,0.0342 0,0.0684 0,0.1025 0,0.0342 0,0.0684 0,0.1025 0,0.0341 0,0.0682 0,0.1023 0,0.0341 0,0.0682 0,0.1023 0,0.0341 0,0.0681 0,0.1022 0,0.034 0,0.068 0,0.102 0,0.0341 0,0.068 0,0.102 0,0.034 0,0.068 0,0.1019 0,0.034 0,0.0679 0,0.1018 0,0.0339 0,0.0678 0,0.1017 0,0.0339 0,0.0677 0,0.1016 0,0.0338 0,0.0676 0,0.1014 0,0.0339 0,0.0677 0,0.1014 0,0.0338 0,0.0676 0,0.1013 0,0.0337 0,0.0675 0,0.1012 0,0.0337 0,0.0673 0,0.101 0,0.0337 0,0.0673 0,0.101 0,0.0336 0,0.0672 0,0.1008 0,0.0336 0,0.0672 0,0.1007 0,0.0336 0,0.0671 0,0.1006 0,0.0335 0,0.067 0,0.1005 0,0.0335 0,0.0669 0,0.1004 0,0.0334 0,0.0668 0,0.1002 0,0.0334 0,0.0668 0,0.1002 0,0.0333 0,0.0667 0,0.1 0,0.0333 0,0.0666 0,0.0999 0,0.0332 0,0.0665 0,0.0997 0,0.0333 0,0.0665 0,0.0997 0,0.0332 0,0.0663 0,0.0995 0,0.0331 0,0.0663 0,0.0994 0,0.0331 0,0.0662 0,0.0992 0,0.0331 0,0.0661 0,0.0991 0,0.033 0,0.066 0,0.099 0,0.033 0,0.0659 0,0.0989 0,0.0329 0,0.0658 0,0.0987 0,0.0328 0,0.0657 0,0.0985 0,0.0329 0,0.0657 0,0.0985 0,0.0328 0,0.0655 0,0.0983 0,0.0327 0,0.0654 0,0.0981 0,0.0327 0,0.0654 0,0.098 0,0.0327 0,0.0653 0,0.0979 0,0.0326 0,0.0651 0,0.0977 0,0.0325 0,0.0651 0,0.0976 0,0.0324 0,0.0649 0,0.0974 0,0.0324 0,0.0648 0,0.0972 0,0.0324 0,0.0648 0,0.0971 0,0.0324 0,0.0647 0,0.097 0,0.0323 0,0.0645 0,0.0968 0,0.0322 0,0.0644 0,0.0966 0,0.0322 0,0.0644 0,0.0965 0,0.0321 0,0.0642 0,0.0963 0,0.0321 0,0.0642 0,0.0962 0,0.032 0,0.064 0,0.096 0,0.032 0,0.0639 0,0.0958 0,0.0319 0,0.0638 0,0.0957 0,0.0318 0,0.0637 0,0.0955 0,0.0318 0,0.0636 0,0.0953 0,0.0318 0,0.0635 0,0.0952 0,0.0316 0,0.0633 0,0.0949 0,0.0317 0,0.0633 0,0.0949 0,0.0315 0,0.0631 0,0.0946 0,0.0315 0,0.063 0,0.0944 0,0.0315 0,0.0629 0,0.0943 0,0.0314 0,0.0628 0,0.0941 0,0.0314 0,0.0627 0,0.0939 0,0.0313 0,0.0626 0,0.0938 0,0.0312 0,0.0624 0,0.0935 0,0.0312 0,0.0623 0,0.0934 0,0.0311 0,0.0621 0,0.0932 0,0.031 0,0.062 0,0.093 0,0.0309 0,0.0619 0,0.0928 0,0.0309 0,0.0617 0,0.0926 0,0.0308 0,0.0616 0,0.0924 0,0.0308 0,0.0615 0,0.0922 0,0.0307 0,0.0614 0,0.092 0,0.0307 0,0.0613 0,0.0919 0,0.0305 0,0.0611 0,0.0916 h 4 c 0,-0.0305 0,-0.0611 0,-0.0916 0,-0.0306 0,-0.0612 0,-0.0919 0,-0.0306 0,-0.0613 0,-0.092 0,-0.0307 0,-0.0614 0,-0.0922 0,-0.0308 0,-0.0616 0,-0.0924 0,-0.0309 0,-0.0617 0,-0.0926 0,-0.0309 0,-0.0619 0,-0.0928 0,-0.031 0,-0.062 0,-0.093 0,-0.0311 0,-0.0621 0,-0.0932 0,-0.0311 0,-0.0622 0,-0.0934 0,-0.0311 0,-0.0623 0,-0.0935 0,-0.0312 0,-0.0625 0,-0.0938 0,-0.0312 0,-0.0625 0,-0.0939 0,-0.0313 0,-0.0627 0,-0.0941 0,-0.0314 0,-0.0628 0,-0.0943 0,-0.0314 0,-0.0629 0,-0.0944 0,-0.0315 0,-0.0631 0,-0.0946 0,-0.0316 0,-0.0632 0,-0.0949 0,-0.0316 0,-0.0633 0,-0.0949 0,-0.0317 0,-0.0634 0,-0.0952 0,-0.0317 0,-0.0635 0,-0.0953 0,-0.0318 0,-0.0637 0,-0.0955 0,-0.0319 0,-0.0638 0,-0.0957 0,-0.0319 0,-0.0638 0,-0.0958 0,-0.032 0,-0.064 0,-0.096 0,-0.032 0,-0.0641 0,-0.0962 0,-0.0321 0,-0.0642 0,-0.0963 0,-0.0321 0,-0.0643 0,-0.0965 0,-0.0322 0,-0.0644 0,-0.0966 0,-0.0323 0,-0.0645 0,-0.0968 0,-0.0323 0,-0.0646 0,-0.097 0,-0.0323 0,-0.0647 0,-0.0971 0,-0.0324 0,-0.0648 0,-0.0972 0,-0.0325 0,-0.065 0,-0.0974 0,-0.0325 0,-0.0651 0,-0.0976 0,-0.0326 0,-0.0651 0,-0.0977 0,-0.0326 0,-0.0652 0,-0.0979 0,-0.0326 0,-0.0653 0,-0.098 0,-0.0327 0,-0.0654 0,-0.0981 0,-0.0328 0,-0.0655 0,-0.0983 0,-0.0328 0,-0.0656 0,-0.0985 0,-0.0328 0,-0.0657 0,-0.0985 0,-0.0329 0,-0.0658 0,-0.0987 0,-0.033 0,-0.0659 0,-0.0989 0,-0.033 0,-0.066 0,-0.099 0,-0.033 0,-0.066 0,-0.0991 0,-0.033 0,-0.0661 0,-0.0992 0,-0.0331 0,-0.0663 0,-0.0994 0,-0.0332 0,-0.0663 0,-0.0995 0,-0.0332 0,-0.0664 0,-0.0997 0,-0.0332 0,-0.0665 0,-0.0997 0,-0.0333 0,-0.0666 0,-0.0999 0,-0.0333 0,-0.0667 0,-0.1 0,-0.0334 0,-0.0668 0,-0.1002 0,-0.0334 0,-0.0668 0,-0.1002 0,-0.0335 0,-0.0669 0,-0.1004 0,-0.0335 0,-0.067 0,-0.1005 0,-0.0335 0,-0.067 0,-0.1006 0,-0.0335 0,-0.0671 0,-0.1007 0,-0.0336 0,-0.0672 0,-0.1008 0,-0.0337 0,-0.0673 0,-0.101 0,-0.0337 0,-0.0673 0,-0.101 0,-0.0337 0,-0.0675 0,-0.1012 0,-0.0337 0,-0.0675 0,-0.1013 0,-0.0337 0,-0.0675 0,-0.1014 0,-0.0338 0,-0.0676 0,-0.1014 0,-0.0339 0,-0.0677 0,-0.1016 0,-0.0339 0,-0.0678 0,-0.1017 0,-0.0339 0,-0.0678 0,-0.1018 0,-0.0339 0,-0.0679 0,-0.1019 0,-0.034 0,-0.0679 0,-0.102 0,-0.034 0,-0.068 0,-0.102 0,-0.0341 0,-0.0681 0,-0.1022 0,-0.0341 0,-0.0682 0,-0.1023 0,-0.0341 0,-0.0682 0,-0.1023 0,-0.0341 0,-0.0683 0,-0.1025 0,-0.0341 0,-0.0683 0,-0.1025 0,-0.0342 0,-0.0684 0,-0.1026 0,-0.0342 0,-0.0684 0,-0.1027 0,-0.0342 0,-0.0685 0,-0.1028 0,-0.0343 0,-0.0685 0,-0.1028 0,-0.0343 0,-0.0687 0,-0.103 0,-0.0343 0,-0.0687 0,-0.103 0,-0.0344 0,-0.0687 0,-0.1031 0,-0.0344 0,-0.0688 0,-0.1032 0,-0.0344 0,-0.0688 0,-0.1033 0,-0.0344 0,-0.0688 0,-0.1033 0,-0.0344 0,-0.0689 0,-0.1034 0,-0.0345 0,-0.0689 0,-0.1034 0,-0.0345 0,-0.0691 0,-0.1036 0,-0.0345 0,-0.069 0,-0.1036 0,-0.0345 0,-0.0691 0,-0.1037 0,-0.0345 0,-0.0691 0,-0.1037 0,-0.0346 0,-0.0692 0,-0.1038 0,-0.0346 0,-0.0692 0,-0.1038 0,-0.0347 0,-0.0693 0,-0.104 0,-0.0346 0,-0.0693 0,-0.1039 0,-0.0347 0,-0.0694 0,-0.1041 0,-0.0347 0,-0.0694 0,-0.1041 0,-0.0347 0,-0.0694 0,-0.1041 0,-0.0347 0,-0.0695 0,-0.1042 0,-0.0347 0,-0.0695 0,-0.1042 0,-0.0348 0,-0.0696 0,-0.1043 0,-0.0348 0,-0.0696 0,-0.1044 0,-0.0348 0,-0.0696 0,-0.1044 0,-0.0348 0,-0.0696 0,-0.1044 0,-0.0348 0,-0.0696 0,-0.1045 0,-0.0348 0,-0.0696 0,-0.1045 0,-0.0348 0,-0.0697 0,-0.1046 0,-0.0348 0,-0.0697 0,-0.1046 0,-0.0348 0,-0.0697 0,-0.1046 0,-0.0349 0,-0.0698 0,-0.1047 0,-0.0349 0,-0.0698 0,-0.1047 0,-0.0349 0,-0.0698 0,-0.1047 0,-0.0349 0,-0.0698 0,-0.1048 0,-0.0349 0,-0.0698 0,-0.1048 0,-0.0349 0,-0.0699 0,-0.1048 0,-0.035 0,-0.0699 0,-0.1049 0,-0.0349 0,-0.0699 0,-0.1048 0,-0.035 0,-0.07 0,-0.105 0,-0.0349 0,-0.0699 0,-0.1049 0,-0.035 0,-0.0699 0,-0.1049 0,-0.035 0,-0.07 0,-0.105 0,-0.035 0,-0.07 0,-0.105 0,-0.035 0,-0.07 0,-0.105 0,-0.035 0,-0.07 0,-0.105 0,-0.035 0,-0.07 0,-0.1051 0,-0.035 0,-0.07 0,-0.105 0,-0.035 0,-0.07 0,-0.1051 0,-0.035 0,-0.07 0,-0.105 0,-0.035 0,-0.0701 0,-0.1051 0,-0.035 0,-0.07 0,-0.1051 0,-0.035 0,-0.07 0,-0.1051 0,-0.035 0,-0.07 0,-0.1051 0,-0.035 0,-0.07 0,-0.105 0,-0.0351 0,-0.0701 0,-0.1051 0,-0.0351 0,-0.0701 0,-0.1051 0,-0.0351 0,-0.0701 0,-0.1051 0,-0.035 0,-0.0701 0,-0.1051 0,-0.035 0,-0.0701 0,-0.1051 0,-0.035 0,-0.07 0,-0.1051 0,-0.035 0,-0.07 0,-0.105 0,-0.035 0,-0.0701 0,-0.1051 0,-0.035 0,-0.07 0,-0.105 0,-0.035 0,-0.07 0,-0.105 0,-0.035 0,-0.0701 0,-0.1051 0,-0.035 0,-0.07 0,-0.105 0,-0.035 0,-0.0699 0,-0.1049 0,-0.035 0,-0.07 0,-0.105 0,-0.035 0,-0.07 0,-0.1049 0,-0.035 0,-0.07 0,-0.105 0,-0.0349 0,-0.0699 0,-0.1049 0,-0.0349 0,-0.0699 0,-0.1048 0,-0.035 0,-0.0699 0,-0.1049 0,-0.0349 0,-0.0699 0,-0.1048 0,-0.0349 0,-0.0699 0,-0.1048 0,-0.0349 0,-0.0698 0,-0.1048 0,-0.0349 0,-0.0698 0,-0.1047 0,-0.0349 0,-0.0698 0,-0.1047 0,-0.0349 0,-0.0698 0,-0.1046 0,-0.0349 0,-0.0698 0,-0.1047 0,-0.0348 0,-0.0697 0,-0.1045 0,-0.0349 0,-0.0697 0,-0.1046 0,-0.0348 0,-0.0697 0,-0.1045 0,-0.0348 0,-0.0696 0,-0.1045 0,-0.0348 0,-0.0696 0,-0.1044 0,-0.0348 0,-0.0696 0,-0.1043 0,-0.0348 0,-0.0696 0,-0.1044 0,-0.0347 0,-0.0695 0,-0.1042 0,-0.0348 0,-0.0695 0,-0.1043 0,-0.0347 0,-0.0694 0,-0.1041 0,-0.0348 0,-0.0695 0,-0.1042 0,-0.0347 0,-0.0694 0,-0.104 0,-0.0347 0,-0.0694 0,-0.104 0,-0.0347 0,-0.0694 0,-0.104 0,-0.0346 0,-0.0693 0,-0.1039 0,-0.0346 0,-0.0692 0,-0.1038 0,-0.0346 0,-0.0692 0,-0.1038 0,-0.0346 0,-0.0692 0,-0.1037 0,-0.0346 0,-0.0691 0,-0.1037 0,-0.0345 0,-0.069 0,-0.1035 0,-0.0346 0,-0.0691 0,-0.1036 0,-0.0344 0,-0.0689 0,-0.1034 0,-0.0345 0,-0.0689 0,-0.1034 0,-0.0344 0,-0.0689 0,-0.1033 0,-0.0344 0,-0.0688 0,-0.1032 0,-0.0344 0,-0.0688 0,-0.1032 0,-0.0343 0,-0.0687 0,-0.103 0,-0.0344 0,-0.0687 0,-0.103 0,-0.0343 0,-0.0687 0,-0.1029 0,-0.0343 0,-0.0686 0,-0.1029 0,-0.0342 0,-0.0685 0,-0.1027 0,-0.0343 0,-0.0685 0,-0.1027 0,-0.0342 0,-0.0684 0,-0.1026 0,-0.0342 0,-0.0683 0,-0.1025 0,-0.0341 0,-0.0683 0,-0.1024 0,-0.0341 0,-0.0682 0,-0.1023 0,-0.0341 0,-0.0682 0,-0.1022 0,-0.0341 0,-0.0682 0,-0.1022 0,-0.034 0,-0.068 0,-0.102 0,-0.034 0,-0.068 0,-0.102 0,-0.0339 0,-0.0679 0,-0.1018 0,-0.0339 0,-0.0679 0,-0.1018 0,-0.0339 0,-0.0677 0,-0.1016 0,-0.0339 0,-0.0677 0,-0.1016 0,-0.0338 0,-0.0676 0,-0.1014 0,-0.0338 0,-0.0676 0,-0.1013 0,-0.0338 0,-0.0676 0,-0.1013 0,-0.0337 0,-0.0674 0,-0.1011 0,-0.0337 0,-0.0674 0,-0.101 0,-0.0337 0,-0.0673 0,-0.1009 0,-0.0336 0,-0.0672 0,-0.1008 0,-0.0336 0,-0.0672 0,-0.1007 0,-0.0335 0,-0.0671 0,-0.1006 0,-0.0335 0,-0.0669 0,-0.1004 0,-0.0335 0,-0.0669 0,-0.1003 0,-0.0335 0,-0.0669 0,-0.1003 0,-0.0333 0,-0.0667 0,-0.1 0,-0.0334 0,-0.0667 0,-0.1 0,-0.0333 0,-0.0666 0,-0.0999 0,-0.0332 0,-0.0665 0,-0.0997 0,-0.0332 0,-0.0664 0,-0.0996 0,-0.0331 0,-0.0663 0,-0.0994 0,-0.0332 0,-0.0663 0,-0.0994 0,-0.033 0,-0.0661 0,-0.0992 0,-0.033 0,-0.066 0,-0.099 0,-0.033 0,-0.066 0,-0.099 0,-0.0329 0,-0.0659 0,-0.0988 0,-0.0329 0,-0.0658 0,-0.0986 0,-0.0329 0,-0.0657 0,-0.0985 0,-0.0329 0,-0.0657 0,-0.0984 0,-0.0328 0,-0.0655 0,-0.0983 0,-0.0327 0,-0.0654 0,-0.0981 0,-0.0326 0,-0.0653 0,-0.0979 0,-0.0326 0,-0.0652 0,-0.0978 0,-0.0326 0,-0.0652 0,-0.0977 0,-0.0325 0,-0.065 0,-0.0975 0,-0.0325 0,-0.0649 0,-0.0973 0,-0.0325 0,-0.0649 0,-0.0973 0,-0.0323 0,-0.0647 0,-0.097 0,-0.0323 0,-0.0646 0,-0.0969 0,-0.0323 0,-0.0645 0,-0.0967 0,-0.0323 0,-0.0645 0,-0.0966 0,-0.0322 0,-0.0643 0,-0.0965 0,-0.0321 0,-0.0642 0,-0.0962 0,-0.0321 0,-0.0641 0,-0.0961 0,-0.032 0,-0.064 0,-0.096 0,-0.0319 0,-0.0638 0,-0.0957 0,-0.0319 0,-0.0638 0,-0.0956 0,-0.0319 0,-0.0637 0,-0.0955 0,-0.0318 0,-0.0635 0,-0.0952 0,-0.0318 0,-0.0635 0,-0.0951 0,-0.0317 0,-0.0633 0,-0.095 0,-0.0316 0,-0.0631 0,-0.0947 0,-0.0316 0,-0.0631 0,-0.0946 0,-0.0315 0,-0.0629 0,-0.0944 0,-0.0314 0,-0.0628 0,-0.0942 0,-0.0314 0,-0.0627 0,-0.094 0,-0.0313 0,-0.0626 0,-0.0939 0,-0.0312 0,-0.0624 0,-0.0936 0,-0.0312 0,-0.0624 0,-0.0935 0,-0.0312 0,-0.0623 0,-0.0933 0,-0.0311 0,-0.0621 0,-0.0931 0,-0.031 0,-0.062 0,-0.093 0,-0.0309 0,-0.0618 0,-0.0927 0,-0.0309 0,-0.0617 0,-0.0925 0,-0.0308 0,-0.0616 0,-0.0924 0,-0.0307 0,-0.0614 0,-0.0921 0,-0.0307 0,-0.0614 0,-0.092 0,-0.0306 0,-0.0612 0,-0.0917 0,-0.0306 0,-0.0611 0,-0.0916 0,-0.0305 0,-0.0609 0,-0.0914 0,-0.0304 0,-0.0608 0,-0.0911 0,-0.0304 0,-0.0607 0,-0.091 0,-0.0302 0,-0.0605 0,-0.0907 0,-0.0302 0,-0.0604 0,-0.0905 0,-0.0302 0,-0.0603 0,-0.0904 0,-0.03 0,-0.0601 0,-0.0901 0,-0.03 0,-0.06 0,-0.0899 0,-0.0299 0,-0.0598 0,-0.0897 0,-0.0299 0,-0.0597 0,-0.0895 0,-0.0298 0,-0.0595 0,-0.0892 0,-0.0298 0,-0.0594 0,-0.0891 0,-0.0296 0,-0.0592 0,-0.0888 0,-0.0296 0,-0.0591 0,-0.0886 0,-0.0295 0,-0.059 0,-0.0884 0,-0.0294 0,-0.0588 0,-0.0882 0,-0.0293 0,-0.0586 0,-0.0879 0,-0.0293 0,-0.0585 0,-0.0877 0,-0.0292 0,-0.0584 0,-0.0875 0,-0.0291 0,-0.0582 0,-0.0873 0,-0.029 0,-0.058 0,-0.087 0,-0.029 0,-0.0579 0,-0.0868 0,-0.0289 0,-0.0577 0,-0.0865 0,-0.0289 0,-0.0576 0,-0.0864 0,-0.0287 0,-0.0574 0,-0.0861 0,-0.0286 0,-0.0572 0,-0.0858 0,-0.0286 0,-0.0571 0,-0.0856 0,-0.0285 0,-0.057 0,-0.0854 0,-0.0284 0,-0.0568 0,-0.0851 0,-0.0284 0,-0.0566 0,-0.0849 0,-0.0283 0,-0.0565 0,-0.0846 0,-0.0282 0,-0.0563 0,-0.0844 0,-0.0281 0,-0.0562 0,-0.0842 0,-0.028 0,-0.0559 0,-0.0839 0,-0.0279 0,-0.0558 0,-0.0836 0,-0.0278 0,-0.0556 0,-0.0834 0,-0.0277 0,-0.0555 0,-0.0831 0,-0.0277 0,-0.0553 0,-0.0829 0,-0.0276 0,-0.0551 0,-0.0826 0,-0.0275 0,-0.055 0,-0.0824 0,-0.0274 0,-0.0548 0,-0.0821 0,-0.0273 0,-0.0546 0,-0.0818 0,-0.0273 0,-0.0545 0,-0.0816 0,-0.0272 0,-0.0543 0,-0.0813 0,-0.0271 0,-0.0541 0,-0.0811 0,-0.0269 0,-0.0539 0,-0.0807 0,-0.0269 0,-0.0538 0,-0.0806 0,-0.0267 0,-0.0535 0,-0.0802 0,-0.0267 0,-0.0534 0,-0.08 0,-0.0266 0,-0.0531 0,-0.0797 0,-0.0265 0,-0.0529 0,-0.0794 0,-0.0264 0,-0.0528 0,-0.0791 0,-0.0263 0,-0.0526 0,-0.0789 0,-0.0262 0,-0.0524 0,-0.0786 0,-0.0261 0,-0.0522 0,-0.0783 0,-0.026 0,-0.052 0,-0.07799 0,-0.02595 0,-0.05187 0,-0.07773 0,-0.02587 0,-0.05168 0,-0.07745 0,-0.02577 0,-0.05149 0,-0.07717 0,-0.02567 0,-0.0513 0,-0.07687 0,-0.02558 0,-0.05111 0,-0.07659 0,-0.02548 0,-0.05091 0,-0.0763 0,-0.02538 0,-0.05071 0,-0.076 0,-0.02528 0,-0.05052 0,-0.0757 0,-0.02519 0,-0.05033 0,-0.07542 0,-0.02508 0,-0.05012 0,-0.07511 0,-0.02499 0,-0.04993 0,-0.07482 0,-0.02489 0,-0.04972 0,-0.07451 0,-0.02479 0,-0.04953 0,-0.07422 0,-0.02468 0,-0.04932 0,-0.07391 0,-0.02458 0,-0.04912 0,-0.0736 0,-0.02449 0,-0.04892 0,-0.0733 0,-0.02439 0,-0.04872 0,-0.073 0,-0.02427 0,-0.0485 0,-0.07268 0,-0.02417 0,-0.0483 0,-0.07237 0,-0.02407 0,-0.04809 0,-0.07206 0,-0.02397 0,-0.04788 0,-0.07175 0,-0.02386 0,-0.04767 0,-0.07143 0,-0.02376 0,-0.04746 0,-0.07111 0,-0.02366 0,-0.04726 0,-0.0708 0,-0.02355 0,-0.04704 0,-0.07048 0,-0.02344 0,-0.04682 0,-0.07016 0,-0.02333 0,-0.04661 0,-0.06983 0,-0.02323 0,-0.0464 0,-0.06951 0,-0.02312 0,-0.04618 0,-0.06919 0,-0.023 0,-0.04596 0,-0.06885 0,-0.0229 0,-0.04575 0,-0.06853 0,-0.02279 0,-0.04553 0,-0.0682 0,-0.02268 0,-0.0453 0,-0.06787 0,-0.02257 0,-0.04508 0,-0.06754 0,-0.02245 0,-0.04485 0,-0.0672 0,-0.02234 0,-0.04463 0,-0.06686 0,-0.02224 0,-0.04441 0,-0.06653 0,-0.02212 0,-0.04419 0,-0.06619 0,-0.02201 0,-0.04396 0,-0.06585 0,-0.02189 0,-0.04373 0,-0.06551 0,-0.02178 0,-0.0435 0,-0.06516 0,-0.02167 0,-0.04327 0,-0.06482 0,-0.02155 0,-0.04304 0,-0.06448 0,-0.02143 0,-0.04281 0,-0.06412 0,-0.02132 0,-0.04258 0,-0.06378 0,-0.0212 0,-0.04234 0,-0.06343 0,-0.02108 0,-0.0421 0,-0.06307 0,-0.02097 0,-0.04187 0,-0.06272 0,-0.02085 0,-0.04164 0,-0.06237 0,-0.02072 0,-0.04139 0,-0.062 0,-0.02061 0,-0.04116 0,-0.06165 0,-0.0205 0,-0.04093 0,-0.0613 0,-0.02037 0,-0.04068 0,-0.06093 0,-0.02025 0,-0.04044 0,-0.06056 0,-0.02013 0,-0.0402 0,-0.06021 0,-0.02001 0,-0.03995 0,-0.05984 0,-0.01988 0,-0.03971 0,-0.05947 0,-0.01976 0,-0.03946 0,-0.0591 0,-0.01964 0,-0.03922 0,-0.05874 0,-0.01951 0,-0.03897 0,-0.05836 0,-0.01939 0,-0.03872 0,-0.05799 0,-0.01926 0,-0.03847 0,-0.05761 0,-0.01914 0,-0.03822 0,-0.05724 0,-0.01902 0,-0.03797 0,-0.05686 0,-0.01889 0,-0.03772 0,-0.05649 0,-0.01876 0,-0.03746 0,-0.0561 0,-0.01864 0,-0.03721 0,-0.05572 0,-0.01851 0,-0.03696 0,-0.05534 0,-0.01838 0,-0.0367 0,-0.05495 0,-0.01826 0,-0.03644 0,-0.05457 0,-0.01812 0,-0.03618 0,-0.05418 0,-0.01799 0,-0.03592 0,-0.05379 0,-0.01786 0,-0.03566 0,-0.0534 0,-0.01773 0,-0.0354 0,-0.05301 0,-0.0176 0,-0.03514 0,-0.05261 0,-0.01747 0,-0.03488 0,-0.05222 0,-0.01734 0,-0.03462 0,-0.05182 0,-0.01721 0,-0.03435 0,-0.05143 0,-0.01707 0,-0.03408 0,-0.05102 0,-0.01694 0,-0.03382 0,-0.05063 0,-0.01681 0,-0.03355 0,-0.05022 0,-0.01667 0,-0.03328 0,-0.04982 0,-0.01654 0,-0.03301 0,-0.04941 0,-0.0164 0,-0.03274 0,-0.049 0,-0.01627 0,-0.03247 0,-0.0486 0,-0.01613 0,-0.0322 0,-0.04819 0,-0.01599 0,-0.03192 0,-0.04778 0,-0.01585 0,-0.03164 0,-0.04736 0,-0.01572 0,-0.03137 0,-0.04695 0,-0.01558 0,-0.03109 0,-0.04653 0,-0.01544 0,-0.03081 0,-0.04612 0,-0.0153 0,-0.03053 0,-0.04569 0,-0.01517 0,-0.03026 0,-0.04528 0,-0.01502 0,-0.02997 0,-0.04485 0,-0.01489 0,-0.0297 0,-0.04444 0,-0.01474 0,-0.02941 0,-0.044 0,-0.0146 0,-0.02913 0,-0.04359 0,-0.01445 0,-0.02884 0,-0.04315 0,-0.01431 0,-0.02855 0,-0.04272 0,-0.01417 0,-0.02827 0,-0.0423 0,-0.01402 0,-0.02798 0,-0.04186 0,-0.01388 0,-0.02769 0,-0.04143 0,-0.01373 0,-0.0274 0,-0.04099 0,-0.01359 0,-0.02711 0,-0.04056 0,-0.01344 0,-0.02681 0,-0.04011 0,-0.0133 0,-0.02653 0,-0.03968 0,-0.01316 0,-0.02624 0,-0.03924 0,-0.01301 0,-0.02594 0,-0.0388 0,-0.01286 0,-0.02564 0,-0.03835 0,-0.01271 0,-0.02534 0,-0.03791 0,-0.01256 0,-0.02504 0,-0.03745 0,-0.01242 0,-0.02475 0,-0.03702 0,-0.01226 0,-0.02444 0,-0.03656 0,-0.01211 0,-0.02415 0,-0.03611 0,-0.01196 0,-0.02384 0,-0.03565 0,-0.01181 0,-0.02355 0,-0.03521 0,-0.01165 0,-0.02324 0,-0.03474 0,-0.01151 0,-0.02294 0,-0.03429 0,-0.01136 0,-0.02263 0,-0.03383 0,-0.0112 0,-0.02233 0,-0.03337 0,-0.01105 0,-0.02202 0,-0.03291 0,-0.0109 0,-0.02171 0,-0.03245 0,-0.01074 0,-0.0214 0,-0.03198 0,-0.01058 0,-0.02109 0,-0.03152 0,-0.01042 0,-0.02077 0,-0.03104 0,-0.01027 0,-0.02047 0,-0.03058 0,-0.01012 0,-0.02015 0,-0.03011 0,-0.00996 0,-0.01984 0,-0.02963 0,-0.0098 0,-0.01953 0,-0.02917 0,-0.00964 0,-0.0192 0,-0.02868 0,-0.00949 0,-0.01889 0,-0.02821 0,-0.00933 0,-0.01857 0,-0.02774 0,-0.00916 0,-0.01825 0,-0.02725 0,-0.009 0,-0.01793 0,-0.02677 0,-0.00885 0,-0.01761 0,-0.02629 0,-0.00868 0,-0.01729 0,-0.02581 0,-0.00852 0,-0.01696 0,-0.02532 0,-0.00836 0,-0.01663 0,-0.02483 0,-0.0082 0,-0.01631 0,-0.02435 0,-0.00803 0,-0.01598 0,-0.02385 0,-0.00787 0,-0.01566 0,-0.02337 0,-0.0077 0,-0.01532 0,-0.02287 0,-0.00754 0,-0.015 0,-0.02237 0,-0.00738 0,-0.01467 0,-0.02188 0,-0.00721 0,-0.01434 0,-0.02139 0,-0.00704 0,-0.014 0,-0.02088 0,-0.00688 0,-0.01368 0,-0.02039 0,-0.00671 0,-0.01334 0,-0.01988 0,-0.00654 0,-0.013 0,-0.01938 0,-0.00638 0,-0.01267 0,-0.01888 0,-0.0062 0,-0.01233 0,-0.01836 0,-0.00604 0,-0.012 0,-0.01787 0,-0.00587 0,-0.01165 0,-0.01735 0,-0.0057 0,-0.01131 0,-0.01684 0,-0.00553 0,-0.01097 0,-0.01633 0,-0.00536 0,-0.01063 0,-0.01582 0,-0.00518 0,-0.01028 0,-0.0153 0,-0.00501 0,-0.00994 0,-0.01478 0,-0.00484 0,-0.0096 0,-0.01427 0,-0.00467 0,-0.00925 0,-0.01375 0,-0.00449 0,-0.0089 0,-0.01322 0,-0.00432 0,-0.00856 0,-0.01271 0,-0.00414 0,-0.0082 0,-0.01217 0,-0.00398 0,-0.00786 0,-0.01166 0,-0.0038 0,-0.00751 0,-0.01113 0,-0.00362 0,-0.00715 0,-0.0106 0,-0.00344 0,-0.0068 0,-0.01007 0,-0.00326 0,-0.00644 0,-0.00953 0,-0.00309 0,-0.0061 0,-0.00901 0,-0.00291 0,-0.00573 0,-0.00847 0,-0.00273 0,-0.00538 0,-0.00793 0,-0.00256 0,-0.00503 0,-0.0074 0,-0.00238 0,-0.00466 0,-0.00686 0,-0.0022 0,-0.0043 0,-0.00632 0,-0.00202 0,-0.00394 0,-0.00578 0,-0.00183 0,-0.00358 0,-0.00523 0,-0.00166 0,-0.00322 0,-0.00469 0,-0.00147 0,-0.00285 0,-0.00414 0,-0.00129 0,-0.00249 0,-0.0036 0,-0.00111 0,-0.00212 0,-0.00305 0,-9.2e-4 0,-0.00175 0,-0.00249 0,-7.4e-4 0,-0.00139 0,-0.00195 0,-5.5e-4 0,-0.00101 0,-0.00139 0,-3.7e-4 0,-6.5e-4 0,-8.3e-4 0,-1.9e-4 0,-2.8e-4 -2,-2.8e-4 z"
     fill="#ffffff"
     id="path4" />
</svg>
