<?xml version="1.0" encoding="UTF-8" standalone="no"?>
<svg
   width="16.41761"
   height="8.00315"
   viewBox="0 0 16.41761 8.00315"
   fill="none"
   version="1.1"
   id="svg296"
   sodipodi:docname="ControlButton_Right.svg"
   inkscape:version="1.2.1 (9c6d41e410, 2022-07-14)"
   xmlns:inkscape="http://www.inkscape.org/namespaces/inkscape"
   xmlns:sodipodi="http://sodipodi.sourceforge.net/DTD/sodipodi-0.dtd"
   xmlns="http://www.w3.org/2000/svg"
   xmlns:svg="http://www.w3.org/2000/svg">
  <defs
     id="defs300" />
  <sodipodi:namedview
     id="namedview298"
     pagecolor="#ffffff"
     bordercolor="#000000"
     borderopacity="0.25"
     inkscape:showpageshadow="2"
     inkscape:pageopacity="0.0"
     inkscape:pagecheckerboard="0"
     inkscape:deskcolor="#d1d1d1"
     showgrid="false"
     inkscape:zoom="32.541667"
     inkscape:cx="2.4430218"
     inkscape:cy="5.7925736"
     inkscape:window-width="1920"
     inkscape:window-height="997"
     inkscape:window-x="-9"
     inkscape:window-y="45"
     inkscape:window-maximized="1"
     inkscape:current-layer="svg296" />
  <path
     d="m 10.41761,7 c -0.5523,0 -1,-0.44772 -1,-1 0,-0.55228 0.4477,-1 1,-1 z m 5,-1 h 1 c 0,0.55228 -0.4477,1 -1,1 z m -1,-5 c 0,-0.55228 0.4477,-1 1,-1 0.5523,0 1,0.44772 1,1 z m -4,4 h 5 v 2 h -5 z m 4,1 V 1 h 2 v 5 z"
     fill="#ffffff"
     id="path292"
     style="display:inline" />
  <path
     d="M 1,7.00315 C 1.56069,5.61541 2.49943,4.41278 3.70955,3.53197 4.91966,2.65116 6.3526,2.12749 7.84551,2.02048 c 1.4929,-0.10702 2.9859,0.20692 4.3092,0.90613 1.3234,0.69921 2.4241,1.75565 3.177,3.04923"
     stroke="#ffffff"
     stroke-width="2"
     stroke-linecap="round"
     stroke-linejoin="round"
     id="path294" />
</svg>
