<svg width="24" height="24" viewBox="0 0 24 24" fill="none" xmlns="http://www.w3.org/2000/svg">
<path fill-rule="evenodd" clip-rule="evenodd" d="M9.32045 8.82247C8.63865 7.3779 8.40277 5.78458 8.62937 4.22787C10.9394 5.06133 12.422 6.46752 13.2502 8.06321C14.1795 9.8537 14.3246 11.9608 13.7782 13.9197C12.7507 17.6039 9.32355 20.6571 4.26916 19.8771C4.88791 18.4359 5.91941 17.1784 7.2593 16.2573C9.0016 15.0595 10.1239 14.4235 11.9588 14.4992C12.4298 14.5186 12.8504 14.2064 12.9683 13.75C13.0861 13.2935 12.8691 12.8168 12.4476 12.6058C10.8356 11.7989 10.2083 10.7036 9.32045 8.82247ZM7.89906 2.00761C8.05684 1.98995 8.21693 2.00305 8.37026 2.04657C11.6299 2.96279 13.8293 4.8374 15.0254 7.1419C16.2126 9.42947 16.372 12.0645 15.7047 14.457C14.3632 19.267 9.62815 23.2191 2.93881 21.6544L2.93177 21.6527L2.92475 21.651C2.77222 21.613 2.62691 21.5457 2.49772 21.4513C2.36842 21.3568 2.25735 21.2366 2.17287 21.0961C2.08832 20.9555 2.03254 20.7981 2.01055 20.633C1.98856 20.4679 2.00106 20.3003 2.04694 20.1408L2.04923 20.1328L2.05165 20.1249C2.73341 17.8931 4.17125 15.9532 6.12628 14.6092C7.22428 13.8544 8.24161 13.1991 9.43823 12.8251C8.60089 11.9145 8.06459 10.8474 7.51178 9.67612C6.51269 7.55929 6.28014 5.17876 6.8538 2.91731C6.89467 2.75406 6.96894 2.60282 7.07006 2.4722C7.17218 2.34027 7.29919 2.23253 7.44157 2.15355C7.5839 2.0746 7.73958 2.02547 7.89906 2.00761ZM20.0046 7.7252C20.0046 8.22599 19.5935 8.65033 19.0637 8.65033C18.5339 8.65033 18.1228 8.22599 18.1228 7.7252C18.1228 7.22442 18.5339 6.80008 19.0637 6.80008C19.5935 6.80008 20.0046 7.22442 20.0046 7.7252ZM22.0046 7.7252C22.0046 9.34071 20.6879 10.6503 19.0637 10.6503C17.4395 10.6503 16.1228 9.34071 16.1228 7.7252C16.1228 6.1097 17.4395 4.80008 19.0637 4.80008C20.6879 4.80008 22.0046 6.1097 22.0046 7.7252Z" fill="#702D87"/>
</svg>
