<svg width="29" height="29" viewBox="0 0 29 29" fill="none" xmlns="http://www.w3.org/2000/svg">
<path d="M27.0001 15.0586C27.0001 14.2178 26.9256 13.4196 26.7979 12.6427H14.7716V17.4426H21.6575C21.3488 19.0177 20.4442 20.348 19.1032 21.2527V24.4455H23.2113C25.6166 22.2212 27.0001 18.9432 27.0001 15.0586Z" fill="#4285F4"/>
<path d="M14.7713 27.5426C18.2195 27.5426 21.1037 26.3932 23.211 24.4456L19.1029 21.2527C17.9535 22.019 16.4954 22.4873 14.7713 22.4873C11.4401 22.4873 8.6198 20.2417 7.60874 17.2085H3.37292V20.4971C5.46954 24.6691 9.77985 27.5426 14.7713 27.5426Z" fill="#34A853"/>
<path d="M7.60878 17.2085C7.34271 16.4422 7.20436 15.6227 7.20436 14.7713C7.20436 13.9199 7.35336 13.1004 7.60878 12.3341V9.04553H3.37297C2.50027 10.7697 2.00006 12.7066 2.00006 14.7713C2.00006 16.836 2.50027 18.773 3.37297 20.4971L7.60878 17.2085Z" fill="#FBBC05"/>
<path d="M14.7713 7.0553C16.6551 7.0553 18.3366 7.70451 19.667 8.97099L23.3068 5.33118C21.1037 3.26649 18.2195 2 14.7713 2C9.77985 2 5.46954 4.87354 3.37292 9.04549L7.60874 12.3341C8.6198 9.30092 11.4401 7.0553 14.7713 7.0553Z" fill="#EA4335"/>
</svg>
