<svg width="35" height="35" viewBox="0 0 35 35" fill="none" xmlns="http://www.w3.org/2000/svg">
<path d="M30.6237 18.9584H31.6237C31.6237 18.4061 31.176 17.9584 30.6237 17.9584V18.9584ZM30.6237 17.9584H24.7904V19.9584H30.6237V17.9584ZM22.332 20.4167V27.7084H24.332V20.4167H22.332ZM24.7904 30.1667H29.1654V28.1667H24.7904V30.1667ZM31.6237 27.7084V18.9584H29.6237V27.7084H31.6237ZM29.1654 30.1667C30.5231 30.1667 31.6237 29.0661 31.6237 27.7084H29.6237C29.6237 27.9615 29.4185 28.1667 29.1654 28.1667V30.1667ZM22.332 27.7084C22.332 29.0661 23.4327 30.1667 24.7904 30.1667V28.1667C24.5372 28.1667 24.332 27.9615 24.332 27.7084H22.332ZM24.7904 17.9584C23.4327 17.9584 22.332 19.059 22.332 20.4167H24.332C24.332 20.1636 24.5372 19.9584 24.7904 19.9584V17.9584Z" fill="#C2A9CE"/>
<path d="M4.375 18.9584V17.9584C3.82272 17.9584 3.375 18.4061 3.375 18.9584H4.375ZM4.375 19.9584H10.2083V17.9584H4.375V19.9584ZM10.6667 20.4167V27.7084H12.6667V20.4167H10.6667ZM10.2083 28.1667H5.83333V30.1667H10.2083V28.1667ZM5.375 27.7084V18.9584H3.375V27.7084H5.375ZM5.83333 28.1667C5.5802 28.1667 5.375 27.9615 5.375 27.7084H3.375C3.375 29.0661 4.47563 30.1667 5.83333 30.1667V28.1667ZM10.6667 27.7084C10.6667 27.9615 10.4615 28.1667 10.2083 28.1667V30.1667C11.566 30.1667 12.6667 29.0661 12.6667 27.7084H10.6667ZM10.2083 19.9584C10.4615 19.9584 10.6667 20.1636 10.6667 20.4167H12.6667C12.6667 19.059 11.566 17.9584 10.2083 17.9584V19.9584Z" fill="#C2A9CE"/>
<path d="M4.375 18.9584C4.375 11.7096 10.2513 5.83337 17.5 5.83337C24.7487 5.83337 30.625 11.7096 30.625 18.9584" stroke="#C2A9CE" stroke-width="2" stroke-linecap="round" stroke-linejoin="round"/>
</svg>
