<svg width="18" height="19" viewBox="0 0 18 19" fill="none" xmlns="http://www.w3.org/2000/svg">
<path d="M16.6585 7.37487L9.6585 1.24987C9.28148 0.919967 8.71852 0.919967 8.3415 1.24986L1.3415 7.37487C1.12448 7.56475 1 7.83908 1 8.12744V16.9999C1 17.5522 1.44772 17.9999 2 17.9999H6C6.55228 17.9999 7 17.5522 7 16.9999V12.9999C7 12.4476 7.44772 11.9999 8 11.9999H10C10.5523 11.9999 11 12.4476 11 12.9999V16.9999C11 17.5522 11.4477 17.9999 12 17.9999H16C16.5523 17.9999 17 17.5522 17 16.9999V8.12744C17 7.83908 16.8755 7.56475 16.6585 7.37487Z" stroke="#702D87" stroke-width="2" stroke-linecap="round" stroke-linejoin="round"/>
</svg>
