<svg width="24" height="24" viewBox="0 0 24 24" fill="none" xmlns="http://www.w3.org/2000/svg">
<path d="M17 13H21V19C21 19.5523 20.5523 20 20 20H17C16.4477 20 16 19.5523 16 19V14C16 13.4477 16.4477 13 17 13Z" stroke="white" stroke-width="2" stroke-linecap="round" stroke-linejoin="round"/>
<path d="M7 13H3V19C3 19.5523 3.44772 20 4 20H7C7.55228 20 8 19.5523 8 19V14C8 13.4477 7.55228 13 7 13Z" stroke="white" stroke-width="2" stroke-linecap="round" stroke-linejoin="round"/>
<path d="M3 13C3 8.02944 7.02944 4 12 4C16.9706 4 21 8.02944 21 13" stroke="white" stroke-width="2" stroke-linecap="round" stroke-linejoin="round"/>
</svg>
