<svg width="54" height="54" viewBox="0 0 54 54" fill="none" xmlns="http://www.w3.org/2000/svg">
<path d="M15.3636 38.4313L14.5061 38.9458C14.5906 39.0866 14.7084 39.2044 14.8491 39.2888L15.3636 38.4313ZM42.4105 11.3846L43.4083 11.3181C43.375 10.8182 42.9769 10.4201 42.477 10.3868L42.4105 11.3846ZM16.2211 37.9169C13.9139 34.0715 12.9968 30.4933 13.2043 27.3351C13.411 24.1883 14.7383 21.3789 17.0651 19.0522C21.7497 14.3675 30.556 11.5965 42.344 12.3824L42.477 10.3868C30.4 9.58162 20.9099 12.379 15.6509 17.638C13.0057 20.2831 11.4494 23.5394 11.2086 27.204C10.9686 30.8572 12.0403 34.8362 14.5061 38.9458L16.2211 37.9169ZM41.4127 11.4511C42.1985 23.2389 39.4274 32.0452 34.7427 36.7298C32.416 39.0566 29.6066 40.3839 26.4598 40.5906C23.3016 40.7981 19.7234 39.8811 15.8781 37.5739L14.8491 39.2888C18.9587 41.7546 22.9378 42.8263 26.5909 42.5863C30.2555 42.3456 33.5118 40.7892 36.1569 38.144C41.4159 32.885 44.2133 23.3949 43.4083 11.3181L41.4127 11.4511Z" fill="#75B904"/>
<path d="M11.25 42.5459L23.9779 29.818" stroke="#75B904" stroke-width="2" stroke-linecap="round" stroke-linejoin="round"/>
</svg>
