<svg width="50" height="50" viewBox="0 0 50 50" fill="none" xmlns="http://www.w3.org/2000/svg">
<path d="M10.4154 43.75L39.582 43.75C40.7326 43.75 41.6654 42.8173 41.6654 41.6667L41.6654 20.8333C41.6654 19.6827 40.7326 18.75 39.582 18.75L10.4154 18.75C9.26477 18.75 8.33203 19.6827 8.33203 20.8333L8.33203 41.6667C8.33203 42.8173 9.26477 43.75 10.4154 43.75Z" stroke="white" stroke-width="2" stroke-linecap="round" stroke-linejoin="round"/>
<path d="M30.7692 18.75L30.7692 17.75L30.7692 17.75L30.7692 18.75ZM19.2308 18.75L19.2308 19.75L19.2308 19.75L19.2308 18.75ZM18.75 18.2692L17.75 18.2692L18.75 18.2692ZM18.75 12.5L19.75 12.5L18.75 12.5ZM31.25 12.5L30.25 12.5L30.25 12.5L31.25 12.5ZM31.25 18.2692L32.25 18.2692L32.25 18.2692L31.25 18.2692ZM25 6.25L25 7.25L25 6.25ZM30.7692 17.75L19.2308 17.75L19.2308 19.75L30.7692 19.75L30.7692 17.75ZM19.75 18.2692L19.75 12.5L17.75 12.5L17.75 18.2692L19.75 18.2692ZM30.25 12.5L30.25 18.2692L32.25 18.2692L32.25 12.5L30.25 12.5ZM25 7.25C27.8995 7.25 30.25 9.6005 30.25 12.5L32.25 12.5C32.25 8.49594 29.0041 5.25 25 5.25L25 7.25ZM19.75 12.5C19.75 9.60051 22.1005 7.25 25 7.25L25 5.25C20.9959 5.25 17.75 8.49594 17.75 12.5L19.75 12.5ZM19.2308 17.75C19.5175 17.75 19.75 17.9825 19.75 18.2692L17.75 18.2692C17.75 19.087 18.413 19.75 19.2308 19.75L19.2308 17.75ZM30.7692 19.75C31.587 19.75 32.25 19.087 32.25 18.2692L30.25 18.2692C30.25 17.9825 30.4825 17.75 30.7692 17.75L30.7692 19.75Z" fill="white"/>
</svg>
