<svg width="73" height="80" viewBox="0 0 73 80" fill="none" xmlns="http://www.w3.org/2000/svg">
<path fill-rule="evenodd" clip-rule="evenodd" d="M72.0539 21.4789C72.1951 20.2088 72.0478 18.9232 71.6229 17.718C71.198 16.5127 70.5065 15.419 69.6 14.5182C68.6935 13.6175 67.5954 12.933 66.3875 12.5158C65.1796 12.0987 63.8931 11.9595 62.6239 12.1089C61.6605 12.2314 60.7223 12.5047 59.8439 12.9189C58.307 13.6733 57.0335 14.8739 56.1896 16.3635C55.3458 17.8532 54.9709 19.5628 55.1139 21.2689C55.2834 23.1192 56.0323 24.8689 57.2539 26.2689C58.3964 27.535 59.8915 28.4306 61.547 28.8405C63.2024 29.2503 64.9426 29.1557 66.5439 28.5689C66.9959 28.4003 67.434 28.1964 67.8539 27.9589C69.3492 27.1045 70.5438 25.8086 71.2739 24.2489C71.4808 23.8159 71.6546 23.368 71.7939 22.9089C71.9152 22.4425 72.0021 21.9679 72.0539 21.4889V21.4789ZM41.3839 47.0388C33.2068 42.7769 26.6945 35.8969 22.8876 27.4983C19.0808 19.0997 18.1993 9.66741 20.3839 0.708856C20.4127 0.586733 20.4662 0.471795 20.541 0.371102C20.6159 0.270409 20.7105 0.186093 20.8192 0.123338C20.9278 0.0605828 21.0482 0.0207164 21.1728 0.00618834C21.2974 -0.0083397 21.4237 0.00277672 21.5439 0.0388574C72.5439 14.9589 52.3539 90.3789 0.703902 77.7989C0.583234 77.7675 0.469996 77.7125 0.370787 77.6371C0.271578 77.5616 0.188372 77.4671 0.126021 77.3591C0.0636693 77.2512 0.0234136 77.1319 0.00759723 77.0083C-0.00821916 76.8846 0.000714645 76.759 0.0338881 76.6389C2.62852 67.7946 8.11048 60.0741 15.6051 54.7091C23.0998 49.3441 32.1754 46.6438 41.3839 47.0388Z" fill="white"/>
</svg>
