<svg width="24" height="24" viewBox="0 0 24 24" fill="none" xmlns="http://www.w3.org/2000/svg">
<path d="M21 10.0001H22C22 9.69646 21.862 9.40927 21.625 9.21949L21 10.0001ZM3 10.0001L2.39685 9.20248C2.1469 9.39149 2 9.68674 2 10.0001H3ZM11.6364 3.46946L12.2396 4.26709V4.26709L11.6364 3.46946ZM12.8646 3.48647L13.4896 2.70585V2.70585L12.8646 3.48647ZM20 10.0001V20.0001H22V10.0001H20ZM20 20.0001H4V22.0001H20V20.0001ZM4 20.0001V10.0001H2V20.0001H4ZM3.60315 10.7977L12.2396 4.26709L11.0333 2.67183L2.39685 9.20248L3.60315 10.7977ZM12.2396 4.26709L20.375 10.7807L21.625 9.21949L13.4896 2.70585L12.2396 4.26709ZM12.2396 4.26709V4.26709L13.4896 2.70585C12.7751 2.13377 11.7634 2.11976 11.0333 2.67183L12.2396 4.26709ZM4 20.0001H4H2C2 21.1047 2.89543 22.0001 4 22.0001V20.0001ZM20 20.0001V22.0001C21.1046 22.0001 22 21.1047 22 20.0001H20Z" fill="white"/>
<path d="M3 10L12.2571 16L21 10" stroke="white" stroke-width="2" stroke-linecap="round" stroke-linejoin="round"/>
</svg>
