<svg width="20" height="20" viewBox="0 0 20 20" fill="none" xmlns="http://www.w3.org/2000/svg">
<path d="M6.66536 16.6669V17.1669C6.79797 17.1669 6.92515 17.1142 7.01892 17.0204L6.66536 16.6669ZM3.33203 16.6669H2.83203C2.83203 16.943 3.05589 17.1669 3.33203 17.1669V16.6669ZM3.33203 13.3335L2.97848 12.98C2.88471 13.0737 2.83203 13.2009 2.83203 13.3335H3.33203ZM12.7428 3.92279L13.0963 4.27634V4.27634L12.7428 3.92279ZM13.9213 3.92279L13.5677 4.27634V4.27634L13.9213 3.92279ZM16.0761 6.07761L16.4297 5.72406V5.72406L16.0761 6.07761ZM16.0761 7.25612L15.7226 6.90257L16.0761 7.25612ZM6.66536 16.1669H3.33203V17.1669H6.66536V16.1669ZM3.83203 16.6669V13.3335H2.83203V16.6669H3.83203ZM3.68558 13.6871L13.0963 4.27634L12.3892 3.56924L2.97848 12.98L3.68558 13.6871ZM13.5677 4.27634L15.7226 6.43116L16.4297 5.72406L14.2748 3.56924L13.5677 4.27634ZM15.7226 6.90257L6.31181 16.3133L7.01892 17.0204L16.4297 7.60968L15.7226 6.90257ZM15.7226 6.43116C15.8527 6.56134 15.8527 6.77239 15.7226 6.90257L16.4297 7.60968C16.9504 7.08898 16.9504 6.24476 16.4297 5.72406L15.7226 6.43116ZM13.0963 4.27634C13.2265 4.14617 13.4376 4.14617 13.5677 4.27634L14.2748 3.56924C13.7541 3.04854 12.9099 3.04854 12.3892 3.56924L13.0963 4.27634Z" fill="white"/>
<path d="M10 6.6665L13.3333 9.99984" stroke="white" stroke-linecap="round" stroke-linejoin="round"/>
</svg>
