<svg width="24" height="24" viewBox="0 0 24 24" fill="none" xmlns="http://www.w3.org/2000/svg">
<path d="M3 14C9.63934 13.6444 6.83607 10 12 10C17.1639 10 14.3607 13.6444 21 14" stroke="#9E9E9E" stroke-width="2" stroke-miterlimit="22.93" stroke-linecap="round"/>
<circle cx="11.5" cy="4.5" r="2.5" stroke="#9E9E9E" stroke-width="2"/>
<path d="M10.5 15C10.5 14.4477 10.0523 14 9.5 14C8.94772 14 8.5 14.4477 8.5 15H10.5ZM9.5 18.5V19.5C10.0523 19.5 10.5 19.0523 10.5 18.5H9.5ZM9.5 23C10.0523 23 10.5 22.5523 10.5 22C10.5 21.4477 10.0523 21 9.5 21V23ZM8.5 15V18.5H10.5V15H8.5ZM9.5 17.5H4.86187V19.5H9.5V17.5ZM4.86187 17.5C3.99078 17.5 3.25428 17.8148 2.73893 18.3598C2.23653 18.891 2.00002 19.582 2 20.25C1.99998 20.918 2.23646 21.609 2.73886 22.1402C3.2542 22.6852 3.99071 23 4.8618 23V21C4.49166 21 4.29726 20.8773 4.192 20.766C4.0738 20.641 3.99999 20.457 4 20.25C4.00001 20.043 4.07382 19.859 4.19204 19.734C4.29732 19.6227 4.49174 19.5 4.86187 19.5V17.5ZM4.8618 23H9.5V21H4.8618V23Z" fill="#9E9E9E"/>
<path d="M13.5 15C13.5 14.4477 13.9477 14 14.5 14C15.0523 14 15.5 14.4477 15.5 15H13.5ZM14.5 18.5V19.5C13.9477 19.5 13.5 19.0523 13.5 18.5H14.5ZM14.5 23C13.9477 23 13.5 22.5523 13.5 22C13.5 21.4477 13.9477 21 14.5 21V23ZM15.5 15V18.5H13.5V15H15.5ZM14.5 17.5H19.1381V19.5H14.5V17.5ZM19.1381 17.5C20.0092 17.5 20.7457 17.8148 21.2611 18.3598C21.7635 18.891 22 19.582 22 20.25C22 20.918 21.7635 21.609 21.2611 22.1402C20.7458 22.6852 20.0093 23 19.1382 23V21C19.5083 21 19.7027 20.8773 19.808 20.766C19.9262 20.641 20 20.457 20 20.25C20 20.043 19.9262 19.859 19.808 19.734C19.7027 19.6227 19.5083 19.5 19.1381 19.5V17.5ZM19.1382 23H14.5V21H19.1382V23Z" fill="#9E9E9E"/>
</svg>
