<svg width="54" height="54" viewBox="0 0 54 54" fill="none" xmlns="http://www.w3.org/2000/svg">
<path d="M38.25 13.5C38.25 14.2889 38.1147 15.0462 37.8659 15.75L45 15.75C46.2426 15.75 47.25 16.7574 47.25 18V25.1341C46.5462 24.8853 45.7889 24.75 45 24.75C41.2721 24.75 38.25 27.7721 38.25 31.5C38.25 35.2279 41.2721 38.25 45 38.25C45.7889 38.25 46.5462 38.1147 47.25 37.8659V45C47.25 46.2426 46.2426 47.25 45 47.25H18C16.7574 47.25 15.75 46.2426 15.75 45V37.8659C15.0462 38.1147 14.2889 38.25 13.5 38.25C9.77208 38.25 6.75 35.2279 6.75 31.5C6.75 27.7721 9.77208 24.75 13.5 24.75C14.2889 24.75 15.0463 24.8853 15.75 25.1341V18C15.75 16.7574 16.7574 15.75 18 15.75L25.1341 15.75C24.8853 15.0462 24.75 14.2889 24.75 13.5C24.75 9.77208 27.7721 6.75 31.5 6.75C35.2279 6.75 38.25 9.77208 38.25 13.5Z" stroke="#FF5C00" stroke-width="2" stroke-linecap="round" stroke-linejoin="round"/>
</svg>
