<svg width="54" height="54" viewBox="0 0 54 54" fill="none" xmlns="http://www.w3.org/2000/svg">
<path d="M27 38.25C33.2132 38.25 38.25 33.2132 38.25 27C38.25 20.7868 33.2132 15.75 27 15.75C20.7868 15.75 15.75 20.7868 15.75 27C15.75 33.2132 20.7868 38.25 27 38.25Z" stroke="#FBBC05" stroke-width="2" stroke-linecap="round" stroke-linejoin="round"/>
<path d="M26 9C26 9.55228 26.4477 10 27 10C27.5523 10 28 9.55228 28 9H26ZM28 4.5C28 3.94772 27.5523 3.5 27 3.5C26.4477 3.5 26 3.94772 26 4.5H28ZM28 45C28 44.4477 27.5523 44 27 44C26.4477 44 26 44.4477 26 45H28ZM26 49.5C26 50.0523 26.4477 50.5 27 50.5C27.5523 50.5 28 50.0523 28 49.5H26ZM28 9V4.5H26V9H28ZM26 45V49.5H28V45H26Z" fill="#FBBC05"/>
<path d="M13.7249 15.1391C14.1154 15.5296 14.7486 15.5296 15.1391 15.1391C15.5296 14.7486 15.5296 14.1154 15.1391 13.7249L13.7249 15.1391ZM11.9571 10.5429C11.5666 10.1524 10.9334 10.1524 10.5429 10.5429C10.1524 10.9334 10.1524 11.5666 10.5429 11.9571L11.9571 10.5429ZM40.5949 39.1807C40.2044 38.7902 39.5712 38.7902 39.1807 39.1807C38.7902 39.5712 38.7902 40.2044 39.1807 40.5949L40.5949 39.1807ZM42.3627 43.7769C42.7532 44.1674 43.3864 44.1674 43.7769 43.7769C44.1674 43.3864 44.1674 42.7532 43.7769 42.3627L42.3627 43.7769ZM15.1391 13.7249L11.9571 10.5429L10.5429 11.9571L13.7249 15.1391L15.1391 13.7249ZM39.1807 40.5949L42.3627 43.7769L43.7769 42.3627L40.5949 39.1807L39.1807 40.5949Z" fill="#FBBC05"/>
<path d="M9 28C9.55228 28 10 27.5523 10 27C10 26.4477 9.55228 26 9 26V28ZM4.5 26C3.94772 26 3.5 26.4477 3.5 27C3.5 27.5523 3.94772 28 4.5 28V26ZM45 26C44.4477 26 44 26.4477 44 27C44 27.5523 44.4477 28 45 28V26ZM49.5 28C50.0523 28 50.5 27.5523 50.5 27C50.5 26.4477 50.0523 26 49.5 26V28ZM9 26H4.5V28H9V26ZM45 28H49.5V26H45V28Z" fill="#FBBC05"/>
<path d="M39.1807 13.7249C38.7902 14.1154 38.7902 14.7486 39.1807 15.1391C39.5712 15.5296 40.2044 15.5296 40.5949 15.1391L39.1807 13.7249ZM43.7769 11.9571C44.1674 11.5666 44.1674 10.9334 43.7769 10.5429C43.3864 10.1524 42.7532 10.1524 42.3627 10.5429L43.7769 11.9571ZM15.1391 40.5949C15.5296 40.2044 15.5296 39.5712 15.1391 39.1807C14.7486 38.7902 14.1154 38.7902 13.7249 39.1807L15.1391 40.5949ZM10.5429 42.3627C10.1524 42.7532 10.1524 43.3864 10.5429 43.7769C10.9334 44.1674 11.5666 44.1674 11.9571 43.7769L10.5429 42.3627ZM40.5949 15.1391L43.7769 11.9571L42.3627 10.5429L39.1807 13.7249L40.5949 15.1391ZM13.7249 39.1807L10.5429 42.3627L11.9571 43.7769L15.1391 40.5949L13.7249 39.1807Z" fill="#FBBC05"/>
</svg>
