<svg width="8" height="5" viewBox="0 0 8 5" fill="none" xmlns="http://www.w3.org/2000/svg">
<path d="M7.42426 3.57574C7.65858 3.81005 7.65858 4.18995 7.42426 4.42426C7.18995 4.65858 6.81005 4.65858 6.57574 4.42426L7.42426 3.57574ZM4 1L3.57574 0.575736C3.68826 0.463214 3.84087 0.4 4 0.4C4.15913 0.4 4.31174 0.463214 4.42426 0.575736L4 1ZM1.42426 4.42426C1.18995 4.65858 0.81005 4.65858 0.575736 4.42426C0.341421 4.18995 0.341421 3.81005 0.575736 3.57574L1.42426 4.42426ZM6.57574 4.42426L3.57574 1.42426L4.42426 0.575736L7.42426 3.57574L6.57574 4.42426ZM4.42426 1.42426L1.42426 4.42426L0.575736 3.57574L3.57574 0.575736L4.42426 1.42426Z" fill="white"/>
</svg>
