<svg width="84" height="84" viewBox="0 0 84 84" fill="none" xmlns="http://www.w3.org/2000/svg">
<path d="M42 73.5C57.464 73.5 70 60.964 70 45.5C70 30.036 57.464 17.5 42 17.5C26.536 17.5 14 30.036 14 45.5C14 60.964 26.536 73.5 42 73.5Z" stroke="white" stroke-width="2" stroke-miterlimit="10" stroke-linecap="round" stroke-linejoin="round"/>
<path d="M41 45.5C41 46.0523 41.4477 46.5 42 46.5C42.5523 46.5 43 46.0523 43 45.5H41ZM43 31.5C43 30.9477 42.5523 30.5 42 30.5C41.4477 30.5 41 30.9477 41 31.5H43ZM43 45.5V31.5H41V45.5H43Z" fill="white"/>
<path d="M73.5 21L66.5 14" stroke="white" stroke-width="2" stroke-linecap="round" stroke-linejoin="round"/>
<path d="M35 7L49 7" stroke="white" stroke-width="2" stroke-linecap="round" stroke-linejoin="round"/>
</svg>
